<?xml version="1.0" encoding="utf-8" ?>
<svg baseProfile="full" height="200mm" version="1.1" viewBox="0,0,200,200" width="200mm" xmlns="http://www.w3.org/2000/svg" xmlns:ev="http://www.w3.org/2001/xml-events" xmlns:xlink="http://www.w3.org/1999/xlink"><defs /><rect fill="#1a1a1a" height="200" width="200" x="0" y="0" /><text alignment-baseline="middle" fill="#e1ed5e" style="dominant-baseline: central; font-size:9.0px; font-family:Arial;" text-anchor="middle" x="100.0" y="100.0">2019</text><line stroke="#e1ed5e" stroke-width="0.3" x1="100.0" x2="100.0" y1="15.0" y2="10.0" /><path d="M 100.0 14.0 a86.0,86.0 0 0,1 42.46469731375804,11.215312516191453" fill="none" id="id13" stroke="none" /><text fill="#e1ed5e" style="font-size:6.75px; font-family:Arial;" text-anchor="middle"><textPath startOffset="22.20632615414155" xlink:href="#id13">January</textPath></text><line stroke="#e1ed5e" stroke-width="0.3" x1="143.23703022742887" x2="145.7803849466894" y1="26.81831364943548" y2="22.513508569990506" /><path d="M 143.74570117128098 25.957352633546492 a86.0,86.0 0 0,1 28.547481713284135,27.462654790039103" fill="none" id="id14" stroke="none" /><text fill="#e1ed5e" style="font-size:6.75px; font-family:Arial;" text-anchor="middle"><textPath startOffset="19.985693538727396" xlink:href="#id14">February</textPath></text><line stroke="#e1ed5e" stroke-width="0.3" x1="172.23445277983987" x2="176.4835382374775" y1="55.19839476539836" y2="52.563006222186495" /><path d="M 173.08426987136738 54.67131705675599 a86.0,86.0 0 0,1 12.851231095245387,41.99856678651699" fill="none" id="id15" stroke="none" /><text fill="#e1ed5e" style="font-size:6.75px; font-family:Arial;" text-anchor="middle"><textPath startOffset="22.20632615414155" xlink:href="#id15">March</textPath></text><path d="M 118.3937258080291 89.86733742301442 l 10.61359442865391 -5.846774720735473 a33.11747338891176,33.11747338891176 0 0,0 0.2707619978678176,0.5016808604282893 l -10.712664525740193 5.663212876974725" fill="#ff0000" stroke="none" /><path d="M 119.196687751892 91.48605970444005 l 35.55036172299942 -15.766972985500866 a59.88991714778545,59.88991714778545 0 0,0 0.4098446419470909,0.9459779404075199 l -35.81649707478919 15.152695900506743" fill="#66ff29" stroke="none" /><path d="M 120.6074358757038 95.95851677861258 l 61.822307627111385 -12.124449664162288 a84.0,84.0 0 0,0 0.26605710436056285,1.4212876901497489 l -62.02185045538181 11.058483896549978" fill="#4dd2ff" stroke="none" /><path d="M 120.94382443527127 98.46500227214037 l 62.5080417288149 -4.581288499778396 a83.67570091422566,83.67570091422566 0 0,0 0.09291751869576338,1.437392887956234 l -62.57763983851508 3.504636547569127" fill="#4dd6ff" stroke="none" /><line stroke="#e1ed5e" stroke-width="0.3" x1="184.98032266829074" x2="189.97916517819016" y1="98.17113171792111" y2="98.06355123074" /><path d="M 185.9800911702706 98.14961562048488 a86.0,86.0 0 0,1 -9.607161424134198,41.387399972396054" fill="none" id="id16" stroke="none" /><text fill="#e1ed5e" style="font-size:6.75px; font-family:Arial;" text-anchor="middle"><textPath startOffset="21.466115282336823" xlink:href="#id16">April</textPath></text><path d="M 120.95626037817324 101.35467743843564 l 60.06177859049267 3.882578995515887 a81.18713871841545,81.18713871841545 0 0,0 -0.10215445700649191,1.3938164037596166 l -59.98604757482184 -4.915868535772274" fill="#49f2ff" stroke="none" /><path d="M 120.02730092923936 106.31721596034902 l 59.84334824093663 18.87640056760896 a83.7498591797212,83.7498591797212 0 0,0 -0.44550039269871233,1.3711092244139471 l -59.50955559722167 -19.903708692000702" fill="#4dd5ff" stroke="none" /><line stroke="#e1ed5e" stroke-width="0.3" x1="174.80103733775053" x2="179.2010983576182" y1="140.37084112569926" y2="142.7455964860345" /><path d="M 175.68104954172406 140.8457921977663 a86.0,86.0 0 0,1 -30.038265399797805,32.042727171017184" fill="none" id="id17" stroke="none" /><text fill="#e1ed5e" style="font-size:6.75px; font-family:Arial;" text-anchor="middle"><textPath startOffset="22.206326154141568" xlink:href="#id17">May</textPath></text><path d="M 116.27256486870786 113.27417163493432 l 48.28956128033336 39.39169576416773 a83.31843566573073,83.31843566573073 0 0,0 -0.9161219084680804,1.1035278550149303 l -47.60434337197173 -40.21708487629643" fill="#4cdaff" stroke="none" /><path d="M 114.29624159901734 115.38237550388516 l 42.717250583178 45.962624820859695 a83.748118520073,83.748118520073 0 0,0 -1.064400503062379,0.9723046228551406 l -41.919750530648756 -46.69112221030142" fill="#4dd5ff" stroke="none" /><line stroke="#e1ed5e" stroke-width="0.3" x1="143.8653032363475" x2="146.44561519142675" y1="172.8068346515853" y2="177.08958963109032" /><path d="M 144.38136562736335 173.6633856474863 a86.0,86.0 0 0,1 -40.68145358897372,12.25698825130547" fill="none" id="id18" stroke="none" /><text fill="#e1ed5e" style="font-size:6.75px; font-family:Arial;" text-anchor="middle"><textPath startOffset="21.466115282336833" xlink:href="#id18">June</textPath></text><path d="M 109.89434966115114 118.52300852407294 l 7.496001963007436 14.03311112022092 a36.90969054198979,36.90969054198979 0 0,0 -0.5629766507395757,0.2945227757472343 l -7.253334409741365 -14.16006331491287" fill="#ff4206" stroke="none" /><path d="M 109.57404056367764 118.69057910512821 l 7.2903015169334155 14.232231031005705 a36.99077535104922,36.99077535104922 0 0,0 -0.5692106907845914,0.2854140569794988 l -7.044236918466064 -14.355612928894507" fill="#ff4406" stroke="none" /><path d="M 108.59647513512805 119.15986991738527 l 12.985668018132762 28.942526571277973 a52.722191257955174,52.722191257955174 0 0,0 -0.8312013101070795,0.36437422759612037 l -12.485546033367928 -29.161765352168548" fill="#c6ff1e" stroke="none" /><path d="M 104.13013068566511 120.58985236759428 l 11.204608808491049 55.85809717939362 a77.970784434251,77.970784434251 0 0,0 -1.3181977900670263,0.25263574380352805 l -10.241443403852319 -56.04269012154561" fill="#44ffe6" stroke="none" /><line stroke="#e1ed5e" stroke-width="0.3" x1="102.19456741930631" x2="102.32365962044197" y1="184.97166512339345" y2="189.96999836594603" /><path d="M 102.22038585953345 185.97133177190398 a86.0,86.0 0 0,1 -42.740103519485714,-10.115201625700543" fill="none" id="id19" stroke="none" /><text fill="#e1ed5e" style="font-size:6.75px; font-family:Arial;" text-anchor="middle"><textPath startOffset="22.20632615414155" xlink:href="#id19">July</textPath></text><path d="M 99.09653310690486 120.98055641714683 l -1.4344350890123279 33.31084574516787 a54.34171633678983,54.34171633678983 0 0,0 -0.9341908562128934,-0.04828699655800516 l 2.0076140136387104 -33.281218941847655" fill="#afff20" stroke="none" /><path d="M 90.42595943632237 118.69057910512821 l -16.81206684135099 32.82075766537917 a57.87611320635079,57.87611320635079 0 0,0 -0.882773599352409,-0.4618254247242644 l 17.374531343229894 -32.52650282171019" fill="#80ff25" stroke="none" /><line stroke="#e1ed5e" stroke-width="0.3" x1="58.666819895761336" x2="56.23545636021788" y1="174.27360380694188" y2="178.64263932499728" /><path d="M 58.180547188652646 175.14741091055294 a86.0,86.0 0 0,1 -31.652253787137756,-30.449443065178592" fill="none" id="id20" stroke="none" /><text fill="#e1ed5e" style="font-size:6.75px; font-family:Arial;" text-anchor="middle"><textPath startOffset="22.20632615414155" xlink:href="#id20">August</textPath></text><path d="M 85.44109423537348 115.13401014063109 l -21.751280820033806 22.610497644810515 a52.3743975409561,52.3743975409561 0 0,0 -0.6443299094759569,-0.6306124298915796 l 22.137260681885557 -22.232735111996366" fill="#cbff1d" stroke="none" /><path d="M 82.6465618267979 111.8261652097733 l -25.884191377946046 17.639773772881988 a52.32336160198314,52.32336160198314 0 0,0 -0.5008015807842877,-0.7486304136217389 l 26.183996064141063 -17.191606445054425" fill="#ccff1d" stroke="none" /><line stroke="#e1ed5e" stroke-width="0.3" x1="26.63291911575756" x2="22.317208475507996" y1="142.92168965132927" y2="145.44649492493687" /><path d="M 25.769776987707644 143.4266507060508 a86.0,86.0 0 0,1 -11.730757126820373,-40.83630448921669" fill="none" id="id21" stroke="none" /><text fill="#e1ed5e" style="font-size:6.75px; font-family:Arial;" text-anchor="middle"><textPath startOffset="21.46611528233685" xlink:href="#id21">September</textPath></text><path d="M 81.18737489456691 109.33194174019688 l -38.152424393395854 18.925386525860933 a63.58846959268465,63.58846959268465 0 0,0 -0.47796346866948763,-0.9847463135622248 l 38.47254111868006 -18.265851256333423" fill="#39ff2e" stroke="none" /><path d="M 79.86692584326677 105.97154293290107 l -31.15476540951331 9.240616597299471 a53.496282907743364,53.496282907743364 0 0,0 -0.25425347301984985,-0.885089694504128 l 31.309211519419264 -8.702969427290748" fill="#bbff1f" stroke="none" /><path d="M 79.4281124754447 104.21870165774334 l -27.441274804020157 5.627415149345318 a49.012343067527084,49.012343067527084 0 0,0 -0.16237104724892804,-0.8279264717829199 l 27.534075784244752 -5.154224950494444" fill="#fbff18" stroke="none" /><path d="M 79.04373962182676 101.35467743843564 l -29.09727192059346 1.8809375852148524 a50.158003351060074,50.158003351060074 0 0,0 -0.048279822853349565,-0.8620686695971181 l 29.125338094334342 -1.3797971992822968" fill="#ebff1a" stroke="none" /><line stroke="#e1ed5e" stroke-width="0.3" x1="15.007084014347285" x2="10.007500721073583" y1="101.09737516637583" y2="101.16192664675087" /><path d="M 14.007167355692545 101.11028546245083 a86.0,86.0 0 0,1 10.666146001902534,-42.60595125391555" fill="none" id="id22" stroke="none" /><text fill="#e1ed5e" style="font-size:6.75px; font-family:Arial;" text-anchor="middle"><textPath startOffset="22.20632615414155" xlink:href="#id22">October</textPath></text><path d="M 79.05617556472873 98.46500227214037 l -36.14027073712319 -2.648763297131676 a57.23720623829595,57.23720623829595 0 0,0 0.08047419328169475,-0.9819889916936265 l 36.089322060022 3.2704662060330807" fill="#89ff25" stroke="none" /><path d="M 79.32604984820605 96.31383870115002 l -29.520043524178146 -5.263418029947716 a50.98560553044328,50.98560553044328 0 0,0 0.16148907823213288,-0.8626811132767616 l 29.42506872203615 5.770777220687051" fill="#dfff1b" stroke="none" /><path d="M 79.62865764111835 94.90015583598534 l -30.42375220749303 -7.616405065970775 a52.362626237480214,52.362626237480214 0 0,0 0.22641516834606143,-0.872470004197294 l 30.28814070727666 8.138971495716932" fill="#cbff1d" stroke="none" /><path d="M 81.26839172434947 90.50648371742162 l -27.626556060086735 -14.001635947561978 a51.972123093988486,51.972123093988486 0 0,0 0.41129888556487026,-0.7944985331054225 l 27.38144774136175 14.475107202927735" fill="#d0ff1d" stroke="none" /><line stroke="#e1ed5e" stroke-width="0.3" x1="26.266209847984243" x2="21.928928074336255" y1="57.711370442889674" y2="55.22380399835377" /><path d="M 25.398753493254645 57.213857153982495 a86.0,86.0 0 0,1 29.58750427330803,-30.492523968695096" fill="none" id="id23" stroke="none" /><text fill="#e1ed5e" style="font-size:6.75px; font-family:Arial;" text-anchor="middle"><textPath startOffset="21.46611528233685" xlink:href="#id23">November</textPath></text><path d="M 81.78341655067845 89.55222093294921 l -49.59967095013901 -28.446959075894632 a78.17828992745137,78.17828992745137 0 0,0 0.6795566901290614,-1.1615826649681522 l 49.102654585539625 29.296521153216677" fill="#44ffe9" stroke="none" /><path d="M 83.17141714833178 87.43820079747576 l -25.031686855417842 -18.685056653303015 a52.23646409190454,52.23646409190454 0 0,0 0.5440653092628057,-0.715926172371153 l 24.706345605930927 19.113167601555194" fill="#cdff1d" stroke="none" /><path d="M 84.80347519578584 85.50635884689758 l -22.07628789385424 -21.05519510864566 a51.50710947034267,51.50710947034267 0 0,0 0.6174371489067045,-0.6363232562060093 l 21.710586481244416 21.432082560401792" fill="#d7ff1c" stroke="none" /><path d="M 86.65592168130627 83.78471172551755 l -19.937219773354222 -24.22705849708303 a52.3758361755047,52.3758361755047 0 0,0 0.7010795022036601,-0.5668908673040381 l 19.51723687258606 24.566655461651198" fill="#cbff1d" stroke="none" /><line stroke="#e1ed5e" stroke-width="0.3" x1="56.762969772571076" x2="54.21961505331055" y1="26.818313649435495" y2="22.513508569990535" /><path d="M 56.25429882871897 25.957352633546506 a86.0,86.0 0 0,1 42.265352541879196,-11.944610805530505" fill="none" id="id24" stroke="none" /><text fill="#e1ed5e" style="font-size:6.75px; font-family:Arial;" text-anchor="middle"><textPath startOffset="22.20632615414155" xlink:href="#id24">December</textPath></text><path d="M 90.91171255644093 81.06846463323043 l -13.60507252660729 -28.340313101283883 a52.43678331402638,52.43678331402638 0 0,0 0.817069429986217,-0.3836250530834573 l 13.115224885321464 28.570303137007347" fill="#caff1d" stroke="none" /><path d="M 93.25333710446033 80.11325718540243 l -10.119964978860516 -29.830027666031054 a52.499908598749,52.499908598749 0 0,0 0.8582914501263798,-0.282965196715382 l 9.604990706491726 29.99980658700567" fill="#c9ff1d" stroke="none" /><path d="M 96.75951476605007 79.25152402106235 l -4.44825931274491 -28.481722592536837 a49.82699312713078,49.82699312713078 0 0,0 0.8485561121062137,-0.12505511311777534 l 3.957334220210047 28.55407218981558" fill="#efff19" stroke="none" /></svg>