<?xml version="1.0" encoding="utf-8" ?>
<svg baseProfile="full" height="98mm" version="1.1" viewBox="0,0,200,98" width="200mm" xmlns="http://www.w3.org/2000/svg" xmlns:ev="http://www.w3.org/2001/xml-events" xmlns:xlink="http://www.w3.org/1999/xlink"><defs /><rect fill="#222222" height="98" width="200" x="0" y="0" /><text fill="#FFFFFF" style="font-size:12px; font-family:Arial; font-weight:bold;" x="10" y="20">2018 Running</text><text fill="#FFFFFF" style="font-size:4px; font-family:Arial" x="10" y="78">Runner</text><text fill="#FFFFFF" style="font-size:9px; font-family:Arial" x="10" y="88">Quitino</text><text fill="#FFFFFF" style="font-size:4px; font-family:Arial" x="65" y="78">SPECIAL TRACKS</text><rect fill="yellow" height="2.6" width="2.6" x="65" y="81" /><text fill="#FFFFFF" style="font-size:3px; font-family:Arial" x="70" y="83.5">Over 5.0 km</text><rect fill="red" height="2.6" width="2.6" x="65" y="85" /><text fill="#FFFFFF" style="font-size:3px; font-family:Arial" x="70" y="87.5">Over 10.0 km</text><text fill="#FFFFFF" style="font-size:4px; font-family:Arial" x="120" y="78">STATISTICS</text><text fill="#FFFFFF" style="font-size:3px; font-family:Arial" x="120" y="83">Number: 19</text><text fill="#FFFFFF" style="font-size:3px; font-family:Arial" x="120" y="88">Weekly: 1.1</text><text fill="#FFFFFF" style="font-size:3px; font-family:Arial" x="141" y="83">Total: 142.9 km</text><text fill="#FFFFFF" style="font-size:3px; font-family:Arial" x="141" y="88">Avg: 7.5 km</text><text fill="#FFFFFF" style="font-size:3px; font-family:Arial" x="167" y="83">Min: 2.4 km</text><text fill="#FFFFFF" style="font-size:3px; font-family:Arial" x="167" y="88">Max: 11.2 km</text><text dominant-baseline="hanging" fill="#FFFFFF" style="font-size:10.0px; font-family:Arial;" x="10" y="30">2018</text><text dominant-baseline="hanging" fill="#FFFFFF" style="font-size:4.125px; font-family:Arial;" x="175" y="35">142.9 km</text><text fill="#FFFFFF" style="font-size:2.5px; font-family:Arial" x="10.0" y="44">一月</text><text fill="#FFFFFF" style="font-size:2.5px; font-family:Arial" x="25.5" y="44">二月</text><text fill="#FFFFFF" style="font-size:2.5px; font-family:Arial" x="41.0" y="44">三月</text><text fill="#FFFFFF" style="font-size:2.5px; font-family:Arial" x="56.5" y="44">四月</text><text fill="#FFFFFF" style="font-size:2.5px; font-family:Arial" x="72.0" y="44">五月</text><text fill="#FFFFFF" style="font-size:2.5px; font-family:Arial" x="87.5" y="44">六月</text><text fill="#FFFFFF" style="font-size:2.5px; font-family:Arial" x="103.0" y="44">七月</text><text fill="#FFFFFF" style="font-size:2.5px; font-family:Arial" x="118.5" y="44">八月</text><text fill="#FFFFFF" style="font-size:2.5px; font-family:Arial" x="134.0" y="44">九月</text><text fill="#FFFFFF" style="font-size:2.5px; font-family:Arial" x="149.5" y="44">十月</text><text fill="#FFFFFF" style="font-size:2.5px; font-family:Arial" x="165.0" y="44">十一月</text><text fill="#FFFFFF" style="font-size:2.5px; font-family:Arial" x="180.5" y="44">十二月</text><rect fill="#444444" height="2.4761904761904767" width="2.4761904761904767" x="10" y="45.333333333333336"><title>2018-01-01</title></rect><rect fill="#444444" height="2.4761904761904767" width="2.4761904761904767" x="10" y="48.66666666666667"><title>2018-01-02</title></rect><rect fill="#444444" height="2.4761904761904767" width="2.4761904761904767" x="10" y="52.00000000000001"><title>2018-01-03</title></rect><rect fill="#444444" height="2.4761904761904767" width="2.4761904761904767" x="10" y="55.33333333333334"><title>2018-01-04</title></rect><rect fill="#444444" height="2.4761904761904767" width="2.4761904761904767" x="10" y="58.66666666666668"><title>2018-01-05</title></rect><rect fill="#444444" height="2.4761904761904767" width="2.4761904761904767" x="10" y="62.000000000000014"><title>2018-01-06</title></rect><rect fill="#444444" height="2.4761904761904767" width="2.4761904761904767" x="10" y="65.33333333333334"><title>2018-01-07</title></rect><rect fill="#444444" height="2.4761904761904767" width="2.4761904761904767" x="13.333333333333334" y="45.333333333333336"><title>2018-01-08</title></rect><rect fill="#444444" height="2.4761904761904767" width="2.4761904761904767" x="13.333333333333334" y="48.66666666666667"><title>2018-01-09</title></rect><rect fill="#444444" height="2.4761904761904767" width="2.4761904761904767" x="13.333333333333334" y="52.00000000000001"><title>2018-01-10</title></rect><rect fill="#444444" height="2.4761904761904767" width="2.4761904761904767" x="13.333333333333334" y="55.33333333333334"><title>2018-01-11</title></rect><rect fill="#444444" height="2.4761904761904767" width="2.4761904761904767" x="13.333333333333334" y="58.66666666666668"><title>2018-01-12</title></rect><rect fill="#444444" height="2.4761904761904767" width="2.4761904761904767" x="13.333333333333334" y="62.000000000000014"><title>2018-01-13</title></rect><rect fill="#444444" height="2.4761904761904767" width="2.4761904761904767" x="13.333333333333334" y="65.33333333333334"><title>2018-01-14</title></rect><rect fill="#444444" height="2.4761904761904767" width="2.4761904761904767" x="16.666666666666668" y="45.333333333333336"><title>2018-01-15</title></rect><rect fill="#444444" height="2.4761904761904767" width="2.4761904761904767" x="16.666666666666668" y="48.66666666666667"><title>2018-01-16</title></rect><rect fill="#444444" height="2.4761904761904767" width="2.4761904761904767" x="16.666666666666668" y="52.00000000000001"><title>2018-01-17</title></rect><rect fill="#444444" height="2.4761904761904767" width="2.4761904761904767" x="16.666666666666668" y="55.33333333333334"><title>2018-01-18</title></rect><rect fill="#444444" height="2.4761904761904767" width="2.4761904761904767" x="16.666666666666668" y="58.66666666666668"><title>2018-01-19</title></rect><rect fill="#444444" height="2.4761904761904767" width="2.4761904761904767" x="16.666666666666668" y="62.000000000000014"><title>2018-01-20</title></rect><rect fill="#444444" height="2.4761904761904767" width="2.4761904761904767" x="16.666666666666668" y="65.33333333333334"><title>2018-01-21</title></rect><rect fill="#444444" height="2.4761904761904767" width="2.4761904761904767" x="20.0" y="45.333333333333336"><title>2018-01-22</title></rect><rect fill="#444444" height="2.4761904761904767" width="2.4761904761904767" x="20.0" y="48.66666666666667"><title>2018-01-23</title></rect><rect fill="#444444" height="2.4761904761904767" width="2.4761904761904767" x="20.0" y="52.00000000000001"><title>2018-01-24</title></rect><rect fill="#444444" height="2.4761904761904767" width="2.4761904761904767" x="20.0" y="55.33333333333334"><title>2018-01-25</title></rect><rect fill="#444444" height="2.4761904761904767" width="2.4761904761904767" x="20.0" y="58.66666666666668"><title>2018-01-26</title></rect><rect fill="#444444" height="2.4761904761904767" width="2.4761904761904767" x="20.0" y="62.000000000000014"><title>2018-01-27</title></rect><rect fill="#444444" height="2.4761904761904767" width="2.4761904761904767" x="20.0" y="65.33333333333334"><title>2018-01-28</title></rect><rect fill="#444444" height="2.4761904761904767" width="2.4761904761904767" x="23.333333333333332" y="45.333333333333336"><title>2018-01-29</title></rect><rect fill="#444444" height="2.4761904761904767" width="2.4761904761904767" x="23.333333333333332" y="48.66666666666667"><title>2018-01-30</title></rect><rect fill="#444444" height="2.4761904761904767" width="2.4761904761904767" x="23.333333333333332" y="52.00000000000001"><title>2018-01-31</title></rect><rect fill="#444444" height="2.4761904761904767" width="2.4761904761904767" x="23.333333333333332" y="55.33333333333334"><title>2018-02-01</title></rect><rect fill="#444444" height="2.4761904761904767" width="2.4761904761904767" x="23.333333333333332" y="58.66666666666668"><title>2018-02-02</title></rect><rect fill="#444444" height="2.4761904761904767" width="2.4761904761904767" x="23.333333333333332" y="62.000000000000014"><title>2018-02-03</title></rect><rect fill="#444444" height="2.4761904761904767" width="2.4761904761904767" x="23.333333333333332" y="65.33333333333334"><title>2018-02-04</title></rect><rect fill="#444444" height="2.4761904761904767" width="2.4761904761904767" x="26.666666666666664" y="45.333333333333336"><title>2018-02-05</title></rect><rect fill="#444444" height="2.4761904761904767" width="2.4761904761904767" x="26.666666666666664" y="48.66666666666667"><title>2018-02-06</title></rect><rect fill="#444444" height="2.4761904761904767" width="2.4761904761904767" x="26.666666666666664" y="52.00000000000001"><title>2018-02-07</title></rect><rect fill="#444444" height="2.4761904761904767" width="2.4761904761904767" x="26.666666666666664" y="55.33333333333334"><title>2018-02-08</title></rect><rect fill="#444444" height="2.4761904761904767" width="2.4761904761904767" x="26.666666666666664" y="58.66666666666668"><title>2018-02-09</title></rect><rect fill="#444444" height="2.4761904761904767" width="2.4761904761904767" x="26.666666666666664" y="62.000000000000014"><title>2018-02-10</title></rect><rect fill="#444444" height="2.4761904761904767" width="2.4761904761904767" x="26.666666666666664" y="65.33333333333334"><title>2018-02-11</title></rect><rect fill="#444444" height="2.4761904761904767" width="2.4761904761904767" x="29.999999999999996" y="45.333333333333336"><title>2018-02-12</title></rect><rect fill="#444444" height="2.4761904761904767" width="2.4761904761904767" x="29.999999999999996" y="48.66666666666667"><title>2018-02-13</title></rect><rect fill="#444444" height="2.4761904761904767" width="2.4761904761904767" x="29.999999999999996" y="52.00000000000001"><title>2018-02-14</title></rect><rect fill="#444444" height="2.4761904761904767" width="2.4761904761904767" x="29.999999999999996" y="55.33333333333334"><title>2018-02-15</title></rect><rect fill="#444444" height="2.4761904761904767" width="2.4761904761904767" x="29.999999999999996" y="58.66666666666668"><title>2018-02-16</title></rect><rect fill="#444444" height="2.4761904761904767" width="2.4761904761904767" x="29.999999999999996" y="62.000000000000014"><title>2018-02-17</title></rect><rect fill="#444444" height="2.4761904761904767" width="2.4761904761904767" x="29.999999999999996" y="65.33333333333334"><title>2018-02-18</title></rect><rect fill="#444444" height="2.4761904761904767" width="2.4761904761904767" x="33.33333333333333" y="45.333333333333336"><title>2018-02-19</title></rect><rect fill="#444444" height="2.4761904761904767" width="2.4761904761904767" x="33.33333333333333" y="48.66666666666667"><title>2018-02-20</title></rect><rect fill="#444444" height="2.4761904761904767" width="2.4761904761904767" x="33.33333333333333" y="52.00000000000001"><title>2018-02-21</title></rect><rect fill="#444444" height="2.4761904761904767" width="2.4761904761904767" x="33.33333333333333" y="55.33333333333334"><title>2018-02-22</title></rect><rect fill="#4dd2ff" height="2.4761904761904767" width="2.4761904761904767" x="33.33333333333333" y="58.66666666666668"><title>2018-02-23 2.4 km</title></rect><rect fill="#4dd2ff" height="2.4761904761904767" width="2.4761904761904767" x="33.33333333333333" y="62.000000000000014"><title>2018-02-24 3.0 km</title></rect><rect fill="#444444" height="2.4761904761904767" width="2.4761904761904767" x="33.33333333333333" y="65.33333333333334"><title>2018-02-25</title></rect><rect fill="#444444" height="2.4761904761904767" width="2.4761904761904767" x="36.666666666666664" y="45.333333333333336"><title>2018-02-26</title></rect><rect fill="#444444" height="2.4761904761904767" width="2.4761904761904767" x="36.666666666666664" y="48.66666666666667"><title>2018-02-27</title></rect><rect fill="#444444" height="2.4761904761904767" width="2.4761904761904767" x="36.666666666666664" y="52.00000000000001"><title>2018-02-28</title></rect><rect fill="#444444" height="2.4761904761904767" width="2.4761904761904767" x="36.666666666666664" y="55.33333333333334"><title>2018-03-01</title></rect><rect fill="#444444" height="2.4761904761904767" width="2.4761904761904767" x="36.666666666666664" y="58.66666666666668"><title>2018-03-02</title></rect><rect fill="#444444" height="2.4761904761904767" width="2.4761904761904767" x="36.666666666666664" y="62.000000000000014"><title>2018-03-03</title></rect><rect fill="#444444" height="2.4761904761904767" width="2.4761904761904767" x="36.666666666666664" y="65.33333333333334"><title>2018-03-04</title></rect><rect fill="#444444" height="2.4761904761904767" width="2.4761904761904767" x="40.0" y="45.333333333333336"><title>2018-03-05</title></rect><rect fill="#444444" height="2.4761904761904767" width="2.4761904761904767" x="40.0" y="48.66666666666667"><title>2018-03-06</title></rect><rect fill="#444444" height="2.4761904761904767" width="2.4761904761904767" x="40.0" y="52.00000000000001"><title>2018-03-07</title></rect><rect fill="#444444" height="2.4761904761904767" width="2.4761904761904767" x="40.0" y="55.33333333333334"><title>2018-03-08</title></rect><rect fill="#444444" height="2.4761904761904767" width="2.4761904761904767" x="40.0" y="58.66666666666668"><title>2018-03-09</title></rect><rect fill="#444444" height="2.4761904761904767" width="2.4761904761904767" x="40.0" y="62.000000000000014"><title>2018-03-10</title></rect><rect fill="#444444" height="2.4761904761904767" width="2.4761904761904767" x="40.0" y="65.33333333333334"><title>2018-03-11</title></rect><rect fill="#444444" height="2.4761904761904767" width="2.4761904761904767" x="43.333333333333336" y="45.333333333333336"><title>2018-03-12</title></rect><rect fill="#444444" height="2.4761904761904767" width="2.4761904761904767" x="43.333333333333336" y="48.66666666666667"><title>2018-03-13</title></rect><rect fill="#444444" height="2.4761904761904767" width="2.4761904761904767" x="43.333333333333336" y="52.00000000000001"><title>2018-03-14</title></rect><rect fill="#444444" height="2.4761904761904767" width="2.4761904761904767" x="43.333333333333336" y="55.33333333333334"><title>2018-03-15</title></rect><rect fill="#444444" height="2.4761904761904767" width="2.4761904761904767" x="43.333333333333336" y="58.66666666666668"><title>2018-03-16</title></rect><rect fill="#444444" height="2.4761904761904767" width="2.4761904761904767" x="43.333333333333336" y="62.000000000000014"><title>2018-03-17</title></rect><rect fill="#444444" height="2.4761904761904767" width="2.4761904761904767" x="43.333333333333336" y="65.33333333333334"><title>2018-03-18</title></rect><rect fill="#444444" height="2.4761904761904767" width="2.4761904761904767" x="46.66666666666667" y="45.333333333333336"><title>2018-03-19</title></rect><rect fill="#444444" height="2.4761904761904767" width="2.4761904761904767" x="46.66666666666667" y="48.66666666666667"><title>2018-03-20</title></rect><rect fill="#444444" height="2.4761904761904767" width="2.4761904761904767" x="46.66666666666667" y="52.00000000000001"><title>2018-03-21</title></rect><rect fill="#444444" height="2.4761904761904767" width="2.4761904761904767" x="46.66666666666667" y="55.33333333333334"><title>2018-03-22</title></rect><rect fill="#444444" height="2.4761904761904767" width="2.4761904761904767" x="46.66666666666667" y="58.66666666666668"><title>2018-03-23</title></rect><rect fill="#444444" height="2.4761904761904767" width="2.4761904761904767" x="46.66666666666667" y="62.000000000000014"><title>2018-03-24</title></rect><rect fill="#444444" height="2.4761904761904767" width="2.4761904761904767" x="46.66666666666667" y="65.33333333333334"><title>2018-03-25</title></rect><rect fill="#444444" height="2.4761904761904767" width="2.4761904761904767" x="50.00000000000001" y="45.333333333333336"><title>2018-03-26</title></rect><rect fill="#444444" height="2.4761904761904767" width="2.4761904761904767" x="50.00000000000001" y="48.66666666666667"><title>2018-03-27</title></rect><rect fill="#444444" height="2.4761904761904767" width="2.4761904761904767" x="50.00000000000001" y="52.00000000000001"><title>2018-03-28</title></rect><rect fill="#444444" height="2.4761904761904767" width="2.4761904761904767" x="50.00000000000001" y="55.33333333333334"><title>2018-03-29</title></rect><rect fill="#444444" height="2.4761904761904767" width="2.4761904761904767" x="50.00000000000001" y="58.66666666666668"><title>2018-03-30</title></rect><rect fill="#444444" height="2.4761904761904767" width="2.4761904761904767" x="50.00000000000001" y="62.000000000000014"><title>2018-03-31</title></rect><rect fill="#444444" height="2.4761904761904767" width="2.4761904761904767" x="50.00000000000001" y="65.33333333333334"><title>2018-04-01</title></rect><rect fill="#444444" height="2.4761904761904767" width="2.4761904761904767" x="53.33333333333334" y="45.333333333333336"><title>2018-04-02</title></rect><rect fill="#444444" height="2.4761904761904767" width="2.4761904761904767" x="53.33333333333334" y="48.66666666666667"><title>2018-04-03</title></rect><rect fill="#444444" height="2.4761904761904767" width="2.4761904761904767" x="53.33333333333334" y="52.00000000000001"><title>2018-04-04</title></rect><rect fill="#444444" height="2.4761904761904767" width="2.4761904761904767" x="53.33333333333334" y="55.33333333333334"><title>2018-04-05</title></rect><rect fill="#444444" height="2.4761904761904767" width="2.4761904761904767" x="53.33333333333334" y="58.66666666666668"><title>2018-04-06</title></rect><rect fill="#444444" height="2.4761904761904767" width="2.4761904761904767" x="53.33333333333334" y="62.000000000000014"><title>2018-04-07</title></rect><rect fill="#444444" height="2.4761904761904767" width="2.4761904761904767" x="53.33333333333334" y="65.33333333333334"><title>2018-04-08</title></rect><rect fill="#444444" height="2.4761904761904767" width="2.4761904761904767" x="56.66666666666668" y="45.333333333333336"><title>2018-04-09</title></rect><rect fill="#4dd2ff" height="2.4761904761904767" width="2.4761904761904767" x="56.66666666666668" y="48.66666666666667"><title>2018-04-10 3.4 km</title></rect><rect fill="#444444" height="2.4761904761904767" width="2.4761904761904767" x="56.66666666666668" y="52.00000000000001"><title>2018-04-11</title></rect><rect fill="#444444" height="2.4761904761904767" width="2.4761904761904767" x="56.66666666666668" y="55.33333333333334"><title>2018-04-12</title></rect><rect fill="#444444" height="2.4761904761904767" width="2.4761904761904767" x="56.66666666666668" y="58.66666666666668"><title>2018-04-13</title></rect><rect fill="#444444" height="2.4761904761904767" width="2.4761904761904767" x="56.66666666666668" y="62.000000000000014"><title>2018-04-14</title></rect><rect fill="#444444" height="2.4761904761904767" width="2.4761904761904767" x="56.66666666666668" y="65.33333333333334"><title>2018-04-15</title></rect><rect fill="#444444" height="2.4761904761904767" width="2.4761904761904767" x="60.000000000000014" y="45.333333333333336"><title>2018-04-16</title></rect><rect fill="#444444" height="2.4761904761904767" width="2.4761904761904767" x="60.000000000000014" y="48.66666666666667"><title>2018-04-17</title></rect><rect fill="#444444" height="2.4761904761904767" width="2.4761904761904767" x="60.000000000000014" y="52.00000000000001"><title>2018-04-18</title></rect><rect fill="#444444" height="2.4761904761904767" width="2.4761904761904767" x="60.000000000000014" y="55.33333333333334"><title>2018-04-19</title></rect><rect fill="#444444" height="2.4761904761904767" width="2.4761904761904767" x="60.000000000000014" y="58.66666666666668"><title>2018-04-20</title></rect><rect fill="#444444" height="2.4761904761904767" width="2.4761904761904767" x="60.000000000000014" y="62.000000000000014"><title>2018-04-21</title></rect><rect fill="#444444" height="2.4761904761904767" width="2.4761904761904767" x="60.000000000000014" y="65.33333333333334"><title>2018-04-22</title></rect><rect fill="#444444" height="2.4761904761904767" width="2.4761904761904767" x="63.33333333333335" y="45.333333333333336"><title>2018-04-23</title></rect><rect fill="#444444" height="2.4761904761904767" width="2.4761904761904767" x="63.33333333333335" y="48.66666666666667"><title>2018-04-24</title></rect><rect fill="#4dd2ff" height="2.4761904761904767" width="2.4761904761904767" x="63.33333333333335" y="52.00000000000001"><title>2018-04-25 4.2 km</title></rect><rect fill="#444444" height="2.4761904761904767" width="2.4761904761904767" x="63.33333333333335" y="55.33333333333334"><title>2018-04-26</title></rect><rect fill="#444444" height="2.4761904761904767" width="2.4761904761904767" x="63.33333333333335" y="58.66666666666668"><title>2018-04-27</title></rect><rect fill="#444444" height="2.4761904761904767" width="2.4761904761904767" x="63.33333333333335" y="62.000000000000014"><title>2018-04-28</title></rect><rect fill="#444444" height="2.4761904761904767" width="2.4761904761904767" x="63.33333333333335" y="65.33333333333334"><title>2018-04-29</title></rect><rect fill="#444444" height="2.4761904761904767" width="2.4761904761904767" x="66.66666666666669" y="45.333333333333336"><title>2018-04-30</title></rect><rect fill="#444444" height="2.4761904761904767" width="2.4761904761904767" x="66.66666666666669" y="48.66666666666667"><title>2018-05-01</title></rect><rect fill="#444444" height="2.4761904761904767" width="2.4761904761904767" x="66.66666666666669" y="52.00000000000001"><title>2018-05-02</title></rect><rect fill="#444444" height="2.4761904761904767" width="2.4761904761904767" x="66.66666666666669" y="55.33333333333334"><title>2018-05-03</title></rect><rect fill="#444444" height="2.4761904761904767" width="2.4761904761904767" x="66.66666666666669" y="58.66666666666668"><title>2018-05-04</title></rect><rect fill="#444444" height="2.4761904761904767" width="2.4761904761904767" x="66.66666666666669" y="62.000000000000014"><title>2018-05-05</title></rect><rect fill="#444444" height="2.4761904761904767" width="2.4761904761904767" x="66.66666666666669" y="65.33333333333334"><title>2018-05-06</title></rect><rect fill="#444444" height="2.4761904761904767" width="2.4761904761904767" x="70.00000000000001" y="45.333333333333336"><title>2018-05-07</title></rect><rect fill="#444444" height="2.4761904761904767" width="2.4761904761904767" x="70.00000000000001" y="48.66666666666667"><title>2018-05-08</title></rect><rect fill="#444444" height="2.4761904761904767" width="2.4761904761904767" x="70.00000000000001" y="52.00000000000001"><title>2018-05-09</title></rect><rect fill="#444444" height="2.4761904761904767" width="2.4761904761904767" x="70.00000000000001" y="55.33333333333334"><title>2018-05-10</title></rect><rect fill="#444444" height="2.4761904761904767" width="2.4761904761904767" x="70.00000000000001" y="58.66666666666668"><title>2018-05-11</title></rect><rect fill="#444444" height="2.4761904761904767" width="2.4761904761904767" x="70.00000000000001" y="62.000000000000014"><title>2018-05-12</title></rect><rect fill="#444444" height="2.4761904761904767" width="2.4761904761904767" x="70.00000000000001" y="65.33333333333334"><title>2018-05-13</title></rect><rect fill="#ffa200" height="2.4761904761904767" width="2.4761904761904767" x="73.33333333333334" y="45.333333333333336"><title>2018-05-14 5.6 km</title></rect><rect fill="#4dd2ff" height="2.4761904761904767" width="2.4761904761904767" x="73.33333333333334" y="48.66666666666667"><title>2018-05-15 4.5 km</title></rect><rect fill="#444444" height="2.4761904761904767" width="2.4761904761904767" x="73.33333333333334" y="52.00000000000001"><title>2018-05-16</title></rect><rect fill="#444444" height="2.4761904761904767" width="2.4761904761904767" x="73.33333333333334" y="55.33333333333334"><title>2018-05-17</title></rect><rect fill="#444444" height="2.4761904761904767" width="2.4761904761904767" x="73.33333333333334" y="58.66666666666668"><title>2018-05-18</title></rect><rect fill="#444444" height="2.4761904761904767" width="2.4761904761904767" x="73.33333333333334" y="62.000000000000014"><title>2018-05-19</title></rect><rect fill="#444444" height="2.4761904761904767" width="2.4761904761904767" x="73.33333333333334" y="65.33333333333334"><title>2018-05-20</title></rect><rect fill="#444444" height="2.4761904761904767" width="2.4761904761904767" x="76.66666666666667" y="45.333333333333336"><title>2018-05-21</title></rect><rect fill="#444444" height="2.4761904761904767" width="2.4761904761904767" x="76.66666666666667" y="48.66666666666667"><title>2018-05-22</title></rect><rect fill="#444444" height="2.4761904761904767" width="2.4761904761904767" x="76.66666666666667" y="52.00000000000001"><title>2018-05-23</title></rect><rect fill="#444444" height="2.4761904761904767" width="2.4761904761904767" x="76.66666666666667" y="55.33333333333334"><title>2018-05-24</title></rect><rect fill="#444444" height="2.4761904761904767" width="2.4761904761904767" x="76.66666666666667" y="58.66666666666668"><title>2018-05-25</title></rect><rect fill="#444444" height="2.4761904761904767" width="2.4761904761904767" x="76.66666666666667" y="62.000000000000014"><title>2018-05-26</title></rect><rect fill="#444444" height="2.4761904761904767" width="2.4761904761904767" x="76.66666666666667" y="65.33333333333334"><title>2018-05-27</title></rect><rect fill="#444444" height="2.4761904761904767" width="2.4761904761904767" x="80.0" y="45.333333333333336"><title>2018-05-28</title></rect><rect fill="#444444" height="2.4761904761904767" width="2.4761904761904767" x="80.0" y="48.66666666666667"><title>2018-05-29</title></rect><rect fill="#444444" height="2.4761904761904767" width="2.4761904761904767" x="80.0" y="52.00000000000001"><title>2018-05-30</title></rect><rect fill="#444444" height="2.4761904761904767" width="2.4761904761904767" x="80.0" y="55.33333333333334"><title>2018-05-31</title></rect><rect fill="#444444" height="2.4761904761904767" width="2.4761904761904767" x="80.0" y="58.66666666666668"><title>2018-06-01</title></rect><rect fill="#444444" height="2.4761904761904767" width="2.4761904761904767" x="80.0" y="62.000000000000014"><title>2018-06-02</title></rect><rect fill="#444444" height="2.4761904761904767" width="2.4761904761904767" x="80.0" y="65.33333333333334"><title>2018-06-03</title></rect><rect fill="#444444" height="2.4761904761904767" width="2.4761904761904767" x="83.33333333333333" y="45.333333333333336"><title>2018-06-04</title></rect><rect fill="#444444" height="2.4761904761904767" width="2.4761904761904767" x="83.33333333333333" y="48.66666666666667"><title>2018-06-05</title></rect><rect fill="#444444" height="2.4761904761904767" width="2.4761904761904767" x="83.33333333333333" y="52.00000000000001"><title>2018-06-06</title></rect><rect fill="#444444" height="2.4761904761904767" width="2.4761904761904767" x="83.33333333333333" y="55.33333333333334"><title>2018-06-07</title></rect><rect fill="#444444" height="2.4761904761904767" width="2.4761904761904767" x="83.33333333333333" y="58.66666666666668"><title>2018-06-08</title></rect><rect fill="#444444" height="2.4761904761904767" width="2.4761904761904767" x="83.33333333333333" y="62.000000000000014"><title>2018-06-09</title></rect><rect fill="#444444" height="2.4761904761904767" width="2.4761904761904767" x="83.33333333333333" y="65.33333333333334"><title>2018-06-10</title></rect><rect fill="#444444" height="2.4761904761904767" width="2.4761904761904767" x="86.66666666666666" y="45.333333333333336"><title>2018-06-11</title></rect><rect fill="#444444" height="2.4761904761904767" width="2.4761904761904767" x="86.66666666666666" y="48.66666666666667"><title>2018-06-12</title></rect><rect fill="#444444" height="2.4761904761904767" width="2.4761904761904767" x="86.66666666666666" y="52.00000000000001"><title>2018-06-13</title></rect><rect fill="#444444" height="2.4761904761904767" width="2.4761904761904767" x="86.66666666666666" y="55.33333333333334"><title>2018-06-14</title></rect><rect fill="#444444" height="2.4761904761904767" width="2.4761904761904767" x="86.66666666666666" y="58.66666666666668"><title>2018-06-15</title></rect><rect fill="#444444" height="2.4761904761904767" width="2.4761904761904767" x="86.66666666666666" y="62.000000000000014"><title>2018-06-16</title></rect><rect fill="#444444" height="2.4761904761904767" width="2.4761904761904767" x="86.66666666666666" y="65.33333333333334"><title>2018-06-17</title></rect><rect fill="#444444" height="2.4761904761904767" width="2.4761904761904767" x="89.99999999999999" y="45.333333333333336"><title>2018-06-18</title></rect><rect fill="#444444" height="2.4761904761904767" width="2.4761904761904767" x="89.99999999999999" y="48.66666666666667"><title>2018-06-19</title></rect><rect fill="#444444" height="2.4761904761904767" width="2.4761904761904767" x="89.99999999999999" y="52.00000000000001"><title>2018-06-20</title></rect><rect fill="red" height="2.4761904761904767" width="2.4761904761904767" x="89.99999999999999" y="55.33333333333334"><title>2018-06-21 10.9 km</title></rect><rect fill="#444444" height="2.4761904761904767" width="2.4761904761904767" x="89.99999999999999" y="58.66666666666668"><title>2018-06-22</title></rect><rect fill="#444444" height="2.4761904761904767" width="2.4761904761904767" x="89.99999999999999" y="62.000000000000014"><title>2018-06-23</title></rect><rect fill="#444444" height="2.4761904761904767" width="2.4761904761904767" x="89.99999999999999" y="65.33333333333334"><title>2018-06-24</title></rect><rect fill="#444444" height="2.4761904761904767" width="2.4761904761904767" x="93.33333333333331" y="45.333333333333336"><title>2018-06-25</title></rect><rect fill="#444444" height="2.4761904761904767" width="2.4761904761904767" x="93.33333333333331" y="48.66666666666667"><title>2018-06-26</title></rect><rect fill="#444444" height="2.4761904761904767" width="2.4761904761904767" x="93.33333333333331" y="52.00000000000001"><title>2018-06-27</title></rect><rect fill="#444444" height="2.4761904761904767" width="2.4761904761904767" x="93.33333333333331" y="55.33333333333334"><title>2018-06-28</title></rect><rect fill="#444444" height="2.4761904761904767" width="2.4761904761904767" x="93.33333333333331" y="58.66666666666668"><title>2018-06-29</title></rect><rect fill="#444444" height="2.4761904761904767" width="2.4761904761904767" x="93.33333333333331" y="62.000000000000014"><title>2018-06-30</title></rect><rect fill="#444444" height="2.4761904761904767" width="2.4761904761904767" x="93.33333333333331" y="65.33333333333334"><title>2018-07-01</title></rect><rect fill="#444444" height="2.4761904761904767" width="2.4761904761904767" x="96.66666666666664" y="45.333333333333336"><title>2018-07-02</title></rect><rect fill="#444444" height="2.4761904761904767" width="2.4761904761904767" x="96.66666666666664" y="48.66666666666667"><title>2018-07-03</title></rect><rect fill="#444444" height="2.4761904761904767" width="2.4761904761904767" x="96.66666666666664" y="52.00000000000001"><title>2018-07-04</title></rect><rect fill="#444444" height="2.4761904761904767" width="2.4761904761904767" x="96.66666666666664" y="55.33333333333334"><title>2018-07-05</title></rect><rect fill="#444444" height="2.4761904761904767" width="2.4761904761904767" x="96.66666666666664" y="58.66666666666668"><title>2018-07-06</title></rect><rect fill="#444444" height="2.4761904761904767" width="2.4761904761904767" x="96.66666666666664" y="62.000000000000014"><title>2018-07-07</title></rect><rect fill="#444444" height="2.4761904761904767" width="2.4761904761904767" x="96.66666666666664" y="65.33333333333334"><title>2018-07-08</title></rect><rect fill="#444444" height="2.4761904761904767" width="2.4761904761904767" x="99.99999999999997" y="45.333333333333336"><title>2018-07-09</title></rect><rect fill="#444444" height="2.4761904761904767" width="2.4761904761904767" x="99.99999999999997" y="48.66666666666667"><title>2018-07-10</title></rect><rect fill="#444444" height="2.4761904761904767" width="2.4761904761904767" x="99.99999999999997" y="52.00000000000001"><title>2018-07-11</title></rect><rect fill="#444444" height="2.4761904761904767" width="2.4761904761904767" x="99.99999999999997" y="55.33333333333334"><title>2018-07-12</title></rect><rect fill="#444444" height="2.4761904761904767" width="2.4761904761904767" x="99.99999999999997" y="58.66666666666668"><title>2018-07-13</title></rect><rect fill="red" height="2.4761904761904767" width="2.4761904761904767" x="99.99999999999997" y="62.000000000000014"><title>2018-07-14 11.2 km</title></rect><rect fill="#444444" height="2.4761904761904767" width="2.4761904761904767" x="99.99999999999997" y="65.33333333333334"><title>2018-07-15</title></rect><rect fill="#444444" height="2.4761904761904767" width="2.4761904761904767" x="103.3333333333333" y="45.333333333333336"><title>2018-07-16</title></rect><rect fill="#444444" height="2.4761904761904767" width="2.4761904761904767" x="103.3333333333333" y="48.66666666666667"><title>2018-07-17</title></rect><rect fill="#444444" height="2.4761904761904767" width="2.4761904761904767" x="103.3333333333333" y="52.00000000000001"><title>2018-07-18</title></rect><rect fill="#ff9400" height="2.4761904761904767" width="2.4761904761904767" x="103.3333333333333" y="55.33333333333334"><title>2018-07-19 6.1 km</title></rect><rect fill="#444444" height="2.4761904761904767" width="2.4761904761904767" x="103.3333333333333" y="58.66666666666668"><title>2018-07-20</title></rect><rect fill="#444444" height="2.4761904761904767" width="2.4761904761904767" x="103.3333333333333" y="62.000000000000014"><title>2018-07-21</title></rect><rect fill="#444444" height="2.4761904761904767" width="2.4761904761904767" x="103.3333333333333" y="65.33333333333334"><title>2018-07-22</title></rect><rect fill="#444444" height="2.4761904761904767" width="2.4761904761904767" x="106.66666666666663" y="45.333333333333336"><title>2018-07-23</title></rect><rect fill="#444444" height="2.4761904761904767" width="2.4761904761904767" x="106.66666666666663" y="48.66666666666667"><title>2018-07-24</title></rect><rect fill="#444444" height="2.4761904761904767" width="2.4761904761904767" x="106.66666666666663" y="52.00000000000001"><title>2018-07-25</title></rect><rect fill="#444444" height="2.4761904761904767" width="2.4761904761904767" x="106.66666666666663" y="55.33333333333334"><title>2018-07-26</title></rect><rect fill="#444444" height="2.4761904761904767" width="2.4761904761904767" x="106.66666666666663" y="58.66666666666668"><title>2018-07-27</title></rect><rect fill="#444444" height="2.4761904761904767" width="2.4761904761904767" x="106.66666666666663" y="62.000000000000014"><title>2018-07-28</title></rect><rect fill="#444444" height="2.4761904761904767" width="2.4761904761904767" x="106.66666666666663" y="65.33333333333334"><title>2018-07-29</title></rect><rect fill="#444444" height="2.4761904761904767" width="2.4761904761904767" x="109.99999999999996" y="45.333333333333336"><title>2018-07-30</title></rect><rect fill="#444444" height="2.4761904761904767" width="2.4761904761904767" x="109.99999999999996" y="48.66666666666667"><title>2018-07-31</title></rect><rect fill="#444444" height="2.4761904761904767" width="2.4761904761904767" x="109.99999999999996" y="52.00000000000001"><title>2018-08-01</title></rect><rect fill="#444444" height="2.4761904761904767" width="2.4761904761904767" x="109.99999999999996" y="55.33333333333334"><title>2018-08-02</title></rect><rect fill="#444444" height="2.4761904761904767" width="2.4761904761904767" x="109.99999999999996" y="58.66666666666668"><title>2018-08-03</title></rect><rect fill="#444444" height="2.4761904761904767" width="2.4761904761904767" x="109.99999999999996" y="62.000000000000014"><title>2018-08-04</title></rect><rect fill="#444444" height="2.4761904761904767" width="2.4761904761904767" x="109.99999999999996" y="65.33333333333334"><title>2018-08-05</title></rect><rect fill="#444444" height="2.4761904761904767" width="2.4761904761904767" x="113.33333333333329" y="45.333333333333336"><title>2018-08-06</title></rect><rect fill="#444444" height="2.4761904761904767" width="2.4761904761904767" x="113.33333333333329" y="48.66666666666667"><title>2018-08-07</title></rect><rect fill="#444444" height="2.4761904761904767" width="2.4761904761904767" x="113.33333333333329" y="52.00000000000001"><title>2018-08-08</title></rect><rect fill="#444444" height="2.4761904761904767" width="2.4761904761904767" x="113.33333333333329" y="55.33333333333334"><title>2018-08-09</title></rect><rect fill="#444444" height="2.4761904761904767" width="2.4761904761904767" x="113.33333333333329" y="58.66666666666668"><title>2018-08-10</title></rect><rect fill="#ff5c00" height="2.4761904761904767" width="2.4761904761904767" x="113.33333333333329" y="62.000000000000014"><title>2018-08-11 8.0 km</title></rect><rect fill="#444444" height="2.4761904761904767" width="2.4761904761904767" x="113.33333333333329" y="65.33333333333334"><title>2018-08-12</title></rect><rect fill="#444444" height="2.4761904761904767" width="2.4761904761904767" x="116.66666666666661" y="45.333333333333336"><title>2018-08-13</title></rect><rect fill="#444444" height="2.4761904761904767" width="2.4761904761904767" x="116.66666666666661" y="48.66666666666667"><title>2018-08-14</title></rect><rect fill="#444444" height="2.4761904761904767" width="2.4761904761904767" x="116.66666666666661" y="52.00000000000001"><title>2018-08-15</title></rect><rect fill="#444444" height="2.4761904761904767" width="2.4761904761904767" x="116.66666666666661" y="55.33333333333334"><title>2018-08-16</title></rect><rect fill="#444444" height="2.4761904761904767" width="2.4761904761904767" x="116.66666666666661" y="58.66666666666668"><title>2018-08-17</title></rect><rect fill="#444444" height="2.4761904761904767" width="2.4761904761904767" x="116.66666666666661" y="62.000000000000014"><title>2018-08-18</title></rect><rect fill="#444444" height="2.4761904761904767" width="2.4761904761904767" x="116.66666666666661" y="65.33333333333334"><title>2018-08-19</title></rect><rect fill="#444444" height="2.4761904761904767" width="2.4761904761904767" x="119.99999999999994" y="45.333333333333336"><title>2018-08-20</title></rect><rect fill="#444444" height="2.4761904761904767" width="2.4761904761904767" x="119.99999999999994" y="48.66666666666667"><title>2018-08-21</title></rect><rect fill="#444444" height="2.4761904761904767" width="2.4761904761904767" x="119.99999999999994" y="52.00000000000001"><title>2018-08-22</title></rect><rect fill="#444444" height="2.4761904761904767" width="2.4761904761904767" x="119.99999999999994" y="55.33333333333334"><title>2018-08-23</title></rect><rect fill="#444444" height="2.4761904761904767" width="2.4761904761904767" x="119.99999999999994" y="58.66666666666668"><title>2018-08-24</title></rect><rect fill="#444444" height="2.4761904761904767" width="2.4761904761904767" x="119.99999999999994" y="62.000000000000014"><title>2018-08-25</title></rect><rect fill="#444444" height="2.4761904761904767" width="2.4761904761904767" x="119.99999999999994" y="65.33333333333334"><title>2018-08-26</title></rect><rect fill="#444444" height="2.4761904761904767" width="2.4761904761904767" x="123.33333333333327" y="45.333333333333336"><title>2018-08-27</title></rect><rect fill="#444444" height="2.4761904761904767" width="2.4761904761904767" x="123.33333333333327" y="48.66666666666667"><title>2018-08-28</title></rect><rect fill="#444444" height="2.4761904761904767" width="2.4761904761904767" x="123.33333333333327" y="52.00000000000001"><title>2018-08-29</title></rect><rect fill="#444444" height="2.4761904761904767" width="2.4761904761904767" x="123.33333333333327" y="55.33333333333334"><title>2018-08-30</title></rect><rect fill="#444444" height="2.4761904761904767" width="2.4761904761904767" x="123.33333333333327" y="58.66666666666668"><title>2018-08-31</title></rect><rect fill="#444444" height="2.4761904761904767" width="2.4761904761904767" x="123.33333333333327" y="62.000000000000014"><title>2018-09-01</title></rect><rect fill="#444444" height="2.4761904761904767" width="2.4761904761904767" x="123.33333333333327" y="65.33333333333334"><title>2018-09-02</title></rect><rect fill="#444444" height="2.4761904761904767" width="2.4761904761904767" x="126.6666666666666" y="45.333333333333336"><title>2018-09-03</title></rect><rect fill="#ff2800" height="2.4761904761904767" width="2.4761904761904767" x="126.6666666666666" y="48.66666666666667"><title>2018-09-04 9.8 km</title></rect><rect fill="#444444" height="2.4761904761904767" width="2.4761904761904767" x="126.6666666666666" y="52.00000000000001"><title>2018-09-05</title></rect><rect fill="#444444" height="2.4761904761904767" width="2.4761904761904767" x="126.6666666666666" y="55.33333333333334"><title>2018-09-06</title></rect><rect fill="#444444" height="2.4761904761904767" width="2.4761904761904767" x="126.6666666666666" y="58.66666666666668"><title>2018-09-07</title></rect><rect fill="#444444" height="2.4761904761904767" width="2.4761904761904767" x="126.6666666666666" y="62.000000000000014"><title>2018-09-08</title></rect><rect fill="#444444" height="2.4761904761904767" width="2.4761904761904767" x="126.6666666666666" y="65.33333333333334"><title>2018-09-09</title></rect><rect fill="#444444" height="2.4761904761904767" width="2.4761904761904767" x="129.99999999999994" y="45.333333333333336"><title>2018-09-10</title></rect><rect fill="#444444" height="2.4761904761904767" width="2.4761904761904767" x="129.99999999999994" y="48.66666666666667"><title>2018-09-11</title></rect><rect fill="#444444" height="2.4761904761904767" width="2.4761904761904767" x="129.99999999999994" y="52.00000000000001"><title>2018-09-12</title></rect><rect fill="#444444" height="2.4761904761904767" width="2.4761904761904767" x="129.99999999999994" y="55.33333333333334"><title>2018-09-13</title></rect><rect fill="#444444" height="2.4761904761904767" width="2.4761904761904767" x="129.99999999999994" y="58.66666666666668"><title>2018-09-14</title></rect><rect fill="#ff2400" height="2.4761904761904767" width="2.4761904761904767" x="129.99999999999994" y="62.000000000000014"><title>2018-09-15 10.0 km</title></rect><rect fill="#444444" height="2.4761904761904767" width="2.4761904761904767" x="129.99999999999994" y="65.33333333333334"><title>2018-09-16</title></rect><rect fill="#444444" height="2.4761904761904767" width="2.4761904761904767" x="133.3333333333333" y="45.333333333333336"><title>2018-09-17</title></rect><rect fill="#444444" height="2.4761904761904767" width="2.4761904761904767" x="133.3333333333333" y="48.66666666666667"><title>2018-09-18</title></rect><rect fill="#444444" height="2.4761904761904767" width="2.4761904761904767" x="133.3333333333333" y="52.00000000000001"><title>2018-09-19</title></rect><rect fill="#444444" height="2.4761904761904767" width="2.4761904761904767" x="133.3333333333333" y="55.33333333333334"><title>2018-09-20</title></rect><rect fill="#444444" height="2.4761904761904767" width="2.4761904761904767" x="133.3333333333333" y="58.66666666666668"><title>2018-09-21</title></rect><rect fill="#444444" height="2.4761904761904767" width="2.4761904761904767" x="133.3333333333333" y="62.000000000000014"><title>2018-09-22</title></rect><rect fill="#444444" height="2.4761904761904767" width="2.4761904761904767" x="133.3333333333333" y="65.33333333333334"><title>2018-09-23</title></rect><rect fill="#444444" height="2.4761904761904767" width="2.4761904761904767" x="136.66666666666663" y="45.333333333333336"><title>2018-09-24</title></rect><rect fill="#444444" height="2.4761904761904767" width="2.4761904761904767" x="136.66666666666663" y="48.66666666666667"><title>2018-09-25</title></rect><rect fill="#444444" height="2.4761904761904767" width="2.4761904761904767" x="136.66666666666663" y="52.00000000000001"><title>2018-09-26</title></rect><rect fill="red" height="2.4761904761904767" width="2.4761904761904767" x="136.66666666666663" y="55.33333333333334"><title>2018-09-27 10.2 km</title></rect><rect fill="#444444" height="2.4761904761904767" width="2.4761904761904767" x="136.66666666666663" y="58.66666666666668"><title>2018-09-28</title></rect><rect fill="#444444" height="2.4761904761904767" width="2.4761904761904767" x="136.66666666666663" y="62.000000000000014"><title>2018-09-29</title></rect><rect fill="#444444" height="2.4761904761904767" width="2.4761904761904767" x="136.66666666666663" y="65.33333333333334"><title>2018-09-30</title></rect><rect fill="red" height="2.4761904761904767" width="2.4761904761904767" x="139.99999999999997" y="45.333333333333336"><title>2018-10-01 10.4 km</title></rect><rect fill="#444444" height="2.4761904761904767" width="2.4761904761904767" x="139.99999999999997" y="48.66666666666667"><title>2018-10-02</title></rect><rect fill="#444444" height="2.4761904761904767" width="2.4761904761904767" x="139.99999999999997" y="52.00000000000001"><title>2018-10-03</title></rect><rect fill="#444444" height="2.4761904761904767" width="2.4761904761904767" x="139.99999999999997" y="55.33333333333334"><title>2018-10-04</title></rect><rect fill="#444444" height="2.4761904761904767" width="2.4761904761904767" x="139.99999999999997" y="58.66666666666668"><title>2018-10-05</title></rect><rect fill="#444444" height="2.4761904761904767" width="2.4761904761904767" x="139.99999999999997" y="62.000000000000014"><title>2018-10-06</title></rect><rect fill="#444444" height="2.4761904761904767" width="2.4761904761904767" x="139.99999999999997" y="65.33333333333334"><title>2018-10-07</title></rect><rect fill="#444444" height="2.4761904761904767" width="2.4761904761904767" x="143.33333333333331" y="45.333333333333336"><title>2018-10-08</title></rect><rect fill="#ff2700" height="2.4761904761904767" width="2.4761904761904767" x="143.33333333333331" y="48.66666666666667"><title>2018-10-09 9.9 km</title></rect><rect fill="#444444" height="2.4761904761904767" width="2.4761904761904767" x="143.33333333333331" y="52.00000000000001"><title>2018-10-10</title></rect><rect fill="#444444" height="2.4761904761904767" width="2.4761904761904767" x="143.33333333333331" y="55.33333333333334"><title>2018-10-11</title></rect><rect fill="#444444" height="2.4761904761904767" width="2.4761904761904767" x="143.33333333333331" y="58.66666666666668"><title>2018-10-12</title></rect><rect fill="#444444" height="2.4761904761904767" width="2.4761904761904767" x="143.33333333333331" y="62.000000000000014"><title>2018-10-13</title></rect><rect fill="#444444" height="2.4761904761904767" width="2.4761904761904767" x="143.33333333333331" y="65.33333333333334"><title>2018-10-14</title></rect><rect fill="#444444" height="2.4761904761904767" width="2.4761904761904767" x="146.66666666666666" y="45.333333333333336"><title>2018-10-15</title></rect><rect fill="#444444" height="2.4761904761904767" width="2.4761904761904767" x="146.66666666666666" y="48.66666666666667"><title>2018-10-16</title></rect><rect fill="#444444" height="2.4761904761904767" width="2.4761904761904767" x="146.66666666666666" y="52.00000000000001"><title>2018-10-17</title></rect><rect fill="#444444" height="2.4761904761904767" width="2.4761904761904767" x="146.66666666666666" y="55.33333333333334"><title>2018-10-18</title></rect><rect fill="#444444" height="2.4761904761904767" width="2.4761904761904767" x="146.66666666666666" y="58.66666666666668"><title>2018-10-19</title></rect><rect fill="#444444" height="2.4761904761904767" width="2.4761904761904767" x="146.66666666666666" y="62.000000000000014"><title>2018-10-20</title></rect><rect fill="#ff2800" height="2.4761904761904767" width="2.4761904761904767" x="146.66666666666666" y="65.33333333333334"><title>2018-10-21 9.8 km</title></rect><rect fill="#444444" height="2.4761904761904767" width="2.4761904761904767" x="150.0" y="45.333333333333336"><title>2018-10-22</title></rect><rect fill="#444444" height="2.4761904761904767" width="2.4761904761904767" x="150.0" y="48.66666666666667"><title>2018-10-23</title></rect><rect fill="#444444" height="2.4761904761904767" width="2.4761904761904767" x="150.0" y="52.00000000000001"><title>2018-10-24</title></rect><rect fill="#444444" height="2.4761904761904767" width="2.4761904761904767" x="150.0" y="55.33333333333334"><title>2018-10-25</title></rect><rect fill="#444444" height="2.4761904761904767" width="2.4761904761904767" x="150.0" y="58.66666666666668"><title>2018-10-26</title></rect><rect fill="#444444" height="2.4761904761904767" width="2.4761904761904767" x="150.0" y="62.000000000000014"><title>2018-10-27</title></rect><rect fill="#444444" height="2.4761904761904767" width="2.4761904761904767" x="150.0" y="65.33333333333334"><title>2018-10-28</title></rect><rect fill="#444444" height="2.4761904761904767" width="2.4761904761904767" x="153.33333333333334" y="45.333333333333336"><title>2018-10-29</title></rect><rect fill="#444444" height="2.4761904761904767" width="2.4761904761904767" x="153.33333333333334" y="48.66666666666667"><title>2018-10-30</title></rect><rect fill="#444444" height="2.4761904761904767" width="2.4761904761904767" x="153.33333333333334" y="52.00000000000001"><title>2018-10-31</title></rect><rect fill="#444444" height="2.4761904761904767" width="2.4761904761904767" x="153.33333333333334" y="55.33333333333334"><title>2018-11-01</title></rect><rect fill="#444444" height="2.4761904761904767" width="2.4761904761904767" x="153.33333333333334" y="58.66666666666668"><title>2018-11-02</title></rect><rect fill="#ff2800" height="2.4761904761904767" width="2.4761904761904767" x="153.33333333333334" y="62.000000000000014"><title>2018-11-03 9.8 km</title></rect><rect fill="#444444" height="2.4761904761904767" width="2.4761904761904767" x="153.33333333333334" y="65.33333333333334"><title>2018-11-04</title></rect><rect fill="#444444" height="2.4761904761904767" width="2.4761904761904767" x="156.66666666666669" y="45.333333333333336"><title>2018-11-05</title></rect><rect fill="#444444" height="2.4761904761904767" width="2.4761904761904767" x="156.66666666666669" y="48.66666666666667"><title>2018-11-06</title></rect><rect fill="#444444" height="2.4761904761904767" width="2.4761904761904767" x="156.66666666666669" y="52.00000000000001"><title>2018-11-07</title></rect><rect fill="#444444" height="2.4761904761904767" width="2.4761904761904767" x="156.66666666666669" y="55.33333333333334"><title>2018-11-08</title></rect><rect fill="#444444" height="2.4761904761904767" width="2.4761904761904767" x="156.66666666666669" y="58.66666666666668"><title>2018-11-09</title></rect><rect fill="#444444" height="2.4761904761904767" width="2.4761904761904767" x="156.66666666666669" y="62.000000000000014"><title>2018-11-10</title></rect><rect fill="#444444" height="2.4761904761904767" width="2.4761904761904767" x="156.66666666666669" y="65.33333333333334"><title>2018-11-11</title></rect><rect fill="#444444" height="2.4761904761904767" width="2.4761904761904767" x="160.00000000000003" y="45.333333333333336"><title>2018-11-12</title></rect><rect fill="#444444" height="2.4761904761904767" width="2.4761904761904767" x="160.00000000000003" y="48.66666666666667"><title>2018-11-13</title></rect><rect fill="#444444" height="2.4761904761904767" width="2.4761904761904767" x="160.00000000000003" y="52.00000000000001"><title>2018-11-14</title></rect><rect fill="#444444" height="2.4761904761904767" width="2.4761904761904767" x="160.00000000000003" y="55.33333333333334"><title>2018-11-15</title></rect><rect fill="#444444" height="2.4761904761904767" width="2.4761904761904767" x="160.00000000000003" y="58.66666666666668"><title>2018-11-16</title></rect><rect fill="#444444" height="2.4761904761904767" width="2.4761904761904767" x="160.00000000000003" y="62.000000000000014"><title>2018-11-17</title></rect><rect fill="#4dd2ff" height="2.4761904761904767" width="2.4761904761904767" x="160.00000000000003" y="65.33333333333334"><title>2018-11-18 4.0 km</title></rect><rect fill="#444444" height="2.4761904761904767" width="2.4761904761904767" x="163.33333333333337" y="45.333333333333336"><title>2018-11-19</title></rect><rect fill="#444444" height="2.4761904761904767" width="2.4761904761904767" x="163.33333333333337" y="48.66666666666667"><title>2018-11-20</title></rect><rect fill="#444444" height="2.4761904761904767" width="2.4761904761904767" x="163.33333333333337" y="52.00000000000001"><title>2018-11-21</title></rect><rect fill="#444444" height="2.4761904761904767" width="2.4761904761904767" x="163.33333333333337" y="55.33333333333334"><title>2018-11-22</title></rect><rect fill="#444444" height="2.4761904761904767" width="2.4761904761904767" x="163.33333333333337" y="58.66666666666668"><title>2018-11-23</title></rect><rect fill="#444444" height="2.4761904761904767" width="2.4761904761904767" x="163.33333333333337" y="62.000000000000014"><title>2018-11-24</title></rect><rect fill="#444444" height="2.4761904761904767" width="2.4761904761904767" x="163.33333333333337" y="65.33333333333334"><title>2018-11-25</title></rect><rect fill="#444444" height="2.4761904761904767" width="2.4761904761904767" x="166.6666666666667" y="45.333333333333336"><title>2018-11-26</title></rect><rect fill="#444444" height="2.4761904761904767" width="2.4761904761904767" x="166.6666666666667" y="48.66666666666667"><title>2018-11-27</title></rect><rect fill="#444444" height="2.4761904761904767" width="2.4761904761904767" x="166.6666666666667" y="52.00000000000001"><title>2018-11-28</title></rect><rect fill="#ff2800" height="2.4761904761904767" width="2.4761904761904767" x="166.6666666666667" y="55.33333333333334"><title>2018-11-29 9.8 km</title></rect><rect fill="#444444" height="2.4761904761904767" width="2.4761904761904767" x="166.6666666666667" y="58.66666666666668"><title>2018-11-30</title></rect><rect fill="#444444" height="2.4761904761904767" width="2.4761904761904767" x="166.6666666666667" y="62.000000000000014"><title>2018-12-01</title></rect><rect fill="#444444" height="2.4761904761904767" width="2.4761904761904767" x="166.6666666666667" y="65.33333333333334"><title>2018-12-02</title></rect><rect fill="#444444" height="2.4761904761904767" width="2.4761904761904767" x="170.00000000000006" y="45.333333333333336"><title>2018-12-03</title></rect><rect fill="#444444" height="2.4761904761904767" width="2.4761904761904767" x="170.00000000000006" y="48.66666666666667"><title>2018-12-04</title></rect><rect fill="#444444" height="2.4761904761904767" width="2.4761904761904767" x="170.00000000000006" y="52.00000000000001"><title>2018-12-05</title></rect><rect fill="#444444" height="2.4761904761904767" width="2.4761904761904767" x="170.00000000000006" y="55.33333333333334"><title>2018-12-06</title></rect><rect fill="#444444" height="2.4761904761904767" width="2.4761904761904767" x="170.00000000000006" y="58.66666666666668"><title>2018-12-07</title></rect><rect fill="#444444" height="2.4761904761904767" width="2.4761904761904767" x="170.00000000000006" y="62.000000000000014"><title>2018-12-08</title></rect><rect fill="#444444" height="2.4761904761904767" width="2.4761904761904767" x="170.00000000000006" y="65.33333333333334"><title>2018-12-09</title></rect><rect fill="#444444" height="2.4761904761904767" width="2.4761904761904767" x="173.3333333333334" y="45.333333333333336"><title>2018-12-10</title></rect><rect fill="#444444" height="2.4761904761904767" width="2.4761904761904767" x="173.3333333333334" y="48.66666666666667"><title>2018-12-11</title></rect><rect fill="#444444" height="2.4761904761904767" width="2.4761904761904767" x="173.3333333333334" y="52.00000000000001"><title>2018-12-12</title></rect><rect fill="#444444" height="2.4761904761904767" width="2.4761904761904767" x="173.3333333333334" y="55.33333333333334"><title>2018-12-13</title></rect><rect fill="#444444" height="2.4761904761904767" width="2.4761904761904767" x="173.3333333333334" y="58.66666666666668"><title>2018-12-14</title></rect><rect fill="#444444" height="2.4761904761904767" width="2.4761904761904767" x="173.3333333333334" y="62.000000000000014"><title>2018-12-15</title></rect><rect fill="#444444" height="2.4761904761904767" width="2.4761904761904767" x="173.3333333333334" y="65.33333333333334"><title>2018-12-16</title></rect><rect fill="#444444" height="2.4761904761904767" width="2.4761904761904767" x="176.66666666666674" y="45.333333333333336"><title>2018-12-17</title></rect><rect fill="#444444" height="2.4761904761904767" width="2.4761904761904767" x="176.66666666666674" y="48.66666666666667"><title>2018-12-18</title></rect><rect fill="#444444" height="2.4761904761904767" width="2.4761904761904767" x="176.66666666666674" y="52.00000000000001"><title>2018-12-19</title></rect><rect fill="#444444" height="2.4761904761904767" width="2.4761904761904767" x="176.66666666666674" y="55.33333333333334"><title>2018-12-20</title></rect><rect fill="#444444" height="2.4761904761904767" width="2.4761904761904767" x="176.66666666666674" y="58.66666666666668"><title>2018-12-21</title></rect><rect fill="#444444" height="2.4761904761904767" width="2.4761904761904767" x="176.66666666666674" y="62.000000000000014"><title>2018-12-22</title></rect><rect fill="#444444" height="2.4761904761904767" width="2.4761904761904767" x="176.66666666666674" y="65.33333333333334"><title>2018-12-23</title></rect><rect fill="#444444" height="2.4761904761904767" width="2.4761904761904767" x="180.00000000000009" y="45.333333333333336"><title>2018-12-24</title></rect><rect fill="#444444" height="2.4761904761904767" width="2.4761904761904767" x="180.00000000000009" y="48.66666666666667"><title>2018-12-25</title></rect><rect fill="#444444" height="2.4761904761904767" width="2.4761904761904767" x="180.00000000000009" y="52.00000000000001"><title>2018-12-26</title></rect><rect fill="#444444" height="2.4761904761904767" width="2.4761904761904767" x="180.00000000000009" y="55.33333333333334"><title>2018-12-27</title></rect><rect fill="#444444" height="2.4761904761904767" width="2.4761904761904767" x="180.00000000000009" y="58.66666666666668"><title>2018-12-28</title></rect><rect fill="#444444" height="2.4761904761904767" width="2.4761904761904767" x="180.00000000000009" y="62.000000000000014"><title>2018-12-29</title></rect><rect fill="#444444" height="2.4761904761904767" width="2.4761904761904767" x="180.00000000000009" y="65.33333333333334"><title>2018-12-30</title></rect><rect fill="#444444" height="2.4761904761904767" width="2.4761904761904767" x="183.33333333333343" y="45.333333333333336"><title>2018-12-31</title></rect></svg>