<?xml version="1.0" encoding="utf-8" ?>
<svg baseProfile="full" height="200mm" version="1.1" viewBox="0,0,200,200" width="200mm" xmlns="http://www.w3.org/2000/svg" xmlns:ev="http://www.w3.org/2001/xml-events" xmlns:xlink="http://www.w3.org/1999/xlink"><defs /><rect fill="#1a1a1a" height="200" width="200" x="0" y="0" /><text alignment-baseline="middle" fill="#e1ed5e" style="dominant-baseline: central; font-size:9.0px; font-family:Arial;" text-anchor="middle" x="100.0" y="100.0">2024</text><line stroke="#e1ed5e" stroke-width="0.3" x1="100.0" x2="100.0" y1="15.0" y2="10.0" /><path d="M 100.0 14.0 a86.0,86.0 0 0,1 42.35913384403234,11.155469271406648" fill="none" id="id73" stroke="none" /><text fill="#e1ed5e" style="font-size:6.75px; font-family:Arial;" text-anchor="middle"><textPath startOffset="22.145653131862478" xlink:href="#id73">January</textPath></text><path d="M 104.64783097203109 79.52079915486377 l 9.247776804995386 -40.747410932143126 a62.78364361215939,62.78364361215939 0 0,0 1.0489886578362377,0.24755846700131875 l -9.945897616571509 40.582656321495584" fill="#7bff26" stroke="none" /><path d="M 109.3889696526874 81.21577127319529 l 18.893309579772005 -37.79927528588682 a63.25804490289818,63.25804490289818 0 0,0 0.9671636298067,0.4938406406929988 l -19.539400431292282 37.469376693520985" fill="#74ff27" stroke="none" /><line stroke="#e1ed5e" stroke-width="0.3" x1="143.13028292997686" x2="145.6673583964461" y1="26.7553504044142" y2="22.446841604673864" /><path d="M 143.63769802327073 25.89364864446614 a86.0,86.0 0 0,1 29.32050498858742,28.57503671076993" fill="none" id="id74" stroke="none" /><text fill="#e1ed5e" style="font-size:6.75px; font-family:Arial;" text-anchor="middle"><textPath startOffset="20.669276256404974" xlink:href="#id74">February</textPath></text><line stroke="#e1ed5e" stroke-width="0.3" x1="172.87174338648825" x2="177.1583165268699" y1="56.24261187166439" y2="53.66864786411523" /><path d="M 173.72905801456457 55.72781907015455 a86.0,86.0 0 0,1 12.242430191666344,42.057860355516425" fill="none" id="id75" stroke="none" /><text fill="#e1ed5e" style="font-size:6.75px; font-family:Arial;" text-anchor="middle"><textPath startOffset="22.145653131862474" xlink:href="#id75">March</textPath></text><path d="M 118.36410011445183 89.81374322990088 l 38.954555464189426 -21.60743525957115 a65.54591619788697,65.54591619788697 0 0,0 0.5373349660566367,0.9886358162456859 l -39.319735779861404 20.93554460985086" fill="#51ff2b" stroke="none" /><path d="M 119.4528033332814 92.08871423366111 l 40.81741731360141 -16.600088279273105 a65.06386827132121,65.06386827132121 0 0,0 0.41188937427709416,1.03823028923192 l -41.09636536284463 15.89695697282762" fill="#58ff2a" stroke="none" /><path d="M 120.26092885502905 94.47779374421319 l 39.928228943934144 -10.882616351616669 a62.384717049361285,62.384717049361285 0 0,0 0.2727415839119931,1.0356442186949526 l -40.10916000865086 10.195591628548918" fill="#82ff25" stroke="none" /><path d="M 120.99303781780057 99.45929381324524 l 23.23951385555998 -0.5985674406883337 a44.247221064544824,44.247221064544824 0 0,0 0.013039378767946714,0.7594784425006511 l -23.246364665926595 0.1995420822186162" fill="#ff2f04" stroke="none" /><line stroke="#e1ed5e" stroke-width="0.3" x1="184.99686870605535" x2="189.99668451229388" y1="99.2704041080226" y2="99.22748670261217" /><path d="M 185.99683186730306 99.26182062694052 a86.0,86.0 0 0,1 -10.086455211305974,41.156179273409016" fill="none" id="id76" stroke="none" /><text fill="#e1ed5e" style="font-size:6.75px; font-family:Arial;" text-anchor="middle"><textPath startOffset="21.40746469413373" xlink:href="#id76">April</textPath></text><path d="M 120.93736805541906 101.62068470465957 l 61.63792114754431 4.77116492227792 a82.8223045357132,82.8223045357132 0 0,0 -0.12189225681063647,1.4165727903367529 l -61.54693526803593 -5.82855875999033" fill="#4be2ff" stroke="none" /><path d="M 119.83427380445688 106.89939002012753 l 40.55053429427363 14.105580793075653 a63.933823974356706,63.933823974356706 0 0,0 -0.36947609552230454,1.0334903973423566 l -40.302418028707386 -14.799606146798931" fill="#69ff28" stroke="none" /><line stroke="#e1ed5e" stroke-width="0.3" x1="174.33088141563837" x2="178.70328620479359" y1="141.23008692659167" y2="143.65538615756765" /><path d="M 175.20536237346943 141.71514677278685 a86.0,86.0 0 0,1 -30.301960400862466,31.631185727798858" fill="none" id="id77" stroke="none" /><text fill="#e1ed5e" style="font-size:6.75px; font-family:Arial;" text-anchor="middle"><textPath startOffset="22.145653131862474" xlink:href="#id77">May</textPath></text><path d="M 116.1254893667686 113.45245675266167 l 35.434941986703706 29.56108889269205 a67.14643095758001,67.14643095758001 0 0,0 -0.7459822563570288,0.8787652222428766 l -34.922265166839566 -30.165020897384483" fill="#39ff2e" stroke="none" /><line stroke="#e1ed5e" stroke-width="0.3" x1="143.1302829299769" x2="145.66735839644613" y1="173.24464959558577" y2="177.55315839532614" /><path d="M 143.63769802327073 174.10635135553383 a86.0,86.0 0 0,1 -40.68552437913181,11.842963189579606" fill="none" id="id78" stroke="none" /><text fill="#e1ed5e" style="font-size:6.75px; font-family:Arial;" text-anchor="middle"><textPath startOffset="21.407464694133747" xlink:href="#id78">June</textPath></text><path d="M 110.34350942703117 118.27599006163325 l 21.652839527041333 38.25849270927096 a64.96086582369759,64.96086582369759 0 0,0 -0.9752043092063238,0.5409293913108919 l -20.992891029678916 -38.624555016014995" fill="#5aff2a" stroke="none" /><path d="M 108.07796709384702 119.3841803445677 l 16.202724926864487 38.88064142957394 a63.12164019872372,63.12164019872372 0 0,0 -1.0037709593669486,0.40822491069540745 l -15.532899506307098 -39.15305359684864" fill="#76ff27" stroke="none" /><path d="M 105.69591212413111 120.21278271476187 l 11.595058018530638 41.14677038304364 a63.74929336735297,63.74929336735297 0 0,0 -1.0558661862112306,0.2877810242802469 l -10.887010431384713 -41.33975190146803" fill="#6cff28" stroke="none" /><path d="M 100.72087961077811 120.9876233191556 l 1.4701671668903107 42.802312970925996 a63.827554064640466,63.827554064640466 0 0,0 -1.0953619371583905,0.02821263798491764 l -0.7351919156611763 -42.821243326260955" fill="#6bff28" stroke="none" /><line stroke="#e1ed5e" stroke-width="0.3" x1="101.45913802915013" x2="101.54496967792366" y1="184.9874750549273" y2="189.98673829345242" /><path d="M 101.47630435890484 185.9873277026323 a86.0,86.0 0 0,1 -42.54439059252881,-10.42667462771756" fill="none" id="id79" stroke="none" /><text fill="#e1ed5e" style="font-size:6.75px; font-family:Arial;" text-anchor="middle"><textPath startOffset="22.145653131862474" xlink:href="#id79">July</textPath></text><path d="M 98.91894614982273 120.97215588758144 l -2.14269130399357 41.56763887289217 a62.62282700023373,62.62282700023373 0 0,0 -1.073103713403183,-0.06455525464674058 l 2.8559393695291995 -41.52473164042073" fill="#7eff26" stroke="none" /><path d="M 98.19965949673042 120.92268563240118 l -3.555605652186226 41.32152732129116 a62.47422032682555,62.47422032682555 0 0,0 -1.067715473927545,-0.10111376548053186 l 4.264420689498786 -41.25440180030544" fill="#80ff25" stroke="none" /><path d="M 94.30408787586889 120.21278271476187 l -6.099724129488878 21.64576906427544 a43.488796162529745,43.488796162529745 0 0,0 -0.7168195888208034,-0.2086557352651152 l 6.470403730691289 -21.53786963470781" fill="#ff1f03" stroke="none" /><path d="M 93.27111125876986 119.89276391827306 l -13.336982154936404 39.42841791464492 a62.62301325292277,62.62301325292277 0 0,0 -1.0153702166556335,-0.35319846890257645 l 14.01185814363706 -39.19366101317375" fill="#7eff26" stroke="none" /><path d="M 91.59046798132341 119.24265499422711 l -16.72053411738235 38.25985424937185 a62.7539544037894,62.7539544037894 0 0,0 -0.983404062480747,-0.4398641287529424 l 17.37485158271873 -37.967186369709054" fill="#7cff26" stroke="none" /><line stroke="#e1ed5e" stroke-width="0.3" x1="58.13341422392154" x2="55.67067388415222" y1="173.97424548756322" y2="178.32567169271397" /><path d="M 57.64086615596768 174.84453072859336 a86.0,86.0 0 0,1 -31.369924170532247,-30.572349798747897" fill="none" id="id80" stroke="none" /><text fill="#e1ed5e" style="font-size:6.75px; font-family:Arial;" text-anchor="middle"><textPath startOffset="22.145653131862474" xlink:href="#id80">August</textPath></text><path d="M 89.34428304082925 118.09573695890944 l -21.15241337766184 35.921422274533995 a62.68660660121995,62.68660660121995 0 0,0 -0.9225893668099063,-0.5539884066237657 l 21.765935501029176 -35.55301986737431" fill="#7dff26" stroke="none" /><path d="M 85.08716467003676 114.78537596483092 l -29.531215331191774 29.27881329801591 a62.58535303538121,62.58535303538121 0 0,0 -0.7498714703970554,-0.7694341886983327 l 30.02947360273964 -28.767556417249835" fill="#7eff26" stroke="none" /><path d="M 83.64595745247003 113.17365903436017 l -32.41361669313876 26.11011516845711 a62.62187719504993,62.62187719504993 0 0,0 -0.6671721954654435,-0.8429502741745095 l 32.85705531924577 -25.54984495036792" fill="#7eff26" stroke="none" /><path d="M 81.99639281039703 110.81064883170644 l -38.717439646010554 23.248710065032213 a66.16129595605511,66.16129595605511 0 0,0 -0.5763162096308291,-0.9787109187110768 l 39.110829565771155 -22.580647978027578" fill="#48ff2c" stroke="none" /><line stroke="#e1ed5e" stroke-width="0.3" x1="26.387840678322732" x2="22.057713659400548" y1="142.50000000000003" y2="145.00000000000006" /><path d="M 25.521815274538298 143.00000000000003 a86.0,86.0 0 0,1 -11.493303480769221,-40.785679425670985" fill="none" id="id81" stroke="none" /><text fill="#e1ed5e" style="font-size:6.75px; font-family:Arial;" text-anchor="middle"><textPath startOffset="21.40746469413373" xlink:href="#id81">September</textPath></text><path d="M 80.68587082218212 108.24405325689762 l -38.48573835075102 16.427273198473287 a62.845039863044065,62.845039863044065 0 0,0 -0.41499918228945415,-0.9958469623470388 l 38.762063377576965 -15.764193726684965" fill="#7aff26" stroke="none" /><path d="M 79.2786578344484 103.40968896794605 l -41.27079585517395 6.79109375258917 a62.825799990865676,62.825799990865676 0 0,0 -0.16597531612918445,-1.065680592207493 l 41.38129266344141 -6.081624978450226" fill="#7bff26" stroke="none" /><path d="M 79.03789590574601 101.26102812881392 l -41.8904670566895 2.5200264749242582 a62.96619786997516,62.96619786997516 0 0,0 -0.0556453595442704,-1.0795051093815748 l 41.92755400569035 -1.8005495721659526" fill="#78ff26" stroke="none" /><line stroke="#e1ed5e" stroke-width="0.3" x1="15.003131293944662" x2="10.003315487706104" y1="100.72959589197737" y2="100.7725132973878" /><path d="M 14.003168132696942 100.73817937305945 a86.0,86.0 0 0,1 10.791469493833604,-42.45332614584628" fill="none" id="id82" stroke="none" /><text fill="#e1ed5e" style="font-size:6.75px; font-family:Arial;" text-anchor="middle"><textPath startOffset="22.145653131862435" xlink:href="#id82">October</textPath></text><path d="M 79.01933749520258 99.09900007780938 l -21.038671500468837 -0.9034910780620996 a42.05806246150812,42.05806246150812 0 0,0 0.03716813284866074,-0.7210518477174761 l 21.02006177816361 1.2645147191562878" fill="#ff0000" stroke="none" /><path d="M 79.0935383218832 98.0201363427161 l -41.56129040256444 -3.935897412233545 a62.74724120664648,62.74724120664648 0 0,0 0.11075667190030229,-1.0714703302822237 l 41.48760133818247 4.648772264798682" fill="#7cff26" stroke="none" /><path d="M 79.407916724674 95.88100663000787 l -38.87809311572734 -7.776707467646079 a60.64824464402564,60.64824464402564 0 0,0 0.21296859021591835,-1.0191317996806881 l 38.73886681468705 8.442955718612176" fill="#9dff22" stroke="none" /><path d="M 79.83685265289637 94.1308016681162 l -39.969140132600586 -11.634434176110243 a62.62802207092843,62.62802207092843 0 0,0 0.3093337580995523,-1.0296714753610385 l 39.7635300544974 12.318843255062006" fill="#7eff26" stroke="none" /><line stroke="#e1ed5e" stroke-width="0.3" x1="26.387840678322718" x2="22.05771365940052" y1="57.49999999999999" y2="54.99999999999999" /><path d="M 25.521815274538284 56.99999999999999 a86.0,86.0 0 0,1 29.574782752854787,-30.34633250058573" fill="none" id="id83" stroke="none" /><text fill="#e1ed5e" style="font-size:6.75px; font-family:Arial;" text-anchor="middle"><textPath startOffset="21.40746469413373" xlink:href="#id83">November</textPath></text><path d="M 82.18462484594161 88.88188828441811 l -35.6167789045973 -22.22750424204709 a62.98353110886683,62.98353110886683 0 0,0 0.5802951899283869,-0.9123204230365596 l 35.22996602304302 22.83563833976232" fill="#78ff26" stroke="none" /><path d="M 83.64595745247003 86.82634096563983 l -27.061711424632563 -21.79899912564448 a55.74956961042737,55.74956961042737 0 0,0 0.6067495933590759,-0.7401358477941996 l 26.68351501203486 22.260337255137173" fill="#f1ff19" stroke="none" /><path d="M 87.25179093698888 83.31218511350988 l -25.51639178426408 -33.40177593278184 a63.0329024117039,63.0329024117039 0 0,0 0.8654928100330976,-0.649481939915133 l 24.93924598532023 33.834876899960975" fill="#77ff27" stroke="none" /><line stroke="#e1ed5e" stroke-width="0.3" x1="56.869717070023135" x2="54.33264160355391" y1="26.7553504044142" y2="22.446841604673864" /><path d="M 56.362301976729285 25.89364864446614 a86.0,86.0 0 0,1 42.16139366436587,-11.88097634709845" fill="none" id="id84" stroke="none" /><text fill="#e1ed5e" style="font-size:6.75px; font-family:Arial;" text-anchor="middle"><textPath startOffset="22.145653131862474" xlink:href="#id84">December</textPath></text><path d="M 89.34428304082924 81.90426304109057 l -12.219377915330211 -20.75117511140521 a45.081620899388454,45.081620899388454 0 0,0 0.6702296002786237,-0.38695724013971655 l 11.861355847191188 20.9578792488211" fill="#ff4006" stroke="none" /><path d="M 91.26138138417902 80.90454125486306 l -26.215855847462933 -57.286376235410835 a84.0,84.0 0 0,0 1.3163463885775248,-0.5887849963606175 l 25.22859605602979 57.7279649826813" fill="#4dd2ff" stroke="none" /><path d="M 98.9189461498227 79.02784411241856 l -2.200250331769365 -42.684268634723665 a63.740939278444806,63.740939278444806 0 0,0 1.0932306820572937,-0.046948029369655225 l 1.467193889111251 42.71574923251915" fill="#6cff28" stroke="none" /></svg>