<?xml version="1.0" encoding="utf-8" ?>
<svg baseProfile="full" height="200mm" version="1.1" viewBox="0,0,200,200" width="200mm" xmlns="http://www.w3.org/2000/svg" xmlns:ev="http://www.w3.org/2001/xml-events" xmlns:xlink="http://www.w3.org/1999/xlink"><defs /><rect fill="#1a1a1a" height="200" width="200" x="0" y="0" /><rect fill="#1a1a1a" height="200" width="180" x="10" y="0" /><text alignment-baseline="middle" fill="#e1ed5e" style="dominant-baseline: central; font-size:9.0px; font-family:Arial;" text-anchor="middle" x="100.0" y="100.0">2024</text><line stroke="#e1ed5e" stroke-width="0.3" x1="100.0" x2="100.0" y1="15.0" y2="10.0" /><path d="M 100.0 14.0 a86.0,86.0 0 0,1 42.35913384403234,11.155469271406648" fill="none" id="id73" stroke="none" /><text fill="#e1ed5e" style="font-size:6.75px; font-family:Arial;" text-anchor="middle"><textPath startOffset="22.145653131862478" xlink:href="#id73">January</textPath></text><path d="M 104.64783097203109 79.52079915486377 l 8.521723643793718 -37.54828673808981 a59.503163646991446,59.503163646991446 0 0,0 0.9941784225944315,0.23462340072478566 l -9.165034220128035 37.39646719371879" fill="red" stroke="none" /><path d="M 109.3889696526874 81.21577127319529 l 17.398239450679164 -34.808133519925846 a59.9140706573362,59.9140706573362 0 0,0 0.9160370059238037,0.467735022246774 l -17.993203678316547 34.50434054600623" fill="red" stroke="none" /><line stroke="#e1ed5e" stroke-width="0.3" x1="143.13028292997686" x2="145.6673583964461" y1="26.7553504044142" y2="22.446841604673864" /><path d="M 143.63769802327073 25.89364864446614 a86.0,86.0 0 0,1 29.32050498858742,28.57503671076993" fill="none" id="id74" stroke="none" /><text fill="#e1ed5e" style="font-size:6.75px; font-family:Arial;" text-anchor="middle"><textPath startOffset="20.669276256404974" xlink:href="#id74">February</textPath></text><path d="M 116.57777611688842 87.10902102172516 l 31.50290495563301 -24.496849437117373 a60.90649888161632,60.90649888161632 0 0,0 0.6347269926911362,0.83087800844289 l -31.918783925678454 23.9524505154336" fill="red" stroke="none" /><path d="M 117.21940702142032 87.97951657250589 l 33.13368012837678 -23.12988202088461 a61.408318464762075,61.408318464762075 0 0,0 0.5959831213348331,0.869557185198895 l -33.52585298652694 22.557690100615666" fill="red" stroke="none" /><path d="M 117.42321728460499 88.27688183743584 l 35.462158427095666 -23.860522815596504 a63.74212476400809,63.74212476400809 0 0,0 0.6030477334225951,0.9130911298302767 l -35.86653059943898 23.24825180742717" fill="red" stroke="none" /><path d="M 117.62189284568427 88.57770195909679 l 44.642473969539836 -28.936712271986767 a74.20041164533214,74.20041164533214 0 0,0 0.6836412822594314,1.074797645510641 l -45.13263294342516 28.166100951797453" fill="red" stroke="none" /><path d="M 117.81537515405839 88.88188828441811 l 38.356837831734794 -23.937503666462945 a66.21339503102956,66.21339503102956 0 0,0 0.5934991489052021,0.9694362565440204 l -38.7621049450954 23.27553029379437" fill="red" stroke="none" /><line stroke="#e1ed5e" stroke-width="0.3" x1="172.87174338648825" x2="177.1583165268699" y1="56.24261187166439" y2="53.66864786411523" /><path d="M 173.72905801456457 55.72781907015455 a86.0,86.0 0 0,1 12.242430191666344,42.057860355516425" fill="none" id="id75" stroke="none" /><text fill="#e1ed5e" style="font-size:6.75px; font-family:Arial;" text-anchor="middle"><textPath startOffset="22.145653131862474" xlink:href="#id75">March</textPath></text><path d="M 118.00360718960297 89.18935116829356 l 18.376241499435327 -11.034405028107422 a42.43465292394284,42.43465292394284 0 0,0 0.3696387438718033,0.627727397842441 l -18.562953953436896 10.717326461971423" fill="red" stroke="none" /><path d="M 118.36410011445183 89.81374322990088 l 36.09096695478538 -20.01905098487751 a62.271301143367594,62.271301143367594 0 0,0 0.5104901941587736,0.9392444595432902 l -36.429302498559494 19.396551691859617" fill="red" stroke="none" /><path d="M 119.4528033332814 92.08871423366111 l 37.82441267448 -15.3828593485947 a61.83281224588885,61.83281224588885 0 0,0 0.39143504716853866,0.9866720231629503 l -38.08290639661467 14.731286308218184" fill="red" stroke="none" /><path d="M 119.83427380445688 93.10060997987247 l 16.969901790659687 -5.9030127450752765 a38.967279322511686,38.967279322511686 0 0,0 0.214347087781516,0.6336790780445413 l -17.068734300013567 5.610831992556574" fill="red" stroke="none" /><path d="M 120.26092885502905 94.47779374421319 l 37.04544032418582 -10.096899494112686 a59.39677106485682,59.39677106485682 0 0,0 0.25967849476128946,0.9860415414530828 l -37.213308299751844 9.459477448286805" fill="red" stroke="none" /><path d="M 120.99303781780057 99.45929381324524 l 21.546966675800675 -0.554973429215912 a42.5541125643159,42.5541125643159 0 0,0 0.012540430302968301,0.7304171958098652 l -21.55331853770231 0.18500931743698043" fill="red" stroke="none" /><line stroke="#e1ed5e" stroke-width="0.3" x1="184.99686870605535" x2="189.99668451229388" y1="99.2704041080226" y2="99.22748670261217" /><path d="M 185.99683186730306 99.26182062694052 a86.0,86.0 0 0,1 -10.086455211305974,41.156179273409016" fill="none" id="id76" stroke="none" /><text fill="#e1ed5e" style="font-size:6.75px; font-family:Arial;" text-anchor="middle"><textPath startOffset="21.40746469413373" xlink:href="#id76">April</textPath></text><path d="M 120.93736805541906 101.62068470465957 l 57.22212994650817 4.429354755902339 a78.39330395759336,78.39330395759336 0 0,0 -0.11537395381352714,1.3408202289642914 l -57.1376623699969 -5.410996032242288" fill="red" stroke="none" /><path d="M 120.43855184770803 104.8234425847677 l 30.440000990651235 7.183757349968185 a52.27618950534208,52.27618950534208 0 0,0 -0.21361662503601236,0.8716287269989867 l -30.312196839098927 -7.705241901575271" fill="red" stroke="none" /><path d="M 120.35273937422433 105.17358676015961 l 25.128214194291466 6.387493785071657 a46.92734512919748,46.92734512919748 0 0,0 -0.20516304384605868,0.7790374947649625 l -25.014861669640677 -6.817911784209422" fill="red" stroke="none" /><path d="M 120.26092885502905 105.52220625578681 l 13.881828128336931 3.7835539861259484 a35.38820464653655,35.38820464653655 0 0,0 -0.16477676252912898,0.5847345999831867 l -13.814832873733222 -4.021296510012144" fill="red" stroke="none" /><path d="M 120.16314734710363 105.8691983318838 l 25.67061980127344 7.472343296529044 a47.736054969324,47.736054969324 0 0,0 -0.23577901380606223,0.7848316539920838 l -25.53856446746375 -7.911912554111852" fill="red" stroke="none" /><path d="M 120.05942366710727 106.21446072829308 l 13.603771666602697 4.214483236494693 a35.24164570924853,35.24164570924853 0 0,0 -0.18398704018146428,0.5763367828682443 l -13.529419910643977 -4.44738905305432" fill="red" stroke="none" /><path d="M 119.83427380445688 106.89939002012753 l 36.99563550033363 12.869002458860978 a60.16999196272212,60.16999196272212 0 0,0 -0.3477247615739647,0.9726480450564319 l -36.76927056871572 -13.502185460298332" fill="red" stroke="none" /><path d="M 119.31412917781788 108.2440532568976 l 14.687957468947916 6.269415643555006 a36.970024017554735,36.970024017554735 0 0,0 -0.25415327853113906,0.5815524387760163 l -14.57817030839981 -6.520630152106866" fill="red" stroke="none" /><line stroke="#e1ed5e" stroke-width="0.3" x1="174.33088141563837" x2="178.70328620479359" y1="141.23008692659167" y2="143.65538615756765" /><path d="M 175.20536237346943 141.71514677278685 a86.0,86.0 0 0,1 -30.301960400862466,31.631185727798858" fill="none" id="id77" stroke="none" /><text fill="#e1ed5e" style="font-size:6.75px; font-family:Arial;" text-anchor="middle"><textPath startOffset="22.145653131862474" xlink:href="#id77">May</textPath></text><path d="M 117.423217284605 111.72311816256416 l 25.435861180641254 17.114382568752784 a51.657545966865676,51.657545966865676 0 0,0 -0.5013494304276943,0.7314838020032567 l -25.13832201339824 -17.548501105826087" fill="red" stroke="none" /><path d="M 116.79662413953412 112.60449989151573 l 20.089385683901785 15.075449540920742 a46.116779172843906,46.116779172843906 0 0,0 -0.48059837775071834,0.6291187038908786 l -19.827635328796763 -15.418089158052497" fill="red" stroke="none" /><path d="M 116.57777611688842 112.89097897827486 l 19.375341528717463 15.066382763436243 a45.54383321587751,45.54383321587751 0 0,0 -0.4852230651263657,0.6130634918002182 l -19.113852032949538 -15.396766199151145" fill="red" stroke="none" /><path d="M 116.1254893667686 113.45245675266167 l 32.850630083285715 27.40516398862286 a63.78091759315346,63.78091759315346 0 0,0 -0.7085921342374966,0.8347197524021925 l -32.3753433855411 -27.96505052347461" fill="red" stroke="none" /><path d="M 114.13192950727249 115.5334660781643 l 13.161742284091426 14.467060368102125 a40.55830503001606,40.55830503001606 0 0,0 -0.5190207149681249,0.4641115237650462 l -12.911456542299923 -14.690867421750559" fill="red" stroke="none" /><path d="M 113.86319453409587 115.77377054828091 l 12.942432608225216 14.726112498575548 a40.605227648235925,40.605227648235925 0 0,0 -0.5275209205399717,0.45566000704346044 l -12.687732207922389 -14.946116638083726" fill="red" stroke="none" /><path d="M 113.59037401385872 116.0094264158162 l 13.041751468165597 15.363150436481458 a41.15226222267267,41.15226222267267 0 0,0 -0.5424763043112216,0.45255302689476534 l -12.77610082969248 -15.584765647288092" fill="red" stroke="none" /><line stroke="#e1ed5e" stroke-width="0.3" x1="143.1302829299769" x2="145.66735839644613" y1="173.24464959558577" y2="177.55315839532614" /><path d="M 143.63769802327073 174.10635135553383 a86.0,86.0 0 0,1 -40.68552437913181,11.842963189579606" fill="none" id="id78" stroke="none" /><text fill="#e1ed5e" style="font-size:6.75px; font-family:Arial;" text-anchor="middle"><textPath startOffset="21.407464694133747" xlink:href="#id78">June</textPath></text><path d="M 110.34350942703117 118.27599006163325 l 19.844638402720364 35.06357458108115 a61.289749760178005,61.289749760178005 0 0,0 -0.9200928484930825,0.5103599930664051 l -19.239801366071188 -35.399067489580695" fill="red" stroke="none" /><path d="M 108.07796709384702 119.3841803445677 l 15.0003858052616 35.99546523391552 a59.99596250527373,59.99596250527373 0 0,0 -0.9540659059629402,0.3880102981908191 l -14.380265438108218 -36.24766278868563" fill="red" stroke="none" /><path d="M 105.69591212413111 120.21278271476187 l 10.753201786284148 38.159319606305715 a60.64549181776829,60.64549181776829 0 0,0 -1.0044585716039323,0.2737696503195195 l -10.09656181374552 -38.33828975076938" fill="red" stroke="none" /><path d="M 100.72087961077811 120.9876233191556 l 1.3618877968759804 39.64987725611463 a60.67325931652498,60.67325931652498 0 0,0 -1.0412302309337524,0.026818397250952104 l -0.6810442518714841 -39.66741337071562" fill="red" stroke="none" /><line stroke="#e1ed5e" stroke-width="0.3" x1="101.45913802915013" x2="101.54496967792366" y1="184.9874750549273" y2="189.98673829345242" /><path d="M 101.47630435890484 185.9873277026323 a86.0,86.0 0 0,1 -42.54439059252881,-10.42667462771756" fill="none" id="id79" stroke="none" /><text fill="#e1ed5e" style="font-size:6.75px; font-family:Arial;" text-anchor="middle"><textPath startOffset="22.145653131862474" xlink:href="#id79">July</textPath></text><path d="M 98.91894614982273 120.97215588758144 l -1.9877572449820977 38.56195951903618 a59.61315709460654,59.61315709460654 0 0,0 -1.0215300603671376,-0.061452711748770344 l 2.649431657481682 -38.522154829462714" fill="red" stroke="none" /><path d="M 98.19965949673042 120.92268563240118 l -3.2988873097842784 38.33807104488543 a59.47973946020605,59.47973946020605 0 0,0 -1.016538307714928,-0.0962672346314979 l 3.9565251808842214 -38.27579205474875" fill="red" stroke="none" /><path d="M 94.30408787586889 120.21278271476187 l -5.557683824880198 19.722259245140037 a41.49037235459245,41.49037235459245 0 0,0 -0.6838798558619598,-0.19906745906960754 l 5.895423693123765 -19.623948091767915" fill="red" stroke="none" /><path d="M 93.27111125876986 119.89276391827306 l -12.3198361871545 36.42140659589189 a59.44863095224066,59.44863095224066 0 0,0 -0.9639007475744573,-0.335294715792133 l 12.94324270677398 -36.20455344753117" fill="red" stroke="none" /><path d="M 91.59046798132341 119.24265499422711 l -15.515771207444036 35.50312094075281 a59.7454610592708,59.7454610592708 0 0,0 -0.9362585940388852,-0.418776560385047 l 16.122943204338558 -35.23154062945791" fill="red" stroke="none" /><line stroke="#e1ed5e" stroke-width="0.3" x1="58.13341422392154" x2="55.67067388415222" y1="173.97424548756322" y2="178.32567169271397" /><path d="M 57.64086615596768 174.84453072859336 a86.0,86.0 0 0,1 -31.369924170532247,-30.572349798747897" fill="none" id="id80" stroke="none" /><text fill="#e1ed5e" style="font-size:6.75px; font-family:Arial;" text-anchor="middle"><textPath startOffset="22.145653131862474" xlink:href="#id80">August</textPath></text><path d="M 89.34428304082925 118.09573695890944 l -19.53019224148243 33.16653613388613 a59.48957687620942,59.48957687620942 0 0,0 -0.875537120890241,-0.5257348848698392 l 20.096662118930094 -32.82638724848037" fill="red" stroke="none" /><path d="M 85.08716467003676 114.78537596483092 l -27.324413207474073 27.09087261757429 a59.477771977005375,59.477771977005375 0 0,0 -0.7126377365503365,-0.7312290976586772 l 27.78543774517522 -26.617820827847876" fill="red" stroke="none" /><path d="M 83.64595745247003 113.17365903436017 l -30.04061264009626 24.198591079469203 a59.574735488706565,59.574735488706565 0 0,0 -0.6347080102130072,-0.8019328366293162 l 30.45158708095083 -23.67933829892521" fill="red" stroke="none" /><path d="M 81.99639281039703 110.81064883170644 l -35.41504768858244 21.265718580024462 a62.30927728137308,62.30927728137308 0 0,0 -0.5427621389322375,-0.921728771044345 l 35.77488353764445 -20.654638640686557" fill="red" stroke="none" /><line stroke="#e1ed5e" stroke-width="0.3" x1="26.387840678322732" x2="22.057713659400548" y1="142.50000000000003" y2="145.00000000000006" /><path d="M 25.521815274538298 143.00000000000003 a86.0,86.0 0 0,1 -11.493303480769221,-40.785679425670985" fill="none" id="id81" stroke="none" /><text fill="#e1ed5e" style="font-size:6.75px; font-family:Arial;" text-anchor="middle"><textPath startOffset="21.40746469413373" xlink:href="#id81">September</textPath></text><path d="M 80.68587082218212 108.24405325689762 l -35.60125992408385 15.196060879818644 a59.70878420262426,59.70878420262426 0 0,0 -0.3942888201453406,-0.946149632543778 l 35.85687458876568 -14.582678737833584" fill="red" stroke="none" /><path d="M 79.2786578344484 103.40968896794605 l -38.25118455190158 6.294217861732564 a59.765581359172046,59.765581359172046 0 0,0 -0.1578907273950399,-1.0137717330416436 l 38.35359677143489 -5.63665794675947" fill="red" stroke="none" /><path d="M 79.03789590574601 101.26102812881392 l -38.8505546275187 2.337152891953824 a59.920789798078125,59.920789798078125 0 0,0 -0.05295402938853075,-1.0272940233548549 l 38.8849502463638 -1.6698870752222381" fill="red" stroke="none" /><line stroke="#e1ed5e" stroke-width="0.3" x1="15.003131293944662" x2="10.003315487706104" y1="100.72959589197737" y2="100.7725132973878" /><path d="M 14.003168132696942 100.73817937305945 a86.0,86.0 0 0,1 10.791469493833604,-42.45332614584628" fill="none" id="id82" stroke="none" /><text fill="#e1ed5e" style="font-size:6.75px; font-family:Arial;" text-anchor="middle"><textPath startOffset="22.145653131862435" xlink:href="#id82">October</textPath></text><path d="M 79.01933749520258 99.09900007780938 l -25.867643227201647 -1.1108679017945295 a46.891484963690836,46.891484963690836 0 0,0 0.04143959185463016,-0.8039170113038328 l 25.844762045890448 1.5547567064750742" fill="red" stroke="none" /><path d="M 79.0935383218832 98.0201363427161 l -38.455098925389954 -3.64173784985002 a59.62715221095852,59.62715221095852 0 0,0 0.10524932740913842,-1.0181917681903878 l 38.38691720549915 4.301334140323321" fill="red" stroke="none" /><path d="M 79.407916724674 95.88100663000787 l -39.99735272014493 -8.000590735223001 a61.78967610477216,61.78967610477216 0 0,0 0.21697676968508672,-1.03831238941796 l 39.854118239635476 8.68601957592637" fill="red" stroke="none" /><path d="M 79.83685265289637 94.1308016681162 l -36.98384905559805 -10.76545945169314 a59.51882926794777,59.51882926794777 0 0,0 0.2939767619403436,-0.9785530297393444 l 36.79359597365408 11.398750085023208" fill="red" stroke="none" /><line stroke="#e1ed5e" stroke-width="0.3" x1="26.387840678322718" x2="22.05771365940052" y1="57.49999999999999" y2="54.99999999999999" /><path d="M 25.521815274538284 56.99999999999999 a86.0,86.0 0 0,1 29.574782752854787,-30.34633250058573" fill="none" id="id83" stroke="none" /><text fill="#e1ed5e" style="font-size:6.75px; font-family:Arial;" text-anchor="middle"><textPath startOffset="21.40746469413373" xlink:href="#id83">November</textPath></text><path d="M 82.18462484594161 88.88188828441811 l -32.93960925993311 -20.55675238116581 a59.82779837510282,59.82779837510282 0 0,0 0.5512200254550346,-0.8666094352279928 l 32.581871542852184 21.119175491072475" fill="red" stroke="none" /><path d="M 83.64595745247003 86.82634096563983 l -25.09378777177203 -20.213779132906183 a53.22258604719132,53.22258604719132 0 0,0 0.5792472061633949,-0.7065874072410747 l 24.74309374637 20.641568821845752" fill="red" stroke="none" /><path d="M 87.25179093698888 83.31218511350988 l -23.635949051120505 -30.940216032074225 a59.93526750464914,59.93526750464914 0 0,0 0.82295977351429,-0.6175643563737285 l 23.10133628869546 31.341399415711955" fill="red" stroke="none" /><line stroke="#e1ed5e" stroke-width="0.3" x1="56.869717070023135" x2="54.33264160355391" y1="26.7553504044142" y2="22.446841604673864" /><path d="M 56.362301976729285 25.89364864446614 a86.0,86.0 0 0,1 42.16139366436587,-11.88097634709845" fill="none" id="id84" stroke="none" /><text fill="#e1ed5e" style="font-size:6.75px; font-family:Arial;" text-anchor="middle"><textPath startOffset="22.145653131862474" xlink:href="#id84">December</textPath></text><path d="M 89.34428304082924 81.90426304109057 l -12.560789312191618 -21.330966302936506 a45.75446528532337,45.75446528532337 0 0,0 0.680232794814182,-0.3927325871975773 l 12.192764049517036 21.543445787410256" fill="red" stroke="none" /><path d="M 91.26138138417902 80.90454125486306 l -26.215855847462933 -57.286376235410835 a84.0,84.0 0 0,0 1.3163463885775248,-0.5887849963606175 l 25.22859605602979 57.7279649826813" fill="red" stroke="none" /><path d="M 92.592206182469 80.34994680014964 l -13.284592712726557 -35.23896047506711 a58.65985580039267,58.65985580039267 0 0,0 0.9452919792979744,-0.34712430845645703 l 12.677711581774455 35.461815632532286" fill="red" stroke="none" /><path d="M 96.76829788921471 79.25015418208739 l -5.968416942406476 -38.32151822367626 a59.78351144192537,59.78351144192537 0 0,0 1.0153941728547853,-0.14922797639093197 l 5.309697663944005 38.418327273366074" fill="red" stroke="none" /><path d="M 97.84075906011542 79.11130261209362 l -4.069705513505197 -39.370709103935596 a60.58049062749692,60.58049062749692 0 0,0 1.035350692217077,-0.09804878700301393 l 3.3932552579031046 39.43476964644379" fill="red" stroke="none" /><path d="M 98.9189461498227 79.02784411241856 l -2.0364249631773856 -39.50610025033837 a60.55855133369317,60.55855133369317 0 0,0 1.038649055510911,-0.044604059475468846 l 1.3579501470656548 39.535236878239665" fill="red" stroke="none" /></svg>