<?xml version="1.0" encoding="utf-8" ?>
<svg baseProfile="full" height="200mm" version="1.1" viewBox="0,0,200,200" width="200mm" xmlns="http://www.w3.org/2000/svg" xmlns:ev="http://www.w3.org/2001/xml-events" xmlns:xlink="http://www.w3.org/1999/xlink"><defs /><rect fill="#1a1a1a" height="200" width="200" x="0" y="0" /><text alignment-baseline="middle" fill="#e1ed5e" style="dominant-baseline: central; font-size:9.0px; font-family:Arial;" text-anchor="middle" x="100.0" y="100.0">2025</text><line stroke="#e1ed5e" stroke-width="0.3" x1="100.0" x2="100.0" y1="15.0" y2="10.0" /><path d="M 100.0 14.0 a86.0,86.0 0 0,1 42.46469731375804,11.215312516191453" fill="none" id="id85" stroke="none" /><text fill="#e1ed5e" style="font-size:6.75px; font-family:Arial;" text-anchor="middle"><textPath startOffset="22.20632615414155" xlink:href="#id85">January</textPath></text><path d="M 101.08401301168833 79.027996857942 l 1.9006720723500226 -36.77160720724559 a57.820695959345564,57.820695959345564 0 0,0 0.9935191173637135,0.05993178634240072 l -2.5333532385533477 36.73344215152288" fill="#b7ff1f" stroke="none" /><path d="M 106.0581310904928 79.89281104454417 l 13.353329953751382 -44.32025727967315 a67.28819100148735,67.28819100148735 0 0,0 1.1061365608356408,0.34368201384851077 l -14.114251887297742 44.08383513094211" fill="#30ff34" stroke="none" /><path d="M 109.08828744355905 81.06846463323043 l 14.49351003201742 -30.19099026783377 a54.48966596430342,54.48966596430342 0 0,0 0.8420696312581041,0.41319991099009495 l -15.011050930285956 29.93703519670884" fill="#eeff19" stroke="none" /><line stroke="#e1ed5e" stroke-width="0.3" x1="143.23703022742887" x2="145.7803849466894" y1="26.81831364943548" y2="22.513508569990506" /><path d="M 143.74570117128098 25.957352633546492 a86.0,86.0 0 0,1 28.547481713284135,27.462654790039103" fill="none" id="id86" stroke="none" /><text fill="#e1ed5e" style="font-size:6.75px; font-family:Arial;" text-anchor="middle"><textPath startOffset="19.985693538727396" xlink:href="#id86">February</textPath></text><path d="M 114.94478906791727 85.2469230424477 l 38.30131442547415 -37.809984251131105 a74.81993678730788,74.81993678730788 0 0,0 0.8968977084209422,0.924331928062134 l -38.946476397598204 37.145088127518854" fill="#3dffad" stroke="none" /><path d="M 116.60985879189232 87.15038557335679 l 38.41228366318572 -29.716269144907628 a69.56500991571642,69.56500991571642 0 0,0 0.7245495898626331,0.9534223295109544 l -38.918109193272464 29.05066203951564" fill="#34ff5a" stroke="none" /><line stroke="#e1ed5e" stroke-width="0.3" x1="172.23445277983987" x2="176.4835382374775" y1="55.19839476539836" y2="52.563006222186495" /><path d="M 173.08426987136738 54.67131705675599 a86.0,86.0 0 0,1 12.851231095245387,41.99856678651699" fill="none" id="id87" stroke="none" /><text fill="#e1ed5e" style="font-size:6.75px; font-family:Arial;" text-anchor="middle"><textPath startOffset="22.20632615414155" xlink:href="#id87">March</textPath></text><path d="M 119.196687751892 91.48605970444005 l 17.311723662223525 -7.677938172374383 a39.93796479920674,39.93796479920674 0 0,0 0.273307455791524,0.6308312898746201 l -17.441321827857728 7.37880773791316" fill="#ff0000" stroke="none" /><path d="M 120.67395015179393 96.31383870115 l 29.835441160455627 -5.319653367271204 a51.30597731779871,51.30597731779871 0 0,0 0.1475367839575012,0.8707704504956537 l -29.922589805933352 4.805297128459713" fill="#ffd914" stroke="none" /><line stroke="#e1ed5e" stroke-width="0.3" x1="184.98032266829074" x2="189.97916517819016" y1="98.17113171792111" y2="98.06355123074" /><path d="M 185.9800911702706 98.14961562048488 a86.0,86.0 0 0,1 -9.607161424134198,41.387399972396054" fill="none" id="id88" stroke="none" /><text fill="#e1ed5e" style="font-size:6.75px; font-family:Arial;" text-anchor="middle"><textPath startOffset="21.466115282336823" xlink:href="#id88">April</textPath></text><path d="M 120.99980553446 99.90962569577887 l 48.64868806827955 -0.20936343092448612 a69.64913857213685,69.64913857213685 0 0,0 -0.005159683507640644,1.19892873548122 l -48.6450840874824 -0.6280747827604186" fill="#34ff5b" stroke="none" /><path d="M 120.9904718944345 100.63252640178507 l 35.45375666881651 1.0683626956207648 a56.469850024789295,56.469850024789295 0 0,0 -0.037640831359975264,0.9713426041266943 l -35.43011370460533 -1.6784825467614655" fill="#cdff1d" stroke="none" /><path d="M 120.95626037817324 101.35467743843564 l 47.87539428987579 3.094813450984557 a68.97531916212196,68.97531916212196 0 0,0 -0.08678882378518643,1.1841645465073358 l -47.81502890742627 -3.918451133988663" fill="#33ff50" stroke="none" /><path d="M 120.13307415673323 105.97154293290107 l 47.18096592480852 13.994045888988678 a70.21256817055033,70.21256817055033 0 0,0 -0.35364809266820413,1.1557424287813907 l -46.93309105963418 -14.804115290322127" fill="#35ff64" stroke="none" /><path d="M 119.26925614724726 108.34839909993367 l 42.70444488357434 18.501687169700592 a67.54011217154189,67.54011217154189 0 0,0 -0.47136217033282535,1.0627972581217375 l -42.37964162851024 -19.234032764315018" fill="#30ff38" stroke="none" /><line stroke="#e1ed5e" stroke-width="0.3" x1="174.80103733775053" x2="179.2010983576182" y1="140.37084112569926" y2="142.7455964860345" /><path d="M 175.68104954172406 140.8457921977663 a86.0,86.0 0 0,1 -30.038265399797805,32.042727171017184" fill="none" id="id89" stroke="none" /><text fill="#e1ed5e" style="font-size:6.75px; font-family:Arial;" text-anchor="middle"><textPath startOffset="22.206326154141568" xlink:href="#id89">May</textPath></text><path d="M 118.48025628344425 109.97397251340804 l 23.270762727908952 12.559455034297095 a47.44368182944968,47.44368182944968 0 0,0 -0.3940617777872756,0.7153365896646727 l -23.051124540670166 -12.958162142359573" fill="#ff930d" stroke="none" /><path d="M 118.30583269289576 110.29060199501025 l 49.08384286019663 27.59242366810945 a77.30777454139812,77.30777454139812 0 0,0 -0.6620785206272545,1.1543897074782021 l -48.601612343416996 -28.43323322144597" fill="#41ffd1" stroke="none" /><path d="M 118.12598468904814 110.60418214915192 l 54.37795406714442 31.812546447455787 a84.0,84.0 0 0,0 -0.7408764972070911,1.2417516244555835 l -53.8222966942391 -32.74386016579747" fill="#4dd2ff" stroke="none" /><line stroke="#e1ed5e" stroke-width="0.3" x1="143.8653032363475" x2="146.44561519142675" y1="172.8068346515853" y2="177.08958963109032" /><path d="M 144.38136562736335 173.6633856474863 a86.0,86.0 0 0,1 -40.68145358897372,12.25698825130547" fill="none" id="id90" stroke="none" /><text fill="#e1ed5e" style="font-size:6.75px; font-family:Arial;" text-anchor="middle"><textPath startOffset="21.466115282336833" xlink:href="#id90">June</textPath></text><line stroke="#e1ed5e" stroke-width="0.3" x1="102.19456741930631" x2="102.32365962044197" y1="184.97166512339345" y2="189.96999836594603" /><path d="M 102.22038585953345 185.97133177190398 a86.0,86.0 0 0,1 -42.740103519485714,-10.115201625700543" fill="none" id="id91" stroke="none" /><text fill="#e1ed5e" style="font-size:6.75px; font-family:Arial;" text-anchor="middle"><textPath startOffset="22.20632615414155" xlink:href="#id91">July</textPath></text><line stroke="#e1ed5e" stroke-width="0.3" x1="58.666819895761336" x2="56.23545636021788" y1="174.27360380694188" y2="178.64263932499728" /><path d="M 58.180547188652646 175.14741091055294 a86.0,86.0 0 0,1 -31.652253787137756,-30.449443065178592" fill="none" id="id92" stroke="none" /><text fill="#e1ed5e" style="font-size:6.75px; font-family:Arial;" text-anchor="middle"><textPath startOffset="22.20632615414155" xlink:href="#id92">August</textPath></text><line stroke="#e1ed5e" stroke-width="0.3" x1="26.63291911575756" x2="22.317208475507996" y1="142.92168965132927" y2="145.44649492493687" /><path d="M 25.769776987707644 143.4266507060508 a86.0,86.0 0 0,1 -11.730757126820373,-40.83630448921669" fill="none" id="id93" stroke="none" /><text fill="#e1ed5e" style="font-size:6.75px; font-family:Arial;" text-anchor="middle"><textPath startOffset="21.46611528233685" xlink:href="#id93">September</textPath></text><line stroke="#e1ed5e" stroke-width="0.3" x1="15.007084014347285" x2="10.007500721073583" y1="101.09737516637583" y2="101.16192664675087" /><path d="M 14.007167355692545 101.11028546245083 a86.0,86.0 0 0,1 10.666146001902534,-42.60595125391555" fill="none" id="id94" stroke="none" /><text fill="#e1ed5e" style="font-size:6.75px; font-family:Arial;" text-anchor="middle"><textPath startOffset="22.20632615414155" xlink:href="#id94">October</textPath></text><line stroke="#e1ed5e" stroke-width="0.3" x1="26.266209847984243" x2="21.928928074336255" y1="57.711370442889674" y2="55.22380399835377" /><path d="M 25.398753493254645 57.213857153982495 a86.0,86.0 0 0,1 29.58750427330803,-30.492523968695096" fill="none" id="id95" stroke="none" /><text fill="#e1ed5e" style="font-size:6.75px; font-family:Arial;" text-anchor="middle"><textPath startOffset="21.46611528233685" xlink:href="#id95">November</textPath></text><line stroke="#e1ed5e" stroke-width="0.3" x1="56.762969772571076" x2="54.21961505331055" y1="26.818313649435495" y2="22.513508569990535" /><path d="M 56.25429882871897 25.957352633546506 a86.0,86.0 0 0,1 42.265352541879196,-11.944610805530505" fill="none" id="id96" stroke="none" /><text fill="#e1ed5e" style="font-size:6.75px; font-family:Arial;" text-anchor="middle"><textPath startOffset="22.20632615414155" xlink:href="#id96">December</textPath></text></svg>