<?xml version="1.0" encoding="utf-8" ?>
<svg baseProfile="full" height="200mm" version="1.1" viewBox="0,0,200,200" width="200mm" xmlns="http://www.w3.org/2000/svg" xmlns:ev="http://www.w3.org/2001/xml-events" xmlns:xlink="http://www.w3.org/1999/xlink"><defs /><rect fill="#1a1a1a" height="200" width="200" x="0" y="0" /><text alignment-baseline="middle" fill="#e1ed5e" style="dominant-baseline: central; font-size:9.0px; font-family:Arial;" text-anchor="middle" x="100.0" y="100.0">2022</text><line stroke="#e1ed5e" stroke-width="0.3" x1="100.0" x2="100.0" y1="15.0" y2="10.0" /><path d="M 100.0 14.0 a86.0,86.0 0 0,1 42.46469731375804,11.215312516191453" fill="none" id="id49" stroke="none" /><text fill="#e1ed5e" style="font-size:6.75px; font-family:Arial;" text-anchor="middle"><textPath startOffset="22.20632615414155" xlink:href="#id49">January</textPath></text><line stroke="#e1ed5e" stroke-width="0.3" x1="143.23703022742887" x2="145.7803849466894" y1="26.81831364943548" y2="22.513508569990506" /><path d="M 143.74570117128098 25.957352633546492 a86.0,86.0 0 0,1 28.547481713284135,27.462654790039103" fill="none" id="id50" stroke="none" /><text fill="#e1ed5e" style="font-size:6.75px; font-family:Arial;" text-anchor="middle"><textPath startOffset="19.985693538727396" xlink:href="#id50">February</textPath></text><path d="M 113.89432698308785 84.25364557470407 l 27.617719044714377 -31.29898936635445 a62.741647554785715,62.741647554785715 0 0,0 0.8036578005886799,0.7215319083775303 l -28.152387832899045 30.818958449207624" fill="#45ff2d" stroke="none" /><path d="M 117.45458315368197 88.32363383020206 l 33.362036413524386 -22.317768915167118 a61.138613366783446,61.138613366783446 0 0,0 0.577624123881942,0.8797611691854801 l -33.74125717276425 21.740189682003965" fill="#59ff2a" stroke="none" /><line stroke="#e1ed5e" stroke-width="0.3" x1="172.23445277983987" x2="176.4835382374775" y1="55.19839476539836" y2="52.563006222186495" /><path d="M 173.08426987136738 54.67131705675599 a86.0,86.0 0 0,1 12.851231095245387,41.99856678651699" fill="none" id="id51" stroke="none" /><text fill="#e1ed5e" style="font-size:6.75px; font-family:Arial;" text-anchor="middle"><textPath startOffset="22.20632615414155" xlink:href="#id51">March</textPath></text><path d="M 119.85752413597 93.16781622104841 l 18.807055670380407 -6.470759385771523 a40.88909424828939,40.88909424828939 0 0,0 0.22325972389190538,0.6675181574027671 l -18.91565268804408 6.146068125446442" fill="#ff7f0b" stroke="none" /><path d="M 120.37134235888165 94.90015583598534 l 41.17689797170756 -10.308391028619864 a63.447613032670574,63.447613032670574 0 0,0 0.25610840413879155,1.061734677887599 l -41.34823917610718 9.59807111907286" fill="#3dff2e" stroke="none" /><path d="M 120.87857604477298 97.74499172005257 l 41.54528117547541 -4.487133262466691 a62.7868969039871,62.7868969039871 0 0,0 0.10680611556685699,1.0755230079762912 l -41.616364416724494 3.771334723785965" fill="#45ff2d" stroke="none" /><line stroke="#e1ed5e" stroke-width="0.3" x1="184.98032266829074" x2="189.97916517819016" y1="98.17113171792111" y2="98.06355123074" /><path d="M 185.9800911702706 98.14961562048488 a86.0,86.0 0 0,1 -9.607161424134198,41.387399972396054" fill="none" id="id52" stroke="none" /><text fill="#e1ed5e" style="font-size:6.75px; font-family:Arial;" text-anchor="middle"><textPath startOffset="21.466115282336823" xlink:href="#id52">April</textPath></text><path d="M 120.9764740272857 100.99374915477107 l 41.68163690995004 1.974645090250042 a62.72838456884424,62.72838456884424 0 0,0 -0.060379502622225675,1.0781165799754509 l -41.64147105644029 -2.691833386560916" fill="#45ff2d" stroke="none" /><path d="M 120.49622156327973 104.57218783832717 l 22.93769763945669 5.116819305575843 a44.50148533189021,44.50148533189021 0 0,0 -0.17321553458469094,0.7462079895191259 l -22.846221538941446 -5.510895952443534" fill="#ffba11" stroke="none" /><path d="M 120.32669344350535 105.2749913415812 l 40.27750067717271 10.452436247101573 a62.61166283987424,62.61166283987424 0 0,0 -0.2797009778308889,1.0408713898264619 l -40.09161162300004 -11.144198570103585" fill="#47ff2c" stroke="none" /><line stroke="#e1ed5e" stroke-width="0.3" x1="174.80103733775053" x2="179.2010983576182" y1="140.37084112569926" y2="142.7455964860345" /><path d="M 175.68104954172406 140.8457921977663 a86.0,86.0 0 0,1 -30.038265399797805,32.042727171017184" fill="none" id="id53" stroke="none" /><text fill="#e1ed5e" style="font-size:6.75px; font-family:Arial;" text-anchor="middle"><textPath startOffset="22.206326154141568" xlink:href="#id53">May</textPath></text><path d="M 114.81725581225074 114.88116024355365 l 28.21831239664078 28.340013420695744 a60.99286830423176,60.99286830423176 0 0,0 -0.750357639577866,0.7343828796753391 l -27.726304804687118 -28.821546403293656" fill="#5bff2a" stroke="none" /><path d="M 112.63410532772338 116.77436683061366 l 24.179907442667204 32.10378787040503 a61.191057706459006,61.191057706459006 0 0,0 -0.846811478356282,0.626450887284732 l -23.62371099389236 -32.51524870642953" fill="#58ff2a" stroke="none" /><line stroke="#e1ed5e" stroke-width="0.3" x1="143.8653032363475" x2="146.44561519142675" y1="172.8068346515853" y2="177.08958963109032" /><path d="M 144.38136562736335 173.6633856474863 a86.0,86.0 0 0,1 -40.68145358897372,12.25698825130547" fill="none" id="id54" stroke="none" /><text fill="#e1ed5e" style="font-size:6.75px; font-family:Arial;" text-anchor="middle"><textPath startOffset="21.466115282336833" xlink:href="#id54">June</textPath></text><line stroke="#e1ed5e" stroke-width="0.3" x1="102.19456741930631" x2="102.32365962044197" y1="184.97166512339345" y2="189.96999836594603" /><path d="M 102.22038585953345 185.97133177190398 a86.0,86.0 0 0,1 -42.740103519485714,-10.115201625700543" fill="none" id="id55" stroke="none" /><text fill="#e1ed5e" style="font-size:6.75px; font-family:Arial;" text-anchor="middle"><textPath startOffset="22.20632615414155" xlink:href="#id55">July</textPath></text><path d="M 96.93821686468263 120.77559828337769 l -6.166433980179933 41.8420735732183 a63.29401883172763,63.29401883172763 0 0,0 -1.0764930273704882,-0.16812607167799667 l 6.8857628711589385 -41.7297291941932" fill="#3eff2d" stroke="none" /><path d="M 95.16358092515715 120.4354850818985 l -9.588864577965568 40.5161537912691 a62.63538209182584,62.63538209182584 0 0,0 -1.0470450067709236,-0.2573381881858417 l 10.284862869479703 -40.34509434476922" fill="#46ff2c" stroke="none" /><path d="M 93.08242187328487 119.8279376855182 l -13.742036129862456 39.38896403681676 a62.71731109369453,62.71731109369453 0 0,0 -1.0162606750040235,-0.3643949212335049 l 14.418016365496205 -39.1465815745433" fill="#45ff2d" stroke="none" /><path d="M 92.06813273071674 119.44442032107085 l -16.02344764698192 39.280366206726 a63.4228481343494,63.4228481343494 0 0,0 -1.0073014272744596,-0.4210520782952903 l 16.697220533753843 -38.99872908541074" fill="#3dff2e" stroke="none" /><path d="M 90.7491055286396 118.85261126421891 l -18.629127232759235 37.96472816744143 a63.28906438172938,63.28906438172938 0 0,0 -0.9738863733985732,-0.48832684517151415 l 19.27986751384057 -37.638433481360615" fill="#3eff2d" stroke="none" /><line stroke="#e1ed5e" stroke-width="0.3" x1="58.666819895761336" x2="56.23545636021788" y1="174.27360380694188" y2="178.64263932499728" /><path d="M 58.180547188652646 175.14741091055294 a86.0,86.0 0 0,1 -31.652253787137756,-30.449443065178592" fill="none" id="id56" stroke="none" /><text fill="#e1ed5e" style="font-size:6.75px; font-family:Arial;" text-anchor="middle"><textPath startOffset="22.20632615414155" xlink:href="#id56">August</textPath></text><path d="M 87.95078237400918 117.19931262002967 l -24.34679641818079 34.75314131510478 a63.432856692614784,63.432856692614784 0 0,0 -0.8888836305292557,-0.6341948690584663 l 24.941407376558935 -34.32890218420209" fill="#3dff2e" stroke="none" /><path d="M 86.24171649860922 115.8653595955263 l -39.95228506350546 46.07096293163414 a81.98129801212507,81.98129801212507 0 0,0 -1.0581741783252598,-0.9337156805699893 l 40.7394015947373 -45.37642410929187" fill="#4ae9ff" stroke="none" /><path d="M 85.97065885151581 115.62618273729859 l -28.31496565340433 31.537819404173113 a63.38362104308344,63.38362104308344 0 0,0 -0.8055770006105296,-0.7358754900113837 l 28.853642203481716 -31.045751147575157" fill="#3dff2e" stroke="none" /><path d="M 84.67929136418377 114.36230785411682 l -9.121032232257434 8.550457813730526 a33.50214212870196,33.50214212870196 0 0,0 -0.39078428829824574,-0.42411916411344963 l 9.266862928551408 -8.392187394815732" fill="#ff0000" stroke="none" /><path d="M 84.43433777217949 114.09645910891817 l -46.69698668346152 42.28937732675451 a84.0,84.0 0 0,0 -0.9613646014066468,-1.0801033210365434 l 47.4180101345165 -41.4792998359771" fill="#4dd2ff" stroke="none" /><path d="M 82.85270091963577 112.12312394758628 l -23.714170770190396 16.76589591246222 a50.042333946590276,50.042333946590276 0 0,0 -0.49122292015427016,-0.7076432536188315 l 23.9992545975068 -16.355211396656376" fill="#f0ff19" stroke="none" /><path d="M 82.44556493220864 111.52570212397912 l -21.065909079391066 13.83122795363398 a46.20070221336217,46.20070221336217 0 0,0 -0.4307558477115083,-0.6685426414810524 l 21.30086979047962 -13.46656371223148" fill="#ffd413" stroke="none" /><path d="M 82.24976979558568 111.22182372390057 l -20.064487886036883 12.68491414333595 a44.737959494293634,44.737959494293634 0 0,0 -0.40591253489360146,-0.6544602516132959 l 20.27986506059844 -12.33765756035739" fill="#ffbd11" stroke="none" /><path d="M 82.05923443525364 110.91462005526583 l -31.6937580837744 19.281525437668694 a58.098133708803736,58.098133708803736 0 0,0 -0.5124231166243649,-0.858850617985037 l 32.020962076097 -18.733112725797547" fill="#80ff26" stroke="none" /><line stroke="#e1ed5e" stroke-width="0.3" x1="26.63291911575756" x2="22.317208475507996" y1="142.92168965132927" y2="145.44649492493687" /><path d="M 25.769776987707644 143.4266507060508 a86.0,86.0 0 0,1 -11.730757126820373,-40.83630448921669" fill="none" id="id57" stroke="none" /><text fill="#e1ed5e" style="font-size:6.75px; font-family:Arial;" text-anchor="middle"><textPath startOffset="21.46611528233685" xlink:href="#id57">September</textPath></text><path d="M 81.87401531095188 110.60418214915194 l -18.96054698087303 11.092423241106081 a42.9668886093075,42.9668886093075 0 0,0 -0.3679766260917674,-0.641598264433124 l 19.148675603117173 -10.764405130814652" fill="#ffa10e" stroke="none" /><path d="M 81.69416730710424 110.29060199501025 l -21.458000681318538 12.062589466678748 a45.61608941081211,45.61608941081211 0 0,0 -0.37888200484830964,-0.687780892517334 l 21.662459095618363 -11.69143805576359" fill="#ffcb12" stroke="none" /><path d="M 81.51974371655577 109.97397251340807 l -14.29063075864281 7.712791218899839 a37.23912792813107,37.23912792813107 0 0,0 -0.2995932028262066,-0.5667174351008374 l 14.421276469693902 -7.465658768712875" fill="#ff4206" stroke="none" /><path d="M 81.18737489456691 109.33194174019688 l -12.673850820501867 6.286822642668461 a35.147460321934275,35.147460321934275 0 0,0 -0.26418629286098605,-0.5443020126888083 l 12.780190369977571 -6.067731674014367" fill="#ff1d03" stroke="none" /><path d="M 81.02952815118164 109.00673069616217 l -14.010790032624708 6.651991245657081 a36.50971388745113,36.50971388745113 0 0,0 -0.26465262788502614,-0.5700382158612737 l 14.123217277349562 -6.4098329625169805" fill="#ff3505" stroke="none" /><path d="M 80.87730276802145 108.67885076344099 l -22.141595316448456 10.048979967878616 a45.315267663593545,45.315267663593545 0 0,0 -0.3162550701851419,-0.7130716943672969 l 22.31129147136488 -9.666359937018623" fill="#ffc612" stroke="none" /><path d="M 80.58989483394504 108.01547362559985 l -14.576938448359808 6.019599825721501 a36.77094532959571,36.77094532959571 0 0,0 -0.23655517072918555,-0.5871105340014803 l 14.678396233346382 -5.767789923877215" fill="#ff3a05" stroke="none" /><path d="M 80.45479744820244 107.68017299344265 l -17.540755804369226 6.89253737106445 a39.846357356264704,39.846357356264704 0 0,0 -0.24535056873934696,-0.6405329138580572 l 17.65680065270208 -6.589580890373235" fill="#ff6e0a" stroke="none" /><path d="M 80.20201598880116 107.00284435728193 l -23.223566991351383 8.214524517716086 a45.633564030686756,45.633564030686756 0 0,0 -0.25556788317847845,-0.7427998971910069 l 23.361525705473092 -7.813551917435783" fill="#ffcb12" stroke="none" /><path d="M 79.97269907076064 106.31721596034903 l -27.032014490541158 8.526714307803564 a49.3449230781057,49.3449230781057 0 0,0 -0.2485415130670463,-0.8122480452188153 l 27.174782776114338 -8.060139290032701" fill="#faff18" stroke="none" /><path d="M 79.86692584326677 105.97154293290107 l -21.36593902189225 6.337215130571905 a43.28595176110653,43.28595176110653 0 0,0 -0.20572650976911155,-0.7161609692888159 l 21.471858168547463 -5.968496685778493" fill="#ffa60f" stroke="none" /><path d="M 79.67330655649465 105.27499134158121 l -18.451870483799873 4.7884550091014235 a40.063074928382186,40.063074928382186 0 0,0 -0.16748022348863162,-0.6690002402628553 l 18.53156202158356 -4.470126929441176" fill="#ff720a" stroke="none" /><path d="M 79.58551787078972 104.9243191809786 l -22.164118526584968 5.346361142013826 a43.79981858527261,43.79981858527261 0 0,0 -0.17048439921450168,-0.7344423298248055 l 22.25286349173002 -4.9640501548404465" fill="#ffae10" stroke="none" /><path d="M 79.50377843672027 104.57218783832718 l -19.864908675770202 4.431357924992243 a41.35317001737277,41.35317001737277 0 0,0 -0.1490013029121974,-0.6960844821178624 l 19.93824401740684 -4.088759623458217" fill="#ff870c" stroke="none" /><path d="M 79.4281124754447 104.21870165774334 l -24.277337447127014 4.97858271933184 a45.78256240615375,45.78256240615375 0 0,0 -0.15167123500675475,-0.773368359677988 l 24.359438615109436 -4.559950632585896" fill="#ffce13" stroke="none" /><path d="M 79.35854240842038 103.8639653848113 l -24.380780028756032 4.5639456258283815 a45.80427452045528,45.80427452045528 0 0,0 -0.13840210354263516,-0.7762324970523073 l 24.455728574637856 -4.14359437804286" fill="#ffce13" stroke="none" /><path d="M 79.18660465613746 102.79330883721812 l -20.971762656089588 2.8145628808502083 a42.15978717080145,42.15978717080145 0 0,0 -0.09033937110286477,-0.720093673389903 l 21.0171035364393 -2.4531514531728966" fill="#ff940d" stroke="none" /><path d="M 79.0235259727143 100.99374915477108 l -21.309826386746238 1.0095415431879282 a42.33372622775235,42.33372622775235 0 0,0 -0.028218184554748144,-0.7281859586735463 l 21.324046704152188 -0.6425783375003852" fill="#ff970d" stroke="none" /><path d="M 79.0095281055655 100.63252640178507 l -20.88322452736306 0.629294612069447 a41.89270395063879,41.89270395063879 0 0,0 -0.015516134537314716,-0.7209738024690459 l 20.890962724585382 -0.26973099381027227" fill="#ff900d" stroke="none" /><line stroke="#e1ed5e" stroke-width="0.3" x1="15.007084014347285" x2="10.007500721073583" y1="101.09737516637583" y2="101.16192664675087" /><path d="M 14.007167355692545 101.11028546245083 a86.0,86.0 0 0,1 10.666146001902534,-42.60595125391555" fill="none" id="id58" stroke="none" /><text fill="#e1ed5e" style="font-size:6.75px; font-family:Arial;" text-anchor="middle"><textPath startOffset="22.20632615414155" xlink:href="#id58">October</textPath></text><path d="M 79.01574976396665 99.18683210126434 l -21.193358252534743 -0.8212711154088533 a42.20926496287147,42.20926496287147 0 0,0 0.03438324869671104,-0.7257760369380692 l 21.176081395604534 1.1859582589699318" fill="#ff950d" stroke="none" /><path d="M 79.03285615573316 98.82574320788736 l -53.864506360598234 -3.016660872721689 a74.94891368963732,74.94891368963732 0 0,0 0.08322687486207565,-1.2874829170295248 l 53.80459889473175 3.9434028540042254" fill="#3fffc0" stroke="none" /><path d="M 79.54389044137918 95.25157060432595 l -12.396169351820966 -2.8774941185790626 a33.725760763171785,33.725760763171785 0 0,0 0.1361351570937028,-0.5643681145571723 l 12.34480139446645 3.090447464795632" fill="#ff0400" stroke="none" /><path d="M 80.14247586403 93.16781622104843 l -39.994950288185265 -13.76067070234312 a63.29600580117152,63.29600580117152 0 0,0 0.36333992839884044,-1.027210905464488 l 39.75215727897661 14.44707923423422" fill="#3eff2d" stroke="none" /><path d="M 80.2630227832202 92.82701384747504 l -40.63118167579611 -14.766542025160346 a64.23128135681819,64.23128135681819 0 0,0 0.38659710657917956,-1.0358880416434728 l 40.3709799807153 15.46375320383316" fill="#33ff2f" stroke="none" /><line stroke="#e1ed5e" stroke-width="0.3" x1="26.266209847984243" x2="21.928928074336255" y1="57.711370442889674" y2="55.22380399835377" /><path d="M 25.398753493254645 57.213857153982495 a86.0,86.0 0 0,1 29.58750427330803,-30.492523968695096" fill="none" id="id59" stroke="none" /><text fill="#e1ed5e" style="font-size:6.75px; font-family:Arial;" text-anchor="middle"><textPath startOffset="21.46611528233685" xlink:href="#id59">November</textPath></text><path d="M 83.6137871275137 86.86637796730984 l -35.96347050639731 -28.824880543807755 a67.08953188338211,67.08953188338211 0 0,0 0.7300028191067501,-0.8948971397199345 l 35.46196919521417 29.43966185313577" fill="#33ff55" stroke="none" /><path d="M 85.05521093208273 85.24692304244772 l -17.501200572887615 -17.276694754806048 a45.592198013662475,45.592198013662475 0 0,0 0.5561470915611076,-0.5537588192069806 l 17.201217681159193 17.57538942466314" fill="#ffcb12" stroke="none" /><line stroke="#e1ed5e" stroke-width="0.3" x1="56.762969772571076" x2="54.21961505331055" y1="26.818313649435495" y2="22.513508569990535" /><path d="M 56.25429882871897 25.957352633546506 a86.0,86.0 0 0,1 42.265352541879196,-11.944610805530505" fill="none" id="id60" stroke="none" /><text fill="#e1ed5e" style="font-size:6.75px; font-family:Arial;" text-anchor="middle"><textPath startOffset="22.20632615414155" xlink:href="#id60">December</textPath></text><path d="M 89.94658935756843 81.56283822128135 l -20.686462622356068 -37.937340029467634 a64.21077995521004,64.21077995521004 0 0,0 0.9749488216666535,-0.5207838959184435 l 20.03036875416111 38.28780265188783" fill="#33ff2f" stroke="none" /><path d="M 92.57280143429618 80.3572730644239 l -14.598885331908981 -38.60970130280898 a62.277554283488705,62.277554283488705 0 0,0 1.0059831962198853,-0.37051210100921184 l 13.932119809916527 38.855276671624516" fill="#4bff2c" stroke="none" /></svg>