<?xml version="1.0" encoding="utf-8" ?>
<svg baseProfile="full" height="200mm" version="1.1" viewBox="0,0,200,200" width="200mm" xmlns="http://www.w3.org/2000/svg" xmlns:ev="http://www.w3.org/2001/xml-events" xmlns:xlink="http://www.w3.org/1999/xlink"><defs /><rect fill="#1a1a1a" height="200" width="200" x="0" y="0" /><text alignment-baseline="middle" fill="#e1ed5e" style="dominant-baseline: central; font-size:9.0px; font-family:Arial;" text-anchor="middle" x="100.0" y="100.0">2025</text><line stroke="#e1ed5e" stroke-width="0.3" x1="100.0" x2="100.0" y1="15.0" y2="10.0" /><path d="M 100.0 14.0 a86.0,86.0 0 0,1 42.46469731375804,11.215312516191453" fill="none" id="id85" stroke="none" /><text fill="#e1ed5e" style="font-size:6.75px; font-family:Arial;" text-anchor="middle"><textPath startOffset="22.20632615414155" xlink:href="#id85">January</textPath></text><path d="M 101.08401301168833 79.027996857942 l 1.6791111255179694 -32.48514862878054 a53.528515115292315,53.528515115292315 0 0,0 0.9197676058504736,0.055482893761280426 l -2.238040780208055 32.45143246563896" fill="#9bff22" stroke="none" /><path d="M 106.0581310904928 79.89281104454417 l 11.796735067682512 -39.15385413755542 a61.89238623609603,61.89238623609603 0 0,0 1.0174360498351507,0.31612233330869527 l -12.468956490228381 38.94499166936421" fill="#39ff2e" stroke="none" /><path d="M 109.08828744355905 81.06846463323043 l 12.804004592163578 -26.671632832719787 a50.585782591636175,50.585782591636175 0 0,0 0.7817399967499735,0.3835964213456813 l -13.261215855923982 26.447281251239275" fill="#c0ff1e" stroke="none" /><line stroke="#e1ed5e" stroke-width="0.3" x1="143.23703022742887" x2="145.7803849466894" y1="26.81831364943548" y2="22.513508569990506" /><path d="M 143.74570117128098 25.957352633546492 a86.0,86.0 0 0,1 28.547481713284135,27.462654790039103" fill="none" id="id86" stroke="none" /><text fill="#e1ed5e" style="font-size:6.75px; font-family:Arial;" text-anchor="middle"><textPath startOffset="19.985693538727396" xlink:href="#id86">February</textPath></text><path d="M 114.94478906791727 85.2469230424477 l 33.83653819580719 -33.40248227735406 a68.54615798742597,68.54615798742597 0 0,0 0.8216913119660805,0.8468251256865149 l -34.40649377147638 32.81509295611743" fill="#37ff7c" stroke="none" /><path d="M 116.60985879189232 87.15038557335679 l 33.93457177263633 -26.25224985202596 a63.90379684463141,63.90379684463141 0 0,0 0.6655856133786318,0.8758326481376423 l -34.381433326239076 25.664232428007285" fill="#31ff3f" stroke="none" /><line stroke="#e1ed5e" stroke-width="0.3" x1="172.23445277983987" x2="176.4835382374775" y1="55.19839476539836" y2="52.563006222186495" /><path d="M 173.08426987136738 54.67131705675599 a86.0,86.0 0 0,1 12.851231095245387,41.99856678651699" fill="none" id="id87" stroke="none" /><text fill="#e1ed5e" style="font-size:6.75px; font-family:Arial;" text-anchor="middle"><textPath startOffset="22.20632615414155" xlink:href="#id87">March</textPath></text><path d="M 119.196687751892 91.48605970444005 l 15.293699647615522 -6.782922521891381 a37.73037019463277,37.73037019463277 0 0,0 0.25820022466874054,0.595961717553516 l -15.408190582126945 6.518661659751262" fill="#ff8b0c" stroke="none" /><path d="M 120.67395015179393 96.31383870115 l 26.357530010590946 -4.699542484380369 a47.77321586626639,47.77321586626639 0 0,0 0.13737788454077968,0.8108120510758401 l -26.434519756651948 4.245144644988691" fill="#e5ff1a" stroke="none" /><line stroke="#e1ed5e" stroke-width="0.3" x1="184.98032266829074" x2="189.97916517819016" y1="98.17113171792111" y2="98.06355123074" /><path d="M 185.9800911702706 98.14961562048488 a86.0,86.0 0 0,1 -9.607161424134198,41.387399972396054" fill="none" id="id88" stroke="none" /><text fill="#e1ed5e" style="font-size:6.75px; font-family:Arial;" text-anchor="middle"><textPath startOffset="21.466115282336823" xlink:href="#id88">April</textPath></text><path d="M 120.99980553446 99.90962569577887 l 42.97772065241263 -0.18495797947263048 a63.9781186411293,63.9781186411293 0 0,0 -0.004739568218214411,1.1013087376727808 l -42.97453678690491 -0.554860236403835" fill="#31ff40" stroke="none" /><path d="M 120.9904718944345 100.63252640178507 l 31.32091965260048 0.9438238791435427 a52.335137009425964,52.335137009425964 0 0,0 -0.034884775955810646,0.9002210604020962 l -31.30003274379347 -1.482822186559645" fill="#a9ff21" stroke="none" /><path d="M 120.95626037817324 101.35467743843564 l 42.29456956838258 2.7340516928444933 a63.382846219123834,63.382846219123834 0 0,0 -0.07975204375039643,1.0881532736803934 l -42.24124096596784 -3.461678103021657" fill="#30ff38" stroke="none" /><path d="M 120.13307415673323 105.97154293290107 l 41.68109057291438 12.362762880057007 a64.47586936883502,64.47586936883502 0 0,0 -0.32475337136260274,1.0613128077172993 l -41.462110429045644 -13.078402660326363" fill="#32ff46" stroke="none" /><path d="M 119.26925614724726 108.34839909993367 l 37.72639665527401 16.34494935735355 a62.11494100792949,62.11494100792949 0 0,0 -0.43349992267157716,0.977427884987089 l -37.439455647871156 -16.991925578833325" fill="#36ff2e" stroke="none" /><line stroke="#e1ed5e" stroke-width="0.3" x1="174.80103733775053" x2="179.2010983576182" y1="140.37084112569926" y2="142.7455964860345" /><path d="M 175.68104954172406 140.8457921977663 a86.0,86.0 0 0,1 -30.038265399797805,32.042727171017184" fill="none" id="id89" stroke="none" /><text fill="#e1ed5e" style="font-size:6.75px; font-family:Arial;" text-anchor="middle"><textPath startOffset="22.206326154141568" xlink:href="#id89">May</textPath></text><path d="M 118.48025628344425 109.97397251340804 l 20.558094772976187 11.095401981919204 a44.361147356991,44.361147356991 0 0,0 -0.3684586001360498,0.6688593852820305 l -20.364059763388628 -11.44763188559904" fill="#ffeb16" stroke="none" /><path d="M 118.30583269289576 110.29060199501025 l 43.36214954104622 24.37598059924341 a70.74398901369638,70.74398901369638 0 0,0 -0.6058650099205374,1.0563767133101225 l -42.936132534973304 -25.11877715841185" fill="#3aff97" stroke="none" /><path d="M 118.12598468904814 110.60418214915192 l 48.03912730940181 28.104164546877747 a76.65610314715624,76.65610314715624 0 0,0 -0.676103633204888,1.1331885786597147 l -47.5482428004987 -28.926915219423567" fill="#43ffdd" stroke="none" /><path d="M 117.94076556474637 110.91462005526583 l 53.8222966942391 32.74386016579747 a84.0,84.0 0 0,0 -0.7621414413281484,1.228814674538906 l -53.25069061324299 -33.665471171701654" fill="#4dd2ff" stroke="none" /><path d="M 115.56566222782051 114.09645910891815 l 19.6613076442904 17.80552701061704 a47.52553129362813,47.52553129362813 0 0,0 -0.5543595048707587,0.6016477552052826 l -19.35190173142392 -18.14132602062366" fill="#e8ff1a" stroke="none" /><path d="M 115.07121518719521 114.62390073753431 l 25.880808267248682 25.112664533445507 a57.06192114315957,57.06192114315957 0 0,0 -0.690067134602244,0.6990343640858809 l -25.444700507590902 -25.55443939151205" fill="#70ff27" stroke="none" /><path d="M 113.20401910651253 116.32954008644616 l 22.75871699011195 28.145928781852128 a57.19602887098393,57.19602887098393 0 0,0 -0.7709003532501936,0.6124498641270462 l -22.270859144144406 -28.5335125599843" fill="#6eff28" stroke="none" /><path d="M 111.1453310114006 117.79835938074945 l 26.660377031942918 42.57486575817438 a71.23340420289988,71.23340420289988 0 0,0 -1.0448271501963078,0.6418181724887876 l -25.9235706818143 -43.02747239749155" fill="#3bff9d" stroke="none" /><line stroke="#e1ed5e" stroke-width="0.3" x1="143.8653032363475" x2="146.44561519142675" y1="172.8068346515853" y2="177.08958963109032" /><path d="M 144.38136562736335 173.6633856474863 a86.0,86.0 0 0,1 -40.68145358897372,12.25698825130547" fill="none" id="id90" stroke="none" /><text fill="#e1ed5e" style="font-size:6.75px; font-family:Arial;" text-anchor="middle"><textPath startOffset="21.466115282336833" xlink:href="#id90">June</textPath></text><path d="M 109.57404056367764 118.69057910512821 l 19.257570120670863 37.594904191077696 a63.240156582201095,63.240156582201095 0 0,0 -0.973133784622316,0.4879494815356121 l -18.607582428365788 -37.92082151352261" fill="#30ff36" stroke="none" /><path d="M 106.91757812671514 119.82793768551818 l 14.252310010477542 40.851568220253334 a64.26637223859623,64.26637223859623 0 0,0 -1.0476344938854396,0.35541450069923586 l -13.547005783654877 -41.0908457078507" fill="#31ff44" stroke="none" /><path d="M 104.48393922423573 120.51570834832081 l 9.122938342219427 41.74087402814621 a63.72620470659087,63.72620470659087 0 0,0 -1.0736607312329147,0.22499604523761216 l -8.403086149557135 -41.89172605411036" fill="#31ff3c" stroke="none" /><path d="M 104.13013068566511 120.58985236759428 l 3.1381664749659612 15.64463435715171 a36.95627378160616,36.95627378160616 0 0,0 -0.6247940017726101,0.11974325746197788 l -2.868404858621647 -15.696334812962158" fill="#ff800b" stroke="none" /><path d="M 101.98527174616119 120.90594882070398 l 4.071074243527512 42.87053898039105 a64.06340392915476,64.06340392915476 0 0,0 -1.0987047119001871,0.09480086565107126 l -3.3325252138857833 -42.93426409832079" fill="#31ff41" stroke="none" /><line stroke="#e1ed5e" stroke-width="0.3" x1="102.19456741930631" x2="102.32365962044197" y1="184.97166512339345" y2="189.96999836594603" /><path d="M 102.22038585953345 185.97133177190398 a86.0,86.0 0 0,1 -42.740103519485714,-10.115201625700543" fill="none" id="id91" stroke="none" /><text fill="#e1ed5e" style="font-size:6.75px; font-family:Arial;" text-anchor="middle"><textPath startOffset="22.20632615414155" xlink:href="#id91">July</textPath></text><path d="M 99.45781275523022 120.99299961872073 l -1.0990551037645757 42.55441933917071 a63.56860964860253,63.56860964860253 0 0,0 -1.093621187541858,-0.037666524934786706 l 1.8313966429810766 -42.52919601580982" fill="#30ff3a" stroke="none" /><path d="M 96.58105272829116 120.7198165907248 l -5.425655756608586 32.88105467188193 a54.32568824082269,54.32568824082269 0 0,0 -0.9213404639265602,-0.16018684946173334 l 5.990845192007196 -32.78278924389919" fill="#91ff24" stroke="none" /><path d="M 94.46302465271185 120.25689768951611 l -11.161414950971755 40.8337813609384 a63.331724320427774,63.331724320427774 0 0,0 -1.049101569584182,-0.29648658275682704 l 11.862647688660552 -40.63560598484305" fill="#30ff37" stroke="none" /><path d="M 92.06813273071674 119.44442032107085 l -16.510810723628527 40.47510285442374 a64.71316531467,64.71316531467 0 0,0 -1.0277946466048253,-0.4296182456374324 l 17.205076829730817 -40.18489956576634" fill="#32ff4a" stroke="none" /><line stroke="#e1ed5e" stroke-width="0.3" x1="58.666819895761336" x2="56.23545636021788" y1="174.27360380694188" y2="178.64263932499728" /><path d="M 58.180547188652646 175.14741091055294 a86.0,86.0 0 0,1 -31.652253787137756,-30.449443065178592" fill="none" id="id92" stroke="none" /><text fill="#e1ed5e" style="font-size:6.75px; font-family:Arial;" text-anchor="middle"><textPath startOffset="22.20632615414155" xlink:href="#id92">August</textPath></text><path d="M 89.7882731507175 118.34994917583269 l -20.85354087808689 37.47274294512987 a63.88445675283554,63.88445675283554 0 0,0 -0.9562932264201267,-0.5430082516814675 l 21.495482871428223 -37.10823152765377" fill="#31ff3f" stroke="none" /><path d="M 86.79598089348748 116.32954008644616 l -26.640547519837682 32.94662671576244 a63.36978857752917,63.36978857752917 0 0,0 -0.8423048066569507,-0.6931595120593774 l 27.20372245503932 -32.48317208484589" fill="#30ff38" stroke="none" /><path d="M 83.72743513129214 113.27417163493432 l -33.07864515290903 26.983552792908277 a63.688510005383655,63.688510005383655 0 0,0 -0.6856586342920008,-0.8554645711138693 l 33.5382216992559 -26.41016038821615" fill="#31ff3c" stroke="none" /><line stroke="#e1ed5e" stroke-width="0.3" x1="26.63291911575756" x2="22.317208475507996" y1="142.92168965132927" y2="145.44649492493687" /><path d="M 25.769776987707644 143.4266507060508 a86.0,86.0 0 0,1 -11.730757126820373,-40.83630448921669" fill="none" id="id93" stroke="none" /><text fill="#e1ed5e" style="font-size:6.75px; font-family:Arial;" text-anchor="middle"><textPath startOffset="21.46611528233685" xlink:href="#id93">September</textPath></text><path d="M 81.18737489456691 109.33194174019688 l -38.64332929094191 19.16889831000604 a64.13645281090601,64.13645281090601 0 0,0 -0.48208239088025084,-0.9932325133008566 l 38.96756493843687 -18.5008768407399" fill="#31ff42" stroke="none" /><path d="M 81.02952815118164 109.00673069616217 l -39.24342843962309 18.63185029695572 a64.44182916480368,64.44182916480368 0 0,0 -0.46712772076927006,-1.0061515529040546 l 39.558330777232186 -17.95357867677284" fill="#32ff46" stroke="none" /><path d="M 80.0844068197444 106.66101706037122 l -52.7365484784345 17.63839248675785 a76.60806088091175,76.60806088091175 0 0,0 -0.4075101921436562,-1.2541874095916603 l 53.03235092159441 -16.728006177188387" fill="#43ffdc" stroke="none" /><line stroke="#e1ed5e" stroke-width="0.3" x1="15.007084014347285" x2="10.007500721073583" y1="101.09737516637583" y2="101.16192664675087" /><path d="M 14.007167355692545 101.11028546245083 a86.0,86.0 0 0,1 10.666146001902534,-42.60595125391555" fill="none" id="id94" stroke="none" /><text fill="#e1ed5e" style="font-size:6.75px; font-family:Arial;" text-anchor="middle"><textPath startOffset="22.20632615414155" xlink:href="#id94">October</textPath></text><path d="M 79.00019446554 99.90962569577889 l -12.17773942576803 -0.05240785329101814 a33.177852195892,33.177852195892 0 0,0 0.007373371430843496,-0.5710757430592243 l 12.17503304721947 0.26201985441071435" fill="#ff4506" stroke="none" /><path d="M 79.03285615573316 98.82574320788736 l -7.844301802520232 -0.4393170924665314 a28.856594063381117,28.856594063381117 0 0,0 0.03204374853255271,-0.49570260689976614 l 7.835577462983267 0.5742787636193093" fill="#ff0000" stroke="none" /><path d="M 79.32604984820605 96.31383870115002 l -42.68443326162284 -7.61062616467062 a64.35761148269475,64.35761148269475 0 0,0 0.20384285422199136,-1.0889366781879954 l 42.54710468349099 8.34424092032119" fill="#32ff45" stroke="none" /><path d="M 79.81627453868168 94.20196356495316 l -41.18587716992036 -11.831176404881852 a63.851525216486756,63.851525216486756 0 0,0 0.3125504882227608,-1.0537648691165062 l 40.976120784585895 12.538370660744897" fill="#31ff3e" stroke="none" /><line stroke="#e1ed5e" stroke-width="0.3" x1="26.266209847984243" x2="21.928928074336255" y1="57.711370442889674" y2="55.22380399835377" /><path d="M 25.398753493254645 57.213857153982495 a86.0,86.0 0 0,1 29.58750427330803,-30.492523968695096" fill="none" id="id95" stroke="none" /><text fill="#e1ed5e" style="font-size:6.75px; font-family:Arial;" text-anchor="middle"><textPath startOffset="21.46611528233685" xlink:href="#id95">November</textPath></text><line stroke="#e1ed5e" stroke-width="0.3" x1="56.762969772571076" x2="54.21961505331055" y1="26.818313649435495" y2="22.513508569990535" /><path d="M 56.25429882871897 25.957352633546506 a86.0,86.0 0 0,1 42.265352541879196,-11.944610805530505" fill="none" id="id96" stroke="none" /><text fill="#e1ed5e" style="font-size:6.75px; font-family:Arial;" text-anchor="middle"><textPath startOffset="22.20632615414155" xlink:href="#id96">December</textPath></text></svg>