<?xml version="1.0" encoding="utf-8" ?>
<svg baseProfile="full" height="200mm" version="1.1" viewBox="0,0,200,200" width="200mm" xmlns="http://www.w3.org/2000/svg" xmlns:ev="http://www.w3.org/2001/xml-events" xmlns:xlink="http://www.w3.org/1999/xlink"><defs /><rect fill="#1a1a1a" height="200" width="200" x="0" y="0" /><text alignment-baseline="middle" fill="#e1ed5e" style="dominant-baseline: central; font-size:9.0px; font-family:Arial;" text-anchor="middle" x="100.0" y="100.0">2023</text><line stroke="#e1ed5e" stroke-width="0.3" x1="100.0" x2="100.0" y1="15.0" y2="10.0" /><path d="M 100.0 14.0 a86.0,86.0 0 0,1 42.46469731375804,11.215312516191453" fill="none" id="id61" stroke="none" /><text fill="#e1ed5e" style="font-size:6.75px; font-family:Arial;" text-anchor="middle"><textPath startOffset="22.20632615414155" xlink:href="#id61">January</textPath></text><path d="M 102.52436894288641 79.15227682838746 l 6.30740803315475 -52.09028457435451 a73.47076465169857,73.47076465169857 0 0,0 1.2541993815666812,0.16283107549062492 l -7.203122143229278 51.97399517569975" fill="#3cffa6" stroke="none" /><path d="M 110.36928655335952 81.73862282372117 l 7.288644415894475 -12.836050397247874 a35.76104763294384,35.76104763294384 0 0,0 0.5326748833356129,0.3085596742126588 l -7.508516031695416 12.708686565645166" fill="#ff0100" stroke="none" /><line stroke="#e1ed5e" stroke-width="0.3" x1="143.23703022742887" x2="145.7803849466894" y1="26.81831364943548" y2="22.513508569990506" /><path d="M 143.74570117128098 25.957352633546492 a86.0,86.0 0 0,1 28.547481713284135,27.462654790039103" fill="none" id="id62" stroke="none" /><text fill="#e1ed5e" style="font-size:6.75px; font-family:Arial;" text-anchor="middle"><textPath startOffset="19.985693538727396" xlink:href="#id62">February</textPath></text><path d="M 110.68208982089419 81.91981866633111 l 7.538594222107041 -12.759595998719496 a35.820178571667896,35.820178571667896 0 0,0 0.5281564800307859,0.3182083696353584 l -7.757112768355465 12.627941019625522" fill="#ff0200" stroke="none" /><path d="M 110.99172775467656 82.1063720568725 l 7.707921888612593 -12.547862316808345 a35.726198034880966,35.726198034880966 0 0,0 0.5212296588782482,0.32639396457185826 l -7.922770699863105 12.413324010913543" fill="#ff0000" stroke="none" /><path d="M 111.2981086023043 82.29822771554956 l 8.058711127224218 -12.626314217867872 a35.978872980313966,35.978872980313966 0 0,0 0.5191802327692449,0.3376892653308367 l -8.274858385777742 12.485726028377508" fill="#ff0500" stroke="none" /><path d="M 112.48926042617603 83.11751280151076 l 9.010284145805416 -12.17974496131838 a36.15029398100621,36.15029398100621 0 0,0 0.4970731633228914,0.37438520120740326 l -9.21860346288669 12.02284317060513" fill="#ff0801" stroke="none" /><path d="M 112.77801427241765 83.33499621200491 l 9.44516520009516 -12.31832352680914 a36.52263637943723,36.52263637943723 0 0,0 0.4956077318042601,0.38682969587280497 l -9.65580548705885 12.15391544171311" fill="#ff0f01" stroke="none" /><path d="M 113.06298171725822 83.55741782278167 l 9.716173816569809 -12.22990201509811 a36.61968427762538,36.61968427762538 0 0,0 0.4901747045753253,0.39635385506746973 l -9.925251919709625 12.06084206276651" fill="#ff1101" stroke="none" /><path d="M 113.34407831869373 83.78471172551755 l 10.202798242045679 -12.398107291485738 a37.056467742909156,37.056467742909156 0 0,0 0.4890438448507076,0.4095601559144039 l -10.414699623855505 12.220645978177515" fill="#ff1902" stroke="none" /><path d="M 114.16331599549186 84.49514656593476 l 10.4732427018312 -11.465259486053494 a36.528714942776176,36.528714942776176 0 0,0 0.46059598723583356,0.4280737725716175 l -10.66904657286188 11.283281127407236" fill="#ff0f01" stroke="none" /><path d="M 114.42810811169701 84.74124197986012 l 10.589057980267828 -11.198687460010559 a36.41229216360991,36.41229216360991 0 0,0 0.45171486890955315,0.4345493459977685 l -10.7802560927898 11.014755027250489" fill="#ff0d01" stroke="none" /><path d="M 114.68862486808459 84.99185889309783 l 11.16037714599846 -11.403144713520948 a36.955742771755425,36.955742771755425 0 0,0 0.450797060778523,0.44886119493670584 l -11.355010006944307 11.209347667934123" fill="#ff1702" stroke="none" /><path d="M 114.94478906791727 85.2469230424477 l 11.57713820049132 -11.42862639572 a37.26787110245908,37.26787110245908 0 0,0 0.4467454748664363,0.4604104818857676 l -11.772147939060865 11.227651718284118" fill="#ff1d02" stroke="none" /><path d="M 115.19652480421416 85.50635884689758 l 11.630042279436575 -11.092118860413335 a37.071496017328926,37.071496017328926 0 0,0 0.4364421542345499,0.46556606008823936 l -11.819251755641588 10.890283383447041" fill="#ff1902" stroke="none" /><path d="M 116.82858285166822 87.43820079747576 l 42.26575859577837 -31.549535531442555 a73.7424643141214,73.7424643141214 0 0,0 0.7505486509194021,1.0237475163705254 l -42.8025698592114 30.817325571400534" fill="#3dffaa" stroke="none" /><line stroke="#e1ed5e" stroke-width="0.3" x1="172.23445277983987" x2="176.4835382374775" y1="55.19839476539836" y2="52.563006222186495" /><path d="M 173.08426987136738 54.67131705675599 a86.0,86.0 0 0,1 12.851231095245387,41.99856678651699" fill="none" id="id63" stroke="none" /><text fill="#e1ed5e" style="font-size:6.75px; font-family:Arial;" text-anchor="middle"><textPath startOffset="22.20632615414155" xlink:href="#id63">March</textPath></text><path d="M 118.56541770881063 90.18545643968196 l 46.62962762472988 -24.650590614351422 a73.7444195157869,73.7444195157869 0 0,0 0.5836012800288954,1.1273319164592461 l -47.04703833791889 23.84428597563183" fill="#3dffaa" stroke="none" /><path d="M 120.18372546131832 94.20196356495316 l 50.46496549500017 -14.496714652314816 a73.50588041469447,73.50588041469447 0 0,0 0.3388734126337759,1.2191079657464918 l -50.70702567820031 13.625895383149372" fill="#3cffa7" stroke="none" /><path d="M 120.98425023603335 99.18683210126433 l 52.33589225680051 -2.0280861625372757 a73.37517304790607,73.37517304790607 0 0,0 0.03804434778645327,1.2625066885745277 l -52.36304829904261 1.1269093265377488" fill="#3cffa5" stroke="none" /><line stroke="#e1ed5e" stroke-width="0.3" x1="184.98032266829074" x2="189.97916517819016" y1="98.17113171792111" y2="98.06355123074" /><path d="M 185.9800911702706 98.14961562048488 a86.0,86.0 0 0,1 -9.607161424134198,41.387399972396054" fill="none" id="id64" stroke="none" /><text fill="#e1ed5e" style="font-size:6.75px; font-family:Arial;" text-anchor="middle"><textPath startOffset="21.466115282336823" xlink:href="#id64">April</textPath></text><path d="M 120.92983693683757 101.71520430193887 l 52.14391051405681 4.2732038430844765 a73.31871247252283,73.31871247252283 0 0,0 -0.11390726642195663,1.2569571932268702 l -52.06262865135778 -5.170142424859917" fill="#3cffa4" stroke="none" /><path d="M 120.5718875245553 104.21870165774334 l 51.686228914387236 10.599356978952791 a73.76184822158635,73.76184822158635 0 0,0 -0.26577434053085996,1.241609238126324 l -51.496120535131936 -11.487480036495285" fill="#3dffaa" stroke="none" /><line stroke="#e1ed5e" stroke-width="0.3" x1="174.80103733775053" x2="179.2010983576182" y1="140.37084112569926" y2="142.7455964860345" /><path d="M 175.68104954172406 140.8457921977663 a86.0,86.0 0 0,1 -30.038265399797805,32.042727171017184" fill="none" id="id65" stroke="none" /><text fill="#e1ed5e" style="font-size:6.75px; font-family:Arial;" text-anchor="middle"><textPath startOffset="22.206326154141568" xlink:href="#id65">May</textPath></text><path d="M 116.0416608686014 113.55231037782055 l 39.434620147518054 33.315142131988914 a72.62352139726289,72.62352139726289 0 0,0 -0.8149655618386583,0.9479890645010737 l -38.85531207610862 -33.989008295651516" fill="#3bff9a" stroke="none" /><path d="M 114.29624159901734 115.38237550388516 l 42.88872479705202 46.14712651165547 a84.0,84.0 0 0,0 -1.0676018021325442,0.9752289336536681 l -42.088023445452606 -46.878548211895726" fill="#4dd2ff" stroke="none" /><line stroke="#e1ed5e" stroke-width="0.3" x1="143.8653032363475" x2="146.44561519142675" y1="172.8068346515853" y2="177.08958963109032" /><path d="M 144.38136562736335 173.6633856474863 a86.0,86.0 0 0,1 -40.68145358897372,12.25698825130547" fill="none" id="id66" stroke="none" /><text fill="#e1ed5e" style="font-size:6.75px; font-family:Arial;" text-anchor="middle"><textPath startOffset="21.466115282336833" xlink:href="#id66">June</textPath></text><path d="M 106.57524785965236 119.94407469862006 l 15.89981734865681 48.2274055160549 a71.78077229159331,71.78077229159331 0 0,0 -1.1767898920420592,0.3767709616319115 l -15.067306111523813 -48.49394932434652" fill="#3aff8e" stroke="none" /><path d="M 105.88484417918355 120.15858648285463 l 15.31567626545796 52.463986324863484 a75.65381780410016,75.65381780410016 0 0,0 -1.2532192965685383,0.3541722912794723 l -14.410325800784817 -52.719847409481474" fill="#40ffc4" stroke="none" /><line stroke="#e1ed5e" stroke-width="0.3" x1="102.19456741930631" x2="102.32365962044197" y1="184.97166512339345" y2="189.96999836594603" /><path d="M 102.22038585953345 185.97133177190398 a86.0,86.0 0 0,1 -42.740103519485714,-10.115201625700543" fill="none" id="id67" stroke="none" /><text fill="#e1ed5e" style="font-size:6.75px; font-family:Arial;" text-anchor="middle"><textPath startOffset="22.20632615414155" xlink:href="#id67">July</textPath></text><line stroke="#e1ed5e" stroke-width="0.3" x1="58.666819895761336" x2="56.23545636021788" y1="174.27360380694188" y2="178.64263932499728" /><path d="M 58.180547188652646 175.14741091055294 a86.0,86.0 0 0,1 -31.652253787137756,-30.449443065178592" fill="none" id="id68" stroke="none" /><text fill="#e1ed5e" style="font-size:6.75px; font-family:Arial;" text-anchor="middle"><textPath startOffset="22.20632615414155" xlink:href="#id68">August</textPath></text><line stroke="#e1ed5e" stroke-width="0.3" x1="26.63291911575756" x2="22.317208475507996" y1="142.92168965132927" y2="145.44649492493687" /><path d="M 25.769776987707644 143.4266507060508 a86.0,86.0 0 0,1 -11.730757126820373,-40.83630448921669" fill="none" id="id69" stroke="none" /><text fill="#e1ed5e" style="font-size:6.75px; font-family:Arial;" text-anchor="middle"><textPath startOffset="21.46611528233685" xlink:href="#id69">September</textPath></text><line stroke="#e1ed5e" stroke-width="0.3" x1="15.007084014347285" x2="10.007500721073583" y1="101.09737516637583" y2="101.16192664675087" /><path d="M 14.007167355692545 101.11028546245083 a86.0,86.0 0 0,1 10.666146001902534,-42.60595125391555" fill="none" id="id70" stroke="none" /><text fill="#e1ed5e" style="font-size:6.75px; font-family:Arial;" text-anchor="middle"><textPath startOffset="22.20632615414155" xlink:href="#id70">October</textPath></text><line stroke="#e1ed5e" stroke-width="0.3" x1="26.266209847984243" x2="21.928928074336255" y1="57.711370442889674" y2="55.22380399835377" /><path d="M 25.398753493254645 57.213857153982495 a86.0,86.0 0 0,1 29.58750427330803,-30.492523968695096" fill="none" id="id71" stroke="none" /><text fill="#e1ed5e" style="font-size:6.75px; font-family:Arial;" text-anchor="middle"><textPath startOffset="21.46611528233685" xlink:href="#id71">November</textPath></text><line stroke="#e1ed5e" stroke-width="0.3" x1="56.762969772571076" x2="54.21961505331055" y1="26.818313649435495" y2="22.513508569990535" /><path d="M 56.25429882871897 25.957352633546506 a86.0,86.0 0 0,1 42.265352541879196,-11.944610805530505" fill="none" id="id72" stroke="none" /><text fill="#e1ed5e" style="font-size:6.75px; font-family:Arial;" text-anchor="middle"><textPath startOffset="22.20632615414155" xlink:href="#id72">December</textPath></text></svg>