<?xml version="1.0" encoding="utf-8" ?>
<svg baseProfile="full" height="200mm" version="1.1" viewBox="0,0,200,200" width="200mm" xmlns="http://www.w3.org/2000/svg" xmlns:ev="http://www.w3.org/2001/xml-events" xmlns:xlink="http://www.w3.org/1999/xlink"><defs /><rect fill="#1a1a1a" height="200" width="200" x="0" y="0" /><text alignment-baseline="middle" fill="#e1ed5e" style="dominant-baseline: central; font-size:9.0px; font-family:Arial;" text-anchor="middle" x="100.0" y="100.0">2021</text><line stroke="#e1ed5e" stroke-width="0.3" x1="100.0" x2="100.0" y1="15.0" y2="10.0" /><path d="M 100.0 14.0 a86.0,86.0 0 0,1 42.46469731375804,11.215312516191453" fill="none" id="id37" stroke="none" /><text fill="#e1ed5e" style="font-size:6.75px; font-family:Arial;" text-anchor="middle"><textPath startOffset="22.20632615414155" xlink:href="#id37">January</textPath></text><path d="M 100.0 79.0 l 0.0 -49.691153261300386 a70.69115326130039,70.69115326130039 0 0,0 1.216831998153458,0.010473657175679048 l -0.8553515188809298 49.683790980733264" fill="#35ff68" stroke="none" /><line stroke="#e1ed5e" stroke-width="0.3" x1="143.23703022742887" x2="145.7803849466894" y1="26.81831364943548" y2="22.513508569990506" /><path d="M 143.74570117128098 25.957352633546492 a86.0,86.0 0 0,1 28.547481713284135,27.462654790039103" fill="none" id="id38" stroke="none" /><text fill="#e1ed5e" style="font-size:6.75px; font-family:Arial;" text-anchor="middle"><textPath startOffset="19.985693538727396" xlink:href="#id38">February</textPath></text><line stroke="#e1ed5e" stroke-width="0.3" x1="172.23445277983987" x2="176.4835382374775" y1="55.19839476539836" y2="52.563006222186495" /><path d="M 173.08426987136738 54.67131705675599 a86.0,86.0 0 0,1 12.851231095245387,41.99856678651699" fill="none" id="id39" stroke="none" /><text fill="#e1ed5e" style="font-size:6.75px; font-family:Arial;" text-anchor="middle"><textPath startOffset="22.20632615414155" xlink:href="#id39">March</textPath></text><path d="M 117.84615892207809 88.93136811851018 l 42.8627211684763 -26.584526346779857 a71.43758427055343,71.43758427055343 0 0,0 0.6391425472873112,1.0505822965229423 l -43.313979514049834 25.842776277049833" fill="#37ff74" stroke="none" /><path d="M 118.56541770881063 90.18545643968196 l 44.41741120850461 -23.481110092963007 a71.24210335628118,71.24210335628118 0 0,0 0.5637983590307594,1.0890789762340047 l -44.815019000695486 22.713058394468657" fill="#36ff71" stroke="none" /><path d="M 119.61058180528143 92.48833698450437 l 46.79529153635764 -17.924529941193608 a71.11075816214968,71.11075816214968 0 0,0 0.42800350189839614,1.146836595134409 l -47.096899626757654 17.116370209029864" fill="#36ff6f" stroke="none" /><path d="M 120.6074358757038 95.95851677861258 l 25.79248717626537 -5.058363630946729 a47.28382463342613,47.28382463342613 0 0,0 0.14976425553645248,0.8000466416034288 l -25.875737155711683 4.613638911880737" fill="#ff820c" stroke="none" /><path d="M 120.67395015179393 96.31383870115 l 25.88972439652437 -4.616132834202445 a47.298032467676954,47.298032467676954 0 0,0 0.1360114349751935,0.8027471883894756 l -25.96534769301979 4.169799857497132" fill="#ff830c" stroke="none" /><line stroke="#e1ed5e" stroke-width="0.3" x1="184.98032266829074" x2="189.97916517819016" y1="98.17113171792111" y2="98.06355123074" /><path d="M 185.9800911702706 98.14961562048488 a86.0,86.0 0 0,1 -9.607161424134198,41.387399972396054" fill="none" id="id40" stroke="none" /><text fill="#e1ed5e" style="font-size:6.75px; font-family:Arial;" text-anchor="middle"><textPath startOffset="21.466115282336823" xlink:href="#id40">April</textPath></text><path d="M 120.5718875245553 104.21870165774334 l 50.11948503806271 10.278062932384628 a72.16249952966187,72.16249952966187 0 0,0 -0.26001166166470424,1.2146879209582226 l -49.93513933767357 -11.13926467275902" fill="#38ff80" stroke="none" /><path d="M 119.67450827220406 107.3425965602758 l 47.38630757999796 17.684738760796765 a71.57877154601326,71.57877154601326 0 0,0 -0.44074022002709734,1.1506336375699242 l -47.07487308037736 -18.49779596519983" fill="#37ff76" stroke="none" /><line stroke="#e1ed5e" stroke-width="0.3" x1="174.80103733775053" x2="179.2010983576182" y1="140.37084112569926" y2="142.7455964860345" /><path d="M 175.68104954172406 140.8457921977663 a86.0,86.0 0 0,1 -30.038265399797805,32.042727171017184" fill="none" id="id41" stroke="none" /><text fill="#e1ed5e" style="font-size:6.75px; font-family:Arial;" text-anchor="middle"><textPath startOffset="22.206326154141568" xlink:href="#id41">May</textPath></text><path d="M 118.30583269289576 110.29060199501025 l 22.238193531969763 12.501173946286709 a46.51110741619539,46.51110741619539 0 0,0 -0.39832999169261885,0.6945219158510005 l -22.019711544124764 -12.882115707996023" fill="#ff730a" stroke="none" /><path d="M 116.498646956653 112.99209946851258 l 39.633210039704714 31.209747589917143 a71.44640406092083,71.44640406092083 0 0,0 -0.7691786764888354,0.9596686655479826 l -39.090113451161024 -31.887344089043374" fill="#37ff74" stroke="none" /><path d="M 112.04921762599082 117.19931262002967 l 29.106844454878622 41.54773635112829 a71.72891473334873,71.72891473334873 0 0,0 -1.0173315917523882,0.6997299453320138 l -28.38735597850335 -42.0426070858254" fill="#37ff79" stroke="none" /><line stroke="#e1ed5e" stroke-width="0.3" x1="143.8653032363475" x2="146.44561519142675" y1="172.8068346515853" y2="177.08958963109032" /><path d="M 144.38136562736335 173.6633856474863 a86.0,86.0 0 0,1 -40.68145358897372,12.25698825130547" fill="none" id="id42" stroke="none" /><text fill="#e1ed5e" style="font-size:6.75px; font-family:Arial;" text-anchor="middle"><textPath startOffset="21.466115282336833" xlink:href="#id42">June</textPath></text><path d="M 109.57404056367764 118.69057910512821 l 23.05775156492588 45.01367283168237 a71.57559341251056,71.57559341251056 0 0,0 -1.1013987293590637,0.5522641875631914 l -22.279498927884056 -45.40390486015486" fill="#37ff76" stroke="none" /><path d="M 104.13013068566511 120.58985236759428 l 10.180909189630425 50.75466931589771 a72.76569683964111,72.76569683964111 0 0,0 -1.2301989964919036,0.23577056557596188 l -9.305742578566818 -50.92239707982213" fill="#39ff8a" stroke="none" /><line stroke="#e1ed5e" stroke-width="0.3" x1="102.19456741930631" x2="102.32365962044197" y1="184.97166512339345" y2="189.96999836594603" /><path d="M 102.22038585953345 185.97133177190398 a86.0,86.0 0 0,1 -42.740103519485714,-10.115201625700543" fill="none" id="id43" stroke="none" /><text fill="#e1ed5e" style="font-size:6.75px; font-family:Arial;" text-anchor="middle"><textPath startOffset="22.20632615414155" xlink:href="#id43">July</textPath></text><path d="M 99.81925306533755 120.99922214144158 l -0.2427394005189895 28.20152166617981 a49.20256631415967,49.20256631415967 0 0,0 -0.8468471822222114,-0.014579242229214862 l 0.7281462726338689 -28.193164946671438" fill="#ffa70f" stroke="none" /><path d="M 92.40401165467489 119.57807347666478 l -7.164055844823216 18.46480080596747 a40.805871981606934,40.805871981606934 0 0,0 -0.6526586843978965,-0.2597063598620876 l 7.48083560526297 -18.338747601699314" fill="#ff0000" stroke="none" /><line stroke="#e1ed5e" stroke-width="0.3" x1="58.666819895761336" x2="56.23545636021788" y1="174.27360380694188" y2="178.64263932499728" /><path d="M 58.180547188652646 175.14741091055294 a86.0,86.0 0 0,1 -31.652253787137756,-30.449443065178592" fill="none" id="id44" stroke="none" /><text fill="#e1ed5e" style="font-size:6.75px; font-family:Arial;" text-anchor="middle"><textPath startOffset="22.20632615414155" xlink:href="#id44">August</textPath></text><path d="M 85.97065885151581 115.62618273729859 l -42.08802344545257 46.878548211895755 a84.0,84.0 0 0,0 -1.0676018021325815,-0.9752289336536961 l 42.888724797052014 -46.14712651165548" fill="#4dd2ff" stroke="none" /><path d="M 84.43433777217949 114.09645910891817 l -39.52207977901829 35.79169156764753 a74.32016480969182,74.32016480969182 0 0,0 -0.8505806621279247,-0.9556363908444211 l 40.132319290794555 -35.10608100706225" fill="#3cffa2" stroke="none" /><path d="M 82.6465618267979 111.8261652097733 l -43.88270509323026 29.905550422031475 a74.10398998516104,74.10398998516104 0 0,0 -0.709270088747224,-1.0602625476477348 l 44.39097828738821 -29.14575096017792" fill="#3bff9f" stroke="none" /><line stroke="#e1ed5e" stroke-width="0.3" x1="26.63291911575756" x2="22.317208475507996" y1="142.92168965132927" y2="145.44649492493687" /><path d="M 25.769776987707644 143.4266507060508 a86.0,86.0 0 0,1 -11.730757126820373,-40.83630448921669" fill="none" id="id45" stroke="none" /><text fill="#e1ed5e" style="font-size:6.75px; font-family:Arial;" text-anchor="middle"><textPath startOffset="21.46611528233685" xlink:href="#id45">September</textPath></text><path d="M 81.51974371655577 109.97397251340807 l -46.80768351793765 25.262558141169013 a74.18981180782046,74.18981180782046 0 0,0 -0.5968658390570951,-1.1290452327316876 l 47.235601865219635 -24.4530978933512" fill="#3cffa0" stroke="none" /><path d="M 80.32549172779594 107.34259656027581 l -47.49722947933356 17.726135208690327 a71.69716636705886,71.69716636705886 0 0,0 -0.4215647905239982,-1.159965248648913 l 47.79531853086278 -16.905922163035296" fill="#37ff78" stroke="none" /><path d="M 79.58551787078972 104.9243191809786 l -51.94315284893515 12.529569071385966 a74.43296013700225,74.43296013700225 0 0,0 -0.2897194303672434,-1.2481037233601264 l 52.15113284523295 -11.633596690677265" fill="#3cffa4" stroke="none" /><line stroke="#e1ed5e" stroke-width="0.3" x1="15.007084014347285" x2="10.007500721073583" y1="101.09737516637583" y2="101.16192664675087" /><path d="M 14.007167355692545 101.11028546245083 a86.0,86.0 0 0,1 10.666146001902534,-42.60595125391555" fill="none" id="id46" stroke="none" /><text fill="#e1ed5e" style="font-size:6.75px; font-family:Arial;" text-anchor="middle"><textPath startOffset="22.20632615414155" xlink:href="#id46">October</textPath></text><path d="M 79.00175016825051 100.2711162175752 l -53.219627155431624 0.6871384106177724 a74.22406292043573,74.22406292043573 0 0,0 -0.005498598850924798,-1.277680725473883 l 53.223570051572054 0.2290517930597859" fill="#3cffa1" stroke="none" /><path d="M 80.38941819471856 92.48833698450439 l -49.504318429058685 -18.962199160798512 a74.01172078078042,74.01172078078042 0 0,0 0.4659441367416406,-1.1857770050509753 l 49.17058074243535 19.81152517074525" fill="#3bff9d" stroke="none" /><path d="M 81.6062741919709 89.86733742301443 l -46.310024063459444 -25.511082021364345 a73.87186051822815,73.87186051822815 0 0,0 0.623135029253119,-1.1084876857662485 l 45.864031392913894 26.30445321706538" fill="#3bff9b" stroke="none" /><line stroke="#e1ed5e" stroke-width="0.3" x1="26.266209847984243" x2="21.928928074336255" y1="57.711370442889674" y2="55.22380399835377" /><path d="M 25.398753493254645 57.213857153982495 a86.0,86.0 0 0,1 29.58750427330803,-30.492523968695096" fill="none" id="id47" stroke="none" /><text fill="#e1ed5e" style="font-size:6.75px; font-family:Arial;" text-anchor="middle"><textPath startOffset="21.46611528233685" xlink:href="#id47">November</textPath></text><path d="M 82.54541684631803 88.32363383020206 l -43.94010826481872 -29.394044482371964 a73.86532857512239,73.86532857512239 0 0,0 0.7160558920587905,-1.0507236649400382 l 43.427627907091185 30.14604617058242" fill="#3bff9b" stroke="none" /><path d="M 85.83668400450813 84.49514656593479 l -35.66241009022545 -39.04032373001301 a73.87678479623767,73.87678479623767 0 0,0 0.9462877800916633,-0.8495865122490511 l 34.98511132253782 39.64840925103134" fill="#3bff9b" stroke="none" /><path d="M 88.09926311788651 82.69761687909137 l -30.367651033601117 -44.15127717470469 a74.58665417299511,74.58665417299511 0 0,0 1.0640862595310583,-0.7184757924140927 l 29.60316007966352 44.667464879417444" fill="#3cffa6" stroke="none" /><line stroke="#e1ed5e" stroke-width="0.3" x1="56.762969772571076" x2="54.21961505331055" y1="26.818313649435495" y2="22.513508569990535" /><path d="M 56.25429882871897 25.957352633546506 a86.0,86.0 0 0,1 42.265352541879196,-11.944610805530505" fill="none" id="id48" stroke="none" /><text fill="#e1ed5e" style="font-size:6.75px; font-family:Arial;" text-anchor="middle"><textPath startOffset="22.20632615414155" xlink:href="#id48">December</textPath></text><path d="M 89.94658935756843 81.56283822128135 l -25.330316532172528 -46.45380164207245 a73.91106332914758,73.91106332914758 0 0,0 1.1222337456599443,-0.5994584015157267 l 24.526937739984277 46.88293877008993" fill="#3bff9c" stroke="none" /><path d="M 92.23578459929587 80.48803036053334 l -19.442532723654786 -48.860327623559336 a73.58653529366565,73.58653529366565 0 0,0 1.1809476773005148,-0.4581893516696297 l 18.598601881354593 49.18775967911952" fill="#3aff97" stroke="none" /></svg>