<?xml version="1.0" encoding="utf-8" ?>
<svg baseProfile="full" height="200mm" version="1.1" viewBox="0,0,200,200" width="200mm" xmlns="http://www.w3.org/2000/svg" xmlns:ev="http://www.w3.org/2001/xml-events" xmlns:xlink="http://www.w3.org/1999/xlink"><defs /><rect fill="#1a1a1a" height="200" width="200" x="0" y="0" /><rect fill="#1a1a1a" height="200" width="180" x="10" y="0" /><text alignment-baseline="middle" fill="#e1ed5e" style="dominant-baseline: central; font-size:9.0px; font-family:Arial;" text-anchor="middle" x="100.0" y="100.0">2025</text><line stroke="#e1ed5e" stroke-width="0.3" x1="100.0" x2="100.0" y1="15.0" y2="10.0" /><path d="M 100.0 14.0 a86.0,86.0 0 0,1 42.46469731375804,11.215312516191453" fill="none" id="id85" stroke="none" /><text fill="#e1ed5e" style="font-size:6.75px; font-family:Arial;" text-anchor="middle"><textPath startOffset="22.20632615414155" xlink:href="#id85">January</textPath></text><path d="M 101.08401301168833 79.027996857942 l 1.7778894531571325 -34.39617679475184 a55.442094434042076,55.442094434042076 0 0,0 0.9526481792200238,0.05746633973988268 l -2.369699681216768 34.36047718563165" fill="red" stroke="none" /><path d="M 106.0581310904928 79.89281104454417 l 12.49071043588722 -41.45718723657376 a64.29799326483291,64.29799326483291 0 0,0 1.0569813228746687,0.32840924213859896 l -13.202477131472607 41.23603785955264" fill="red" stroke="none" /><path d="M 109.08828744355905 81.06846463323043 l 13.55723535901228 -28.2406649513112 a52.32624758045351,52.32624758045351 0 0,0 0.808636706161097,0.3967945198425931 l -14.041343332183809 28.003115271333773" fill="red" stroke="none" /><line stroke="#e1ed5e" stroke-width="0.3" x1="143.23703022742887" x2="145.7803849466894" y1="26.81831364943548" y2="22.513508569990506" /><path d="M 143.74570117128098 25.957352633546492 a86.0,86.0 0 0,1 28.547481713284135,27.462654790039103" fill="none" id="id86" stroke="none" /><text fill="#e1ed5e" style="font-size:6.75px; font-family:Arial;" text-anchor="middle"><textPath startOffset="19.985693538727396" xlink:href="#id86">February</textPath></text><path d="M 111.90073688211348 82.69761687909136 l 25.064907980139203 -36.44166281959428 a65.22945173874356,65.22945173874356 0 0,0 0.9196385448510974,0.6442655708958939 l -25.688477664573952 36.004812405934445" fill="red" stroke="none" /><path d="M 114.94478906791727 85.2469230424477 l 35.82706556787107 -35.36747511684586 a71.34319142987702,71.34319142987702 0 0,0 0.8552205154461968,0.8813799171729684 l -36.43055034702037 34.745531004122775" fill="red" stroke="none" /><path d="M 116.60985879189232 87.15038557335679 l 35.930866239340055 -27.796610613943177 a66.42773063154846,66.42773063154846 0 0,0 0.6918734726395853,0.910424389496831 l -36.40401565220376 27.174001448565313" fill="red" stroke="none" /><line stroke="#e1ed5e" stroke-width="0.3" x1="172.23445277983987" x2="176.4835382374775" y1="55.19839476539836" y2="52.563006222186495" /><path d="M 173.08426987136738 54.67131705675599 a86.0,86.0 0 0,1 12.851231095245387,41.99856678651699" fill="none" id="id87" stroke="none" /><text fill="#e1ed5e" style="font-size:6.75px; font-family:Arial;" text-anchor="middle"><textPath startOffset="22.20632615414155" xlink:href="#id87">March</textPath></text><path d="M 119.196687751892 91.48605970444005 l 16.1933935699824 -7.181946584704237 a38.71458021116764,38.71458021116764 0 0,0 0.2649354686135953,0.6115075891911851 l -16.314619748438677 6.902139850926449" fill="red" stroke="none" /><path d="M 120.67395015179393 96.31383870115 l 27.908084167238616 -4.976005989518001 a49.348223886046085,49.348223886046085 0 0,0 0.14190701798864708,0.8375432530646979 l -27.989603046747487 4.494876948137465" fill="red" stroke="none" /><line stroke="#e1ed5e" stroke-width="0.3" x1="184.98032266829074" x2="189.97916517819016" y1="98.17113171792111" y2="98.06355123074" /><path d="M 185.9800911702706 98.14961562048488 a86.0,86.0 0 0,1 -9.607161424134198,41.387399972396054" fill="none" id="id88" stroke="none" /><text fill="#e1ed5e" style="font-size:6.75px; font-family:Arial;" text-anchor="middle"><textPath startOffset="21.466115282336823" xlink:href="#id88">April</textPath></text><path d="M 120.99980553446 99.90962569577887 l 45.506003210530324 -0.19583864104301302 a66.50642461202727,66.50642461202727 0 0,0 -0.0049268678587806826,1.1448305778956689 l -45.502632045382036 -0.5875014150563405" fill="red" stroke="none" /><path d="M 120.99824983174949 100.27111621757518 l 2.3910542601737057 0.03087179132687354 a23.391253550461464,23.391253550461464 0 0,0 -0.008663604944504098,0.40256367878916227 l -2.3901685925441942 -0.07202528590615066" fill="red" stroke="none" /><path d="M 120.9904718944345 100.63252640178507 l 33.16345884871836 0.9993469132958818 a54.17851258064096,54.17851258064096 0 0,0 -0.036113505782058505,0.9319291174793062 l -33.141343210085104 -1.5700532777891942" fill="red" stroke="none" /><path d="M 120.95626037817324 101.35467743843564 l 55.41242522656175 3.5820304247416823 a76.5280812873367,76.5280812873367 0 0,0 -0.09629215554413043,1.313829957925891 l -55.34255651235328 -4.535333519164344" fill="red" stroke="none" /><path d="M 120.13307415673323 105.97154293290107 l 49.76023251700819 14.759065730013143 a72.90289742749982,72.90289742749982 0 0,0 -0.3671987978362387,1.2000269173090814 l -49.49880694666582 -15.613419619874282" fill="red" stroke="none" /><path d="M 119.26925614724726 108.34839909993367 l 39.94575564398306 17.30648593365856 a64.53364043289656,64.53364043289656 0 0,0 -0.4503800161993995,1.015488039677782 l -39.64193454305239 -17.99152230982903" fill="red" stroke="none" /><line stroke="#e1ed5e" stroke-width="0.3" x1="174.80103733775053" x2="179.2010983576182" y1="140.37084112569926" y2="142.7455964860345" /><path d="M 175.68104954172406 140.8457921977663 a86.0,86.0 0 0,1 -30.038265399797805,32.042727171017184" fill="none" id="id89" stroke="none" /><text fill="#e1ed5e" style="font-size:6.75px; font-family:Arial;" text-anchor="middle"><textPath startOffset="22.206326154141568" xlink:href="#id89">May</textPath></text><path d="M 118.48025628344425 109.97397251340804 l 21.767481209800366 11.748119503471061 a45.735431067334346,45.735431067334346 0 0,0 -0.37987324295463976,0.6895802776049046 l -21.562031557394217 -12.121070299473772" fill="red" stroke="none" /><path d="M 118.30583269289576 110.29060199501025 l 45.91304718528795 25.809964664720432 a73.67031590784885,73.67031590784885 0 0,0 -0.6309266313738197,1.1000737627642792 l -45.46196855776176 -26.59645827334303" fill="red" stroke="none" /><path d="M 118.12598468904814 110.60418214915192 l 50.86516102733324 29.757469281417034 a79.93022640692142,79.93022640692142 0 0,0 -0.7049812638253533,1.1815891486178245 l -50.34539888780966 -30.628620523920965" fill="red" stroke="none" /><path d="M 117.94076556474637 110.91462005526583 l 53.8222966942391 32.74386016579747 a84.0,84.0 0 0,0 -0.7621414413281484,1.228814674538906 l -53.25069061324299 -33.665471171701654" fill="red" stroke="none" /><path d="M 115.56566222782051 114.09645910891815 l 20.817938113106457 18.85298608233283 a49.085968587566384,49.085968587566384 0 0,0 -0.572561158215883,0.6214020550412199 l -20.49033054689485 -19.208539392175382" fill="red" stroke="none" /><path d="M 115.07121518719521 114.62390073753431 l 27.40331795689179 26.589986056410144 a59.18336278441952,59.18336278441952 0 0,0 -0.7157223723734599,0.7250229844991848 l -26.941554959462792 -27.057749534889993" fill="red" stroke="none" /><path d="M 113.20401910651253 116.32954008644616 l 24.09756107811285 29.80169041231879 a59.32535976797965,59.32535976797965 0 0,0 -0.7995999321035308,0.6352505452982548 l -23.58100365329197 -30.21207487162217" fill="red" stroke="none" /><path d="M 111.1453310114006 117.79835938074945 l 28.22874699711274 45.07944926973741 a74.18852229090248,74.18852229090248 0 0,0 -1.088171809137311,0.6684440022094621 l -27.44859598804312 -45.55868173877525" fill="red" stroke="none" /><line stroke="#e1ed5e" stroke-width="0.3" x1="143.8653032363475" x2="146.44561519142675" y1="172.8068346515853" y2="177.08958963109032" /><path d="M 144.38136562736335 173.6633856474863 a86.0,86.0 0 0,1 -40.68145358897372,12.25698825130547" fill="none" id="id90" stroke="none" /><text fill="#e1ed5e" style="font-size:6.75px; font-family:Arial;" text-anchor="middle"><textPath startOffset="21.466115282336833" xlink:href="#id90">June</textPath></text><path d="M 109.57404056367764 118.69057910512821 l 20.39044961983265 39.80652777412296 a65.72504990641102,65.72504990641102 0 0,0 -1.011371097362489,0.5071224639371261 l -19.7022246147874 -40.151618078969385" fill="red" stroke="none" /><path d="M 106.91757812671514 119.82793768551818 l 15.09074132478117 43.254774017004294 a66.8116355197407,66.8116355197407 0 0,0 -1.089125953827309,0.3694906566530454 l -14.343945638016635 -43.508127660555466" fill="red" stroke="none" /><path d="M 104.48393922423573 120.51570834832081 l 9.65962026809354 44.19639568364437 a66.2396911478076,66.2396911478076 0 0,0 -1.1160080152559606,0.23387033033957175 l -8.897420791408202 -44.35612199471048" fill="red" stroke="none" /><path d="M 104.13013068566511 120.58985236759428 l 3.322777744309317 16.564972978485617 a37.89494544874401,37.89494544874401 0 0,0 -0.6406634703972724,0.12278467889354805 l -3.0371466593403404 -16.619714855727633" fill="red" stroke="none" /><path d="M 101.98527174616119 120.90594882070398 l 4.310566376811109 45.39251628202217 a66.59672704156014,66.59672704156014 0 0,0 -1.142151888753972,0.09854967088620178 l -3.5285701703155956 -45.45999020518703" fill="red" stroke="none" /><line stroke="#e1ed5e" stroke-width="0.3" x1="102.19456741930631" x2="102.32365962044197" y1="184.97166512339345" y2="189.96999836594603" /><path d="M 102.22038585953345 185.97133177190398 a86.0,86.0 0 0,1 -42.740103519485714,-10.115201625700543" fill="none" id="id91" stroke="none" /><text fill="#e1ed5e" style="font-size:6.75px; font-family:Arial;" text-anchor="middle"><textPath startOffset="22.20632615414155" xlink:href="#id91">July</textPath></text><path d="M 99.45781275523022 120.99299961872073 l -1.1637100414177717 45.05780003393103 a66.07282512732269,66.07282512732269 0 0,0 -1.136703191707712,-0.03915035626746342 l 1.9391335848001265 -45.03109287923747" fill="red" stroke="none" /><path d="M 96.58105272829116 120.7198165907248 l -5.744834870985707 34.81537309913818 a56.28616346001769,56.28616346001769 0 0,0 -0.9545892861036962,-0.16596758338301412 l 6.343273128561453 -34.711326937234155" fill="red" stroke="none" /><path d="M 94.46302465271185 120.25689768951611 l -11.818015866890075 43.23594079679616 a65.82200436854791,65.82200436854791 0 0,0 -1.090353512985703,-0.30814479401662204 l 12.560500547980393 -43.026107209441015" fill="red" stroke="none" /><path d="M 92.06813273071674 119.44442032107085 l -17.482104550738214 42.85616204117043 a67.28471242669656,67.28471242669656 0 0,0 -1.0686367587528127,-0.44669025182768457 l 18.21721276898849 -42.54888674632277" fill="red" stroke="none" /><line stroke="#e1ed5e" stroke-width="0.3" x1="58.666819895761336" x2="56.23545636021788" y1="174.27360380694188" y2="178.64263932499728" /><path d="M 58.180547188652646 175.14741091055294 a86.0,86.0 0 0,1 -31.652253787137756,-30.449443065178592" fill="none" id="id92" stroke="none" /><text fill="#e1ed5e" style="font-size:6.75px; font-family:Arial;" text-anchor="middle"><textPath startOffset="22.20632615414155" xlink:href="#id92">August</textPath></text><path d="M 89.7882731507175 118.34994917583269 l -22.080307744191078 39.67718005707526 a66.40725280568904,66.40725280568904 0 0,0 -0.99405722880207,-0.5644516378138553 l 22.760013739914356 -39.29122525346677" fill="red" stroke="none" /><path d="M 86.79598089348748 116.32954008644616 l -28.207750959448894 34.88480259874986 a65.8623078602075,65.8623078602075 0 0,0 -0.8754351203223738,-0.7204235047057492 l 28.804056208315956 -34.39408397518693" fill="red" stroke="none" /><path d="M 83.72743513129214 113.27417163493432 l -35.02458738336489 28.570934460589353 a66.19977895218355,66.19977895218355 0 0,0 -0.7126944879531585,-0.8891959555087021 l 35.51119978337291 -27.96381067150239" fill="red" stroke="none" /><line stroke="#e1ed5e" stroke-width="0.3" x1="26.63291911575756" x2="22.317208475507996" y1="142.92168965132927" y2="145.44649492493687" /><path d="M 25.769776987707644 143.4266507060508 a86.0,86.0 0 0,1 -11.730757126820373,-40.83630448921669" fill="none" id="id93" stroke="none" /><text fill="#e1ed5e" style="font-size:6.75px; font-family:Arial;" text-anchor="middle"><textPath startOffset="21.46611528233685" xlink:href="#id93">September</textPath></text><path d="M 81.18737489456691 109.33194174019688 l -40.916629362484954 20.29656144615701 a66.67407322458325,66.67407322458325 0 0,0 -0.5011564441301062,-1.032530712543513 l 41.25993906322978 -19.589241777648212" fill="red" stroke="none" /><path d="M 81.02952815118164 109.00673069616217 l -41.55203099318986 19.727920107456683 a66.99741418194293,66.99741418194293 0 0,0 -0.4856527164089091,-1.0460527454508572 l 41.885458326438595 -19.009747294727" fill="red" stroke="none" /><path d="M 80.0844068197444 106.66101706037122 l -55.83892090929699 18.676019410674318 a79.87935792230252,79.87935792230252 0 0,0 -0.4249115839889403,-1.3077433867978272 l 56.15212474430218 -17.712077123898688" fill="red" stroke="none" /><line stroke="#e1ed5e" stroke-width="0.3" x1="15.007084014347285" x2="10.007500721073583" y1="101.09737516637583" y2="101.16192664675087" /><path d="M 14.007167355692545 101.11028546245083 a86.0,86.0 0 0,1 10.666146001902534,-42.60595125391555" fill="none" id="id94" stroke="none" /><text fill="#e1ed5e" style="font-size:6.75px; font-family:Arial;" text-anchor="middle"><textPath startOffset="22.20632615414155" xlink:href="#id94">October</textPath></text><path d="M 79.00019446554 99.90962569577889 l -12.894128422673639 -0.05549088932393612 a33.894247826810144,33.894247826810144 0 0,0 0.0075325815884813374,-0.5834067452240242 l 12.89126283396744 0.2774338926084324" fill="red" stroke="none" /><path d="M 79.03285615573316 98.82574320788736 l -8.30576441912388 -0.46516112806230353 a29.318779806019897,29.318779806019897 0 0,0 0.03255698178800617,-0.5036420981992152 l 8.29652684633146 0.6080622905145305" fill="red" stroke="none" /><path d="M 79.32604984820605 96.31383870115002 l -45.19546238276451 -8.058342169530702 a66.90824216317935,66.90824216317935 0 0,0 0.21192158533083566,-1.1320935828105068 l 45.05005507352381 8.835113829803783" fill="red" stroke="none" /><path d="M 79.81627453868168 94.20196356495316 l -43.608749609611785 -12.527177879422528 a66.37238398118959,66.37238398118959 0 0,0 0.32488998418589027,-1.0953675152121454 l 43.38665372831419 13.275974781381212" fill="red" stroke="none" /><path d="M 80.65960295795068 91.81776055985345 l -28.22124421500642 -11.93941246211175 a51.64291427040618,51.64291427040618 0 0,0 0.35340793102168405,-0.8157142304540309 l 28.011545574142055 12.423425837152381" fill="red" stroke="none" /><line stroke="#e1ed5e" stroke-width="0.3" x1="26.266209847984243" x2="21.928928074336255" y1="57.711370442889674" y2="55.22380399835377" /><path d="M 25.398753493254645 57.213857153982495 a86.0,86.0 0 0,1 29.58750427330803,-30.492523968695096" fill="none" id="id95" stroke="none" /><text fill="#e1ed5e" style="font-size:6.75px; font-family:Arial;" text-anchor="middle"><textPath startOffset="21.46611528233685" xlink:href="#id95">November</textPath></text><path d="M 82.15384107792192 88.93136811851018 l -41.333449366078106 -25.63603391760245 a69.63805373904887,69.63805373904887 0 0,0 0.6405785825488046,-1.013241482312869 l 40.88604318728334 26.343723047629535" fill="red" stroke="none" /><path d="M 83.39014120810768 87.1503855733568 l -36.46412422871035 -28.209146303691465 a67.10193370076672,67.10193370076672 0 0,0 0.714622555068113,-0.9074980738798127 l 35.97314759304826 28.832636771524324" fill="red" stroke="none" /><path d="M 86.93701828274178 83.55741782278169 l -27.736096678326067 -34.91186459414019 a65.58844411267374,65.58844411267374 0 0,0 0.890027206183688,-0.6946803518039806 l 27.131036916982953 35.384123335167395" fill="red" stroke="none" /><line stroke="#e1ed5e" stroke-width="0.3" x1="56.762969772571076" x2="54.21961505331055" y1="26.818313649435495" y2="22.513508569990535" /><path d="M 56.25429882871897 25.957352633546506 a86.0,86.0 0 0,1 42.265352541879196,-11.944610805530505" fill="none" id="id96" stroke="none" /><text fill="#e1ed5e" style="font-size:6.75px; font-family:Arial;" text-anchor="middle"><textPath startOffset="22.20632615414155" xlink:href="#id96">December</textPath></text><path d="M 90.91171255644093 81.06846463323043 l -19.573948976620276 -40.77389823105249 a66.22886529082461,66.22886529082461 0 0,0 1.031977512574329,-0.4845272794613542 l 18.86919325274634 41.10479049315386" fill="red" stroke="none" /><path d="M 98.55514903715128 79.0497635885617 l -3.149803912886736 -45.6719331761002 a66.78041879157287,66.78041879157287 0 0,0 1.1474718806849094,-0.06921863745269001 l 2.3631699833622037 45.719385082933194" fill="red" stroke="none" /></svg>