<?xml version="1.0" encoding="utf-8" ?>
<svg baseProfile="full" height="200mm" version="1.1" viewBox="0,0,200,200" width="200mm" xmlns="http://www.w3.org/2000/svg" xmlns:ev="http://www.w3.org/2001/xml-events" xmlns:xlink="http://www.w3.org/1999/xlink"><defs /><rect fill="#1a1a1a" height="200" width="200" x="0" y="0" /><text alignment-baseline="middle" fill="#e1ed5e" style="dominant-baseline: central; font-size:9.0px; font-family:Arial;" text-anchor="middle" x="100.0" y="100.0">2024</text><line stroke="#e1ed5e" stroke-width="0.3" x1="100.0" x2="100.0" y1="15.0" y2="10.0" /><path d="M 100.0 14.0 a86.0,86.0 0 0,1 42.35913384403234,11.155469271406648" fill="none" id="id73" stroke="none" /><text fill="#e1ed5e" style="font-size:6.75px; font-family:Arial;" text-anchor="middle"><textPath startOffset="22.145653131862478" xlink:href="#id73">January</textPath></text><path d="M 104.64783097203109 79.52079915486377 l 9.423944045601697 -41.523636299291866 a63.57960888606776,63.57960888606776 0 0,0 1.0622876398054792,0.2506969905348092 l -10.135363839147061 41.35574316511082" fill="#7eff26" stroke="none" /><path d="M 109.3889696526874 81.21577127319529 l 19.253221187153283 -38.519339595877085 a64.06304737224193,64.06304737224193 0 0,0 0.9794714573952538,0.5001251051564579 l -19.911619866262114 38.18315653904779" fill="#76ff27" stroke="none" /><line stroke="#e1ed5e" stroke-width="0.3" x1="143.13028292997686" x2="145.6673583964461" y1="26.7553504044142" y2="22.446841604673864" /><path d="M 143.63769802327073 25.89364864446614 a86.0,86.0 0 0,1 29.32050498858742,28.57503671076993" fill="none" id="id74" stroke="none" /><text fill="#e1ed5e" style="font-size:6.75px; font-family:Arial;" text-anchor="middle"><textPath startOffset="20.669276256404974" xlink:href="#id74">February</textPath></text><line stroke="#e1ed5e" stroke-width="0.3" x1="172.87174338648825" x2="177.1583165268699" y1="56.24261187166439" y2="53.66864786411523" /><path d="M 173.72905801456457 55.72781907015455 a86.0,86.0 0 0,1 12.242430191666344,42.057860355516425" fill="none" id="id75" stroke="none" /><text fill="#e1ed5e" style="font-size:6.75px; font-family:Arial;" text-anchor="middle"><textPath startOffset="22.145653131862474" xlink:href="#id75">March</textPath></text><path d="M 118.36410011445183 89.81374322990088 l 39.69662749835279 -22.01905010782333 a66.39450189608664,66.39450189608664 0 0,0 0.5442915362563978,1.0014351218784157 l -40.06876438422453 21.334360152470307" fill="#50ff2b" stroke="none" /><path d="M 119.4528033332814 92.08871423366111 l 41.5949762803067 -16.916314741875556 a65.90327110807712,65.90327110807712 0 0,0 0.4172032469130715,1.0516247195531083 l -41.879238202185896 16.199789005108883" fill="#58ff2a" stroke="none" /><path d="M 120.26092885502905 94.47779374421319 l 40.688849151760785 -11.089926771587646 a63.173082897672074,63.173082897672074 0 0,0 0.2761882638095756,1.0487318236667535 l -40.873226896375094 10.389814443548094" fill="#84ff25" stroke="none" /><path d="M 120.99303781780057 99.45929381324524 l 23.68221928793533 -0.6099699622420423 a44.69007331682816,44.69007331682816 0 0,0 0.013169884551515297,0.7670797501247261 l -23.68920060408551 0.20334329614824986" fill="#ff1101" stroke="none" /><line stroke="#e1ed5e" stroke-width="0.3" x1="184.99686870605535" x2="189.99668451229388" y1="99.2704041080226" y2="99.22748670261217" /><path d="M 185.99683186730306 99.26182062694052 a86.0,86.0 0 0,1 -10.086455211305974,41.156179273409016" fill="none" id="id76" stroke="none" /><text fill="#e1ed5e" style="font-size:6.75px; font-family:Arial;" text-anchor="middle"><textPath startOffset="21.40746469413373" xlink:href="#id76">April</textPath></text><path d="M 120.93736805541906 101.62068470465957 l 62.812104166257186 4.86205411397871 a84.0,84.0 0 0,0 -0.12362550920903681,1.4367158104973705 l -62.7193850343504 -5.939590971851738" fill="#4dd2ff" stroke="none" /><path d="M 119.83427380445688 106.89939002012753 l 41.32300922336957 14.374287672346707 a64.75169982254478,64.75169982254478 0 0,0 -0.3742026323728412,1.0467113621271258 l -41.07016642095278 -15.081533990854755" fill="#6bff28" stroke="none" /><line stroke="#e1ed5e" stroke-width="0.3" x1="174.33088141563837" x2="178.70328620479359" y1="141.23008692659167" y2="143.65538615756765" /><path d="M 175.20536237346943 141.71514677278685 a86.0,86.0 0 0,1 -30.301960400862466,31.631185727798858" fill="none" id="id77" stroke="none" /><text fill="#e1ed5e" style="font-size:6.75px; font-family:Arial;" text-anchor="middle"><textPath startOffset="22.145653131862474" xlink:href="#id77">May</textPath></text><path d="M 116.1254893667686 113.45245675266167 l 36.10996649069805 30.124218342002553 a68.02550595874519,68.02550595874519 0 0,0 -0.7557485885883061,0.8902699370542283 l -35.58752333860263 -30.739655061506337" fill="#37ff2e" stroke="none" /><line stroke="#e1ed5e" stroke-width="0.3" x1="143.1302829299769" x2="145.66735839644613" y1="173.24464959558577" y2="177.55315839532614" /><path d="M 143.63769802327073 174.10635135553383 a86.0,86.0 0 0,1 -40.68552437913181,11.842963189579606" fill="none" id="id78" stroke="none" /><text fill="#e1ed5e" style="font-size:6.75px; font-family:Arial;" text-anchor="middle"><textPath startOffset="21.407464694133747" xlink:href="#id78">June</textPath></text><path d="M 110.34350942703117 118.27599006163325 l 22.06531931231358 38.98730496679737 a65.79830649621056,65.79830649621056 0 0,0 -0.987776120591285,0.5479027631632752 l -21.3927990035662 -39.360340645393784" fill="#5aff2a" stroke="none" /><path d="M 108.07796709384702 119.3841803445677 l 16.511381742535793 39.621305424616686 a63.924044201339,63.924044201339 0 0,0 -1.0165309230334394,0.4134142768347855 l -15.828796358311912 -39.898906958030764" fill="#78ff26" stroke="none" /><path d="M 105.69591212413111 120.21278271476187 l 11.815940228262521 41.93060342217222 a64.5636539654946,64.5636539654946 0 0,0 -1.0693542701340688,0.2914572615322615 l -11.094404557193757 -42.12726117784862" fill="#6eff28" stroke="none" /><path d="M 100.72087961077811 120.9876233191556 l 1.4981733891945908 43.617683575846165 a64.64340550446002,64.64340550446002 0 0,0 -1.1093629846158752,0.02857325530228801 l -0.7491970905079715 -43.63697454849849" fill="#6cff28" stroke="none" /><line stroke="#e1ed5e" stroke-width="0.3" x1="101.45913802915013" x2="101.54496967792366" y1="184.9874750549273" y2="189.98673829345242" /><path d="M 101.47630435890484 185.9873277026323 a86.0,86.0 0 0,1 -42.54439059252881,-10.42667462771756" fill="none" id="id79" stroke="none" /><text fill="#e1ed5e" style="font-size:6.75px; font-family:Arial;" text-anchor="middle"><textPath startOffset="22.145653131862474" xlink:href="#id79">July</textPath></text><path d="M 98.91894614982273 120.97215588758144 l -2.183508899666055 42.359489324430044 a63.41572876824615,63.41572876824615 0 0,0 -1.086690864804299,-0.0653726239351584 l 2.9103441166028006 -42.315764722670195" fill="#80ff25" stroke="none" /><path d="M 98.19965949673042 120.92268563240118 l -3.6233388219672595 42.108689425149244 a63.26429118443193,63.26429118443193 0 0,0 -1.0812181775347691,-0.102392485550844 l 4.345656562887044 -42.040285184093214" fill="#83ff25" stroke="none" /><path d="M 94.30408787586889 120.21278271476187 l -6.2159219563840225 22.05811415945497 a43.91720065888076,43.91720065888076 0 0,0 -0.7238809186809274,-0.21071118547447323 l 6.593662887446556 -21.94815927967798" fill="#ff0000" stroke="none" /><path d="M 93.27111125876986 119.89276391827306 l -13.591047471800627 40.179516879505684 a63.41591856899035,63.41591856899035 0 0,0 -1.0282263920573398,-0.35767051406732603 l 14.278779635902989 -39.940287932869765" fill="#80ff25" stroke="none" /><path d="M 91.59046798132341 119.24265499422711 l -17.039055035332254 38.9886924438091 a63.54935410761271,63.54935410761271 0 0,0 -0.9958686044760254,-0.44543935984485683 l 17.705837042663912 -38.69044933305439" fill="#7eff26" stroke="none" /><line stroke="#e1ed5e" stroke-width="0.3" x1="58.13341422392154" x2="55.67067388415222" y1="173.97424548756322" y2="178.32567169271397" /><path d="M 57.64086615596768 174.84453072859336 a86.0,86.0 0 0,1 -31.369924170532247,-30.572349798747897" fill="none" id="id80" stroke="none" /><text fill="#e1ed5e" style="font-size:6.75px; font-family:Arial;" text-anchor="middle"><textPath startOffset="22.145653131862474" xlink:href="#id80">August</textPath></text><path d="M 89.34428304082925 118.09573695890944 l -21.5553602021239 36.60571407506063 a63.480723350578664,63.480723350578664 0 0,0 -0.9342767703668527,-0.5610063566533325 l 22.18056972904818 -36.23029371787138" fill="#7fff26" stroke="none" /><path d="M 85.08716467003676 114.78537596483092 l -30.093775698548033 29.836565485996122 a63.37754093614512,63.37754093614512 0 0,0 -0.7593631338161426,-0.7791734715362248 l 30.601525633514985 -29.31556932239216" fill="#81ff25" stroke="none" /><path d="M 83.64595745247003 113.17365903436017 l -33.031085900204445 26.607504653317452 a63.41476086957222,63.41476086957222 0 0,0 -0.6756195618743438,-0.8536232456784665 l 33.48297189272035 -26.036561463724304" fill="#80ff25" stroke="none" /><path d="M 81.99639281039703 110.81064883170644 l -39.45499469838755 23.69159068230669 a67.02160444517065,67.02160444517065 0 0,0 -0.5838101639192943,-0.9914372914277852 l 39.855878572436616 -23.010802222585347" fill="#47ff2c" stroke="none" /><line stroke="#e1ed5e" stroke-width="0.3" x1="26.387840678322732" x2="22.057713659400548" y1="142.50000000000003" y2="145.00000000000006" /><path d="M 25.521815274538298 143.00000000000003 a86.0,86.0 0 0,1 -11.493303480769221,-40.785679425670985" fill="none" id="id81" stroke="none" /><text fill="#e1ed5e" style="font-size:6.75px; font-family:Arial;" text-anchor="middle"><textPath startOffset="21.40746469413373" xlink:href="#id81">September</textPath></text><path d="M 80.68587082218212 108.24405325689762 l -39.218879566300906 16.740207588120086 a63.64217471622863,63.64217471622863 0 0,0 -0.42026308717306854,-1.0084784178104256 l 39.50046849801046 -16.064496660868382" fill="#7dff26" stroke="none" /><path d="M 79.2786578344484 103.40968896794605 l -42.056991540552644 6.920461953435687 a63.62256833053432,63.62256833053432 0 0,0 -0.16808024558615048,-1.079195749295723 l 42.16959327827706 -6.1974780222085135" fill="#7dff26" stroke="none" /><path d="M 79.03789590574601 101.26102812881392 l -42.688467283630565 2.56803218696766 a63.76564074509932,63.76564074509932 0 0,0 -0.056351854262488114,-1.0932109181734178 l 42.726260727349626 -1.8348494754175115" fill="#7bff26" stroke="none" /><line stroke="#e1ed5e" stroke-width="0.3" x1="15.003131293944662" x2="10.003315487706104" y1="100.72959589197737" y2="100.7725132973878" /><path d="M 14.003168132696942 100.73817937305945 a86.0,86.0 0 0,1 10.791469493833604,-42.45332614584628" fill="none" id="id82" stroke="none" /><text fill="#e1ed5e" style="font-size:6.75px; font-family:Arial;" text-anchor="middle"><textPath startOffset="22.145653131862435" xlink:href="#id82">October</textPath></text><line stroke="#e1ed5e" stroke-width="0.3" x1="26.387840678322718" x2="22.05771365940052" y1="57.49999999999999" y2="54.99999999999999" /><path d="M 25.521815274538284 56.99999999999999 a86.0,86.0 0 0,1 29.574782752854787,-30.34633250058573" fill="none" id="id83" stroke="none" /><text fill="#e1ed5e" style="font-size:6.75px; font-family:Arial;" text-anchor="middle"><textPath startOffset="21.40746469413373" xlink:href="#id83">November</textPath></text><line stroke="#e1ed5e" stroke-width="0.3" x1="56.869717070023135" x2="54.33264160355391" y1="26.7553504044142" y2="22.446841604673864" /><path d="M 56.362301976729285 25.89364864446614 a86.0,86.0 0 0,1 42.16139366436587,-11.88097634709845" fill="none" id="id84" stroke="none" /><text fill="#e1ed5e" style="font-size:6.75px; font-family:Arial;" text-anchor="middle"><textPath startOffset="22.145653131862474" xlink:href="#id84">December</textPath></text></svg>