<?xml version="1.0" encoding="utf-8" ?>
<svg baseProfile="full" height="200mm" version="1.1" viewBox="0,0,200,200" width="200mm" xmlns="http://www.w3.org/2000/svg" xmlns:ev="http://www.w3.org/2001/xml-events" xmlns:xlink="http://www.w3.org/1999/xlink"><defs /><rect fill="#1a1a1a" height="200" width="200" x="0" y="0" /><text alignment-baseline="middle" fill="#e1ed5e" style="dominant-baseline: central; font-size:9.0px; font-family:Arial;" text-anchor="middle" x="100.0" y="100.0">2023</text><line stroke="#e1ed5e" stroke-width="0.3" x1="100.0" x2="100.0" y1="15.0" y2="10.0" /><path d="M 100.0 14.0 a86.0,86.0 0 0,1 42.46469731375804,11.215312516191453" fill="none" id="id61" stroke="none" /><text fill="#e1ed5e" style="font-size:6.75px; font-family:Arial;" text-anchor="middle"><textPath startOffset="22.20632615414155" xlink:href="#id61">January</textPath></text><path d="M 102.52436894288641 79.15227682838746 l 4.335356075062644 -35.80391985013491 a57.06544036792657,57.06544036792657 0 0,0 0.9741485658626416,0.12647244210001268 l -4.951019369433132 35.723989084870766" fill="#77ff27" stroke="none" /><path d="M 110.36928655335952 81.73862282372117 l 5.009802549846274 -8.82277613514171 a31.145910521942934,31.145910521942934 0 0,0 0.46393059912410767,0.26873854766083677 l -5.16092988143571 8.735233430090824" fill="#ff1302" stroke="none" /><line stroke="#e1ed5e" stroke-width="0.3" x1="143.23703022742887" x2="145.7803849466894" y1="26.81831364943548" y2="22.513508569990506" /><path d="M 143.74570117128098 25.957352633546492 a86.0,86.0 0 0,1 28.547481713284135,27.462654790039103" fill="none" id="id62" stroke="none" /><text fill="#e1ed5e" style="font-size:6.75px; font-family:Arial;" text-anchor="middle"><textPath startOffset="19.985693538727396" xlink:href="#id62">February</textPath></text><path d="M 110.68208982089419 81.91981866633111 l 5.181603930877648 -8.77022569930769 a31.186553789839024,31.186553789839024 0 0,0 0.45983524177515533,0.2770455880378935 l -5.331801238870441 8.679733501811183" fill="#ff1302" stroke="none" /><path d="M 110.99172775467656 82.1063720568725 l 5.297990206159393 -8.624691923889369 a31.12195687634379,31.12195687634379 0 0,0 0.45405578702895627,0.28432969218237447 l -5.445665145560613 8.53221789038405" fill="#ff1202" stroke="none" /><path d="M 111.2981086023043 82.29822771554956 l 5.53910291817794 -8.678615330155592 a31.29563136417476,31.29563136417476 0 0,0 0.45160039296403065,0.29373345766598397 l -5.68767033692625 8.58198294833008" fill="#ff1502" stroke="none" /><path d="M 112.48926042617603 83.11751280151076 l 6.193160471658955 -8.371668842923228 a31.413456479156693,31.413456479156693 0 0,0 0.4319407801000067,0.32532884049983973 l -6.336347405517345 8.26382341291754" fill="#ff1702" stroke="none" /><path d="M 112.77801427241765 83.33499621200491 l 6.492073148741886 -8.466919922703667 a31.669383616033855,31.669383616033855 0 0,0 0.429749682320808,0.33542644362789936 l -6.636855386222124 8.353915089852544" fill="#ff1b02" stroke="none" /><path d="M 113.06298171725822 83.55741782278167 l 6.678349166664265 -8.406143969103134 a31.736088860528973,31.736088860528973 0 0,0 0.42480508197857164,0.3434961664134291 l -6.822057647207329 8.289941705425576" fill="#ff1c02" stroke="none" /><path d="M 113.34407831869373 83.78471172551755 l 7.012827314925986 -8.521758776804102 a32.036309147491735,32.036309147491735 0 0,0 0.4227915058988104,0.3540757273574585 l -7.158476357783914 8.399781892052824" fill="#ff2103" stroke="none" /><path d="M 114.16331599549186 84.49514656593476 l 7.198715563400653 -7.880571877346961 a31.67356167718998,31.67356167718998 0 0,0 0.39937663925036077,0.37117706054468913 l -7.333300086445861 7.755490230727631" fill="#ff1b02" stroke="none" /><path d="M 114.42810811169701 84.74124197986012 l 7.278320445202501 -7.69734532113367 a31.593539233694806,31.593539233694806 0 0,0 0.39193554114123696,0.3770416800477477 l -7.409739229956156 7.57092055432362" fill="#ff1a02" stroke="none" /><path d="M 114.68862486808459 84.99185889309783 l 7.6710129748328 -7.837877690601059 a31.96707649070047,31.96707649070047 0 0,0 0.38994383667763244,0.38826929391919546 l -7.8047926116777555 7.704672546031745" fill="#ff2003" stroke="none" /><path d="M 114.94478906791727 85.2469230424477 l 7.957470987371022 -7.855392359882604 a32.1816158779737,32.1816158779737 0 0,0 0.3857744175364488,0.39757444779996765 l -8.091509668610579 7.717253716532522" fill="#ff2403" stroke="none" /><path d="M 115.19652480421416 85.50635884689758 l 7.993834263513185 -7.6240960841656165 a32.04663873461547,32.04663873461547 0 0,0 0.37728458648590846,0.40246089145611685 l -8.123886171969557 7.485365775831444" fill="#ff2103" stroke="none" /><path d="M 116.82858285166822 87.43820079747576 l 29.051095526428153 -21.685368984005986 a57.25219137180734,57.25219137180734 0 0,0 0.5827111338895239,0.7948173317613669 l -29.420069272831302 21.182089208573128" fill="#75ff27" stroke="none" /><line stroke="#e1ed5e" stroke-width="0.3" x1="172.23445277983987" x2="176.4835382374775" y1="55.19839476539836" y2="52.563006222186495" /><path d="M 173.08426987136738 54.67131705675599 a86.0,86.0 0 0,1 12.851231095245387,41.99856678651699" fill="none" id="id63" stroke="none" /><text fill="#e1ed5e" style="font-size:6.75px; font-family:Arial;" text-anchor="middle"><textPath startOffset="22.20632615414155" xlink:href="#id63">March</textPath></text><path d="M 118.56541770881063 90.18545643968196 l 32.05057265015247 -16.943423861601417 a57.25353526701342,57.25353526701342 0 0,0 0.45309511807677283,0.8752355508447933 l -32.337477201389355 16.389215588496278" fill="#75ff27" stroke="none" /><path d="M 120.18372546131832 94.20196356495316 l 34.68676730386629 -9.964222959098475 a57.08957696026919,57.08957696026919 0 0,0 0.2631917291678006,0.9468406832312186 l -34.853145803600455 9.365670972448303" fill="#77ff27" stroke="none" /><path d="M 120.98425023603335 99.18683210126433 l 35.972736700507895 -1.3939918932292017 a56.99973609795572,56.99973609795572 0 0,0 0.02955383536105426,0.9807479162423 l -35.99140223032459 0.7745738295619028" fill="#78ff26" stroke="none" /><line stroke="#e1ed5e" stroke-width="0.3" x1="184.98032266829074" x2="189.97916517819016" y1="98.17113171792111" y2="98.06355123074" /><path d="M 185.9800911702706 98.14961562048488 a86.0,86.0 0 0,1 -9.607161424134198,41.387399972396054" fill="none" id="id64" stroke="none" /><text fill="#e1ed5e" style="font-size:6.75px; font-family:Arial;" text-anchor="middle"><textPath startOffset="21.466115282336823" xlink:href="#id64">April</textPath></text><path d="M 120.92983693683757 101.71520430193887 l 35.840779292594846 2.9371589952190433 a56.960928287013,56.960928287013 0 0,0 -0.0884939657998266,0.9765235385178509 l -35.78491073051794 -3.553663922285465" fill="#78ff26" stroke="none" /><path d="M 120.5718875245553 104.21870165774334 l 35.52619480826438 7.285399395269031 a57.2655147751047,57.2655147751047 0 0,0 -0.20633572492370975,0.9639318141437476 l -35.39552504461623 -7.895845028828947" fill="#74ff27" stroke="none" /><line stroke="#e1ed5e" stroke-width="0.3" x1="174.80103733775053" x2="179.2010983576182" y1="140.37084112569926" y2="142.7455964860345" /><path d="M 175.68104954172406 140.8457921977663 a86.0,86.0 0 0,1 -30.038265399797805,32.042727171017184" fill="none" id="id65" stroke="none" /><text fill="#e1ed5e" style="font-size:6.75px; font-family:Arial;" text-anchor="middle"><textPath startOffset="22.206326154141568" xlink:href="#id65">May</textPath></text><path d="M 116.0416608686014 113.55231037782055 l 27.105130843869038 22.898947249691908 a56.48309320236094,56.48309320236094 0 0,0 -0.6338411426546755,0.7373004455695695 l -26.706947191643582 -23.362124794423007" fill="#7eff26" stroke="none" /><path d="M 114.29624159901734 115.38237550388516 l 29.479287311556657 31.718928633974024 a64.30264211436113,64.30264211436113 0 0,0 -0.8172573405139998,0.7465452035750222 l -28.928930421575792 -32.22166660413563" fill="#31ff3e" stroke="none" /><line stroke="#e1ed5e" stroke-width="0.3" x1="143.8653032363475" x2="146.44561519142675" y1="172.8068346515853" y2="177.08958963109032" /><path d="M 144.38136562736335 173.6633856474863 a86.0,86.0 0 0,1 -40.68145358897372,12.25698825130547" fill="none" id="id66" stroke="none" /><text fill="#e1ed5e" style="font-size:6.75px; font-family:Arial;" text-anchor="middle"><textPath startOffset="21.466115282336833" xlink:href="#id66">June</textPath></text><path d="M 106.57524785965236 119.94407469862006 l 10.928636513215816 33.14879493914113 a55.903835060852884,55.903835060852884 0 0,0 -0.9164998637623027,0.2934343142649097 l -10.356415304362573 -33.33200210006575" fill="#85ff25" stroke="none" /><path d="M 105.88484417918355 120.15858648285463 l 10.52713092162764 36.06078132886192 a58.56594781832458,58.56594781832458 0 0,0 -0.970155612209866,0.27417566663299137 l -9.904844141313168 -36.23664578883343" fill="#65ff29" stroke="none" /><path d="M 104.13013068566511 120.58985236759428 l 12.390392056995317 61.76955710278282 a84.0,84.0 0 0,0 -1.4201295417131825,0.2721712066061275 l -11.32529490071043 -61.973685507737414" fill="#4dd2ff" stroke="none" /><line stroke="#e1ed5e" stroke-width="0.3" x1="102.19456741930631" x2="102.32365962044197" y1="184.97166512339345" y2="189.96999836594603" /><path d="M 102.22038585953345 185.97133177190398 a86.0,86.0 0 0,1 -42.740103519485714,-10.115201625700543" fill="none" id="id67" stroke="none" /><text fill="#e1ed5e" style="font-size:6.75px; font-family:Arial;" text-anchor="middle"><textPath startOffset="22.20632615414155" xlink:href="#id67">July</textPath></text><path d="M 95.86986931433489 120.58985236759428 l -10.486931894786856 52.280277777192275 a74.32169525649276,74.32169525649276 0 0,0 -1.2521738277519134,-0.2624052002635015 l 11.385297183968156 -52.092016596202235" fill="#3fffc0" stroke="none" /><line stroke="#e1ed5e" stroke-width="0.3" x1="58.666819895761336" x2="56.23545636021788" y1="174.27360380694188" y2="178.64263932499728" /><path d="M 58.180547188652646 175.14741091055294 a86.0,86.0 0 0,1 -31.652253787137756,-30.449443065178592" fill="none" id="id68" stroke="none" /><text fill="#e1ed5e" style="font-size:6.75px; font-family:Arial;" text-anchor="middle"><textPath startOffset="22.20632615414155" xlink:href="#id68">August</textPath></text><path d="M 89.7882731507175 118.34994917583269 l -6.590455261764107 11.842709943565298 a34.55300259590968,34.55300259590968 0 0,0 -0.5172275701237589,-0.2936953131266525 l 6.793331598809073 -11.727511464644012" fill="#ff4a06" stroke="none" /><path d="M 88.54995079064634 117.60387380957326 l -28.536805872805864 43.873901354308714 a73.33802164268171,73.33802164268171 0 0,0 -1.0523143554902985,-0.6974165738710122 l 29.287794927036124 -43.37618675934638" fill="#3effb4" stroke="none" /><path d="M 84.43433777217949 114.09645910891817 l -11.192576099457353 10.136137415821791 a36.100166934658915,36.100166934658915 0 0,0 -0.4131597928077593,-0.46418940709641315 l 11.365394741913452 -9.941973838984515" fill="#ff6309" stroke="none" /><path d="M 84.19399662182784 113.82643327865904 l -14.454711830814151 12.644379727704893 a40.20466174683306,40.20466174683306 0 0,0 -0.4511680805149709,-0.5248104050129206 l 14.6702224208999 -12.393692223530442" fill="#ffa20f" stroke="none" /><path d="M 83.95833913139862 113.55231037782056 l -13.985674005169349 11.815372268095889 a39.30852531507,39.30852531507 0 0,0 -0.43221408254932625,-0.5206297055164507 l 14.186984087612212 -11.572881305465677" fill="#ff940d" stroke="none" /><path d="M 83.72743513129214 113.27417163493432 l -14.85848722903401 12.120652847601082 a40.17511064342073,40.17511064342073 0 0,0 -0.4325177570329304,-0.5396324045439431 l 15.0649228981218 -11.86309260947888" fill="#ffa10e" stroke="none" /><path d="M 83.50135304334701 112.99209946851258 l -28.005419868504326 22.053275128864225 a56.64618473161747,56.64618473161747 0 0,0 -0.5966547568209392,-0.7712567030616813 l 28.380881442543334 -21.56794043168929" fill="#7cff26" stroke="none" /><path d="M 83.28015986056508 112.70617746262583 l -15.379856395377654 11.687862029760648 a40.316989971762155,40.316989971762155 0 0,0 -0.4151473734362289,-0.5561577491319946 l 15.578765035508969 -11.421391401119346" fill="#ffa40f" stroke="none" /><path d="M 83.06392112726016 112.41649034213515 l -20.243347022268633 14.841175733957025 a46.10086842780917,46.10086842780917 0 0,0 -0.4636873809993645,-0.6440212169637063 l 20.495814195643604 -14.49052091154218" fill="#fff817" stroke="none" /><path d="M 82.85270091963577 112.12312394758628 l -14.889750693425365 10.527039410641704 a39.235219616598116,39.235219616598116 0 0,0 -0.3851386942409517,-0.5548210140552543 l 15.06875029482845 -10.269177134399436" fill="#ff930d" stroke="none" /><path d="M 82.6465618267979 111.8261652097733 l -15.477653946027893 10.547840191581484 a39.730048168121044,39.730048168121044 0 0,0 -0.3802674430321157,-0.5684482319688106 l 15.656924494470738 -10.279855045406851" fill="#ff9b0e" stroke="none" /><path d="M 82.44556493220864 111.52570212397912 l -16.27086956368269 10.68295249405138 a40.46449769062984,40.46449769062984 0 0,0 -0.3772738977960043,-0.5855374675338498 l 16.45234832485574 -10.401293426596082" fill="#ffa60f" stroke="none" /><line stroke="#e1ed5e" stroke-width="0.3" x1="26.63291911575756" x2="22.317208475507996" y1="142.92168965132927" y2="145.44649492493687" /><path d="M 25.769776987707644 143.4266507060508 a86.0,86.0 0 0,1 -11.730757126820373,-40.83630448921669" fill="none" id="id69" stroke="none" /><text fill="#e1ed5e" style="font-size:6.75px; font-family:Arial;" text-anchor="middle"><textPath startOffset="21.46611528233685" xlink:href="#id69">September</textPath></text><path d="M 81.87401531095188 110.60418214915194 l -10.787603668157443 6.311034474122598 a33.49806181112927,33.49806181112927 0 0,0 -0.2868837880712325,-0.5002060660086608 l 10.894639452381053 -6.12440856225563" fill="#ff3905" stroke="none" /><path d="M 81.18737489456691 109.33194174019688 l -16.504135392152154 8.186822896258407 a39.42309838700294,39.42309838700294 0 0,0 -0.29632417593075905,-0.6105155707390726 l 16.642612824697633 -7.90151836955405" fill="#ff960d" stroke="none" /><path d="M 79.18660465613746 102.79330883721812 l -18.44340465034702 2.4752388712683455 a39.60876090894501,39.60876090894501 0 0,0 -0.08487306959547454,-0.6765218720339761 l 18.483279229189343 -2.157399244946961" fill="#ff990e" stroke="none" /><path d="M 79.04373962182676 101.35467743843564 l -35.88692255716662 2.31984158651299 a56.96182525415791,56.96182525415791 0 0,0 -0.054828873737775584,-0.9790063725420923 l 35.921537781791926 -1.7017634976354599" fill="#78ff26" stroke="none" /><line stroke="#e1ed5e" stroke-width="0.3" x1="15.007084014347285" x2="10.007500721073583" y1="101.09737516637583" y2="101.16192664675087" /><path d="M 14.007167355692545 101.11028546245083 a86.0,86.0 0 0,1 10.666146001902534,-42.60595125391555" fill="none" id="id70" stroke="none" /><text fill="#e1ed5e" style="font-size:6.75px; font-family:Arial;" text-anchor="middle"><textPath startOffset="22.20632615414155" xlink:href="#id70">October</textPath></text><path d="M 79.00486145842228 99.54816195383935 l -9.03371241498341 -0.1944152432754828 a30.035804185762508,30.035804185762508 0 0,0 0.015573286344999864,-0.5168015570673001 l 9.029027434182765 0.34988694776777735" fill="#ff0000" stroke="none" /><path d="M 79.3925641242962 95.95851677861259 l -34.620028274737045 -6.7896008140085495 a56.279527164591904,56.279527164591904 0 0,0 0.19462185182208824,-0.9490452680283369 l 34.498027126999965 7.384521738200289" fill="#80ff25" stroke="none" /><line stroke="#e1ed5e" stroke-width="0.3" x1="26.266209847984243" x2="21.928928074336255" y1="57.711370442889674" y2="55.22380399835377" /><path d="M 25.398753493254645 57.213857153982495 a86.0,86.0 0 0,1 29.58750427330803,-30.492523968695096" fill="none" id="id71" stroke="none" /><text fill="#e1ed5e" style="font-size:6.75px; font-family:Arial;" text-anchor="middle"><textPath startOffset="21.46611528233685" xlink:href="#id71">November</textPath></text><line stroke="#e1ed5e" stroke-width="0.3" x1="56.762969772571076" x2="54.21961505331055" y1="26.818313649435495" y2="22.513508569990535" /><path d="M 56.25429882871897 25.957352633546506 a86.0,86.0 0 0,1 42.265352541879196,-11.944610805530505" fill="none" id="id72" stroke="none" /><text fill="#e1ed5e" style="font-size:6.75px; font-family:Arial;" text-anchor="middle"><textPath startOffset="22.20632615414155" xlink:href="#id72">December</textPath></text></svg>