<?xml version="1.0" encoding="utf-8" ?>
<svg baseProfile="full" height="200mm" version="1.1" viewBox="0,0,200,200" width="200mm" xmlns="http://www.w3.org/2000/svg" xmlns:ev="http://www.w3.org/2001/xml-events" xmlns:xlink="http://www.w3.org/1999/xlink"><defs /><rect fill="#1a1a1a" height="200" width="200" x="0" y="0" /><rect fill="#1a1a1a" height="200" width="180" x="10" y="0" /><text alignment-baseline="middle" fill="#e1ed5e" style="dominant-baseline: central; font-size:9.0px; font-family:Arial;" text-anchor="middle" x="100.0" y="100.0">2025</text><line stroke="#e1ed5e" stroke-width="0.3" x1="100.0" x2="100.0" y1="15.0" y2="10.0" /><path d="M 100.0 14.0 a86.0,86.0 0 0,1 42.46469731375804,11.215312516191453" fill="none" id="id85" stroke="none" /><text fill="#e1ed5e" style="font-size:6.75px; font-family:Arial;" text-anchor="middle"><textPath startOffset="22.20632615414155" xlink:href="#id85">January</textPath></text><path d="M 101.08401301168833 79.027996857942 l 0.8891891965867337 -17.20281806918257 a38.22578320276674,38.22578320276674 0 0,0 0.6568244424946442,0.0396214440810248 l -1.1851756879209898 17.18496335572124" fill="red" stroke="none" /><path d="M 106.0581310904928 79.89281104454417 l 6.247072762348215 -20.734294219572476 a42.65495035510055,42.65495035510055 0 0,0 0.7011958470894692,0.2178649629371841 l -6.603053982148403 20.623689121752772" fill="red" stroke="none" /><path d="M 109.08828744355905 81.06846463323043 l 6.780481877211489 -14.124215729239802 a36.66743132913939,36.66743132913939 0 0,0 0.5666492872013145,0.27805234429884984 l -7.022602431423236 14.005408224806121" fill="red" stroke="none" /><line stroke="#e1ed5e" stroke-width="0.3" x1="143.23703022742887" x2="145.7803849466894" y1="26.81831364943548" y2="22.513508569990506" /><path d="M 143.74570117128098 25.957352633546492 a86.0,86.0 0 0,1 28.547481713284135,27.462654790039103" fill="none" id="id86" stroke="none" /><text fill="#e1ed5e" style="font-size:6.75px; font-family:Arial;" text-anchor="middle"><textPath startOffset="19.985693538727396" xlink:href="#id86">February</textPath></text><path d="M 114.94478906791727 85.2469230424477 l 17.91845921116442 -17.688600789325907 a46.17851819282271,46.17851819282271 0 0,0 0.5535611084937904,0.5704933816980304 l -18.22028458336132 17.37754321207776" fill="red" stroke="none" /><path d="M 116.60985879189232 87.15038557335679 l 17.97037382008725 -13.902127500534716 a43.72011188957486,43.72011188957486 0 0,0 0.4553638269687532,0.5992054191430608 l -18.207013587280116 13.590737305510622" fill="red" stroke="none" /><line stroke="#e1ed5e" stroke-width="0.3" x1="172.23445277983987" x2="176.4835382374775" y1="55.19839476539836" y2="52.563006222186495" /><path d="M 173.08426987136738 54.67131705675599 a86.0,86.0 0 0,1 12.851231095245387,41.99856678651699" fill="none" id="id87" stroke="none" /><text fill="#e1ed5e" style="font-size:6.75px; font-family:Arial;" text-anchor="middle"><textPath startOffset="22.20632615414155" xlink:href="#id87">March</textPath></text><path d="M 119.196687751892 91.48605970444005 l 8.09892346958696 -3.5919608512451093 a29.859725962077157,29.859725962077157 0 0,0 0.20433904868105643,0.47164269733479136 l -8.159553228110699 3.4520190093237155" fill="red" stroke="none" /><path d="M 120.67395015179393 96.31383870115 l 13.957879605436078 -2.488687224153993 a35.17800998657836,35.17800998657836 0 0,0 0.10115878754821292,0.5970448903801862 l -13.998650254504513 2.248056545457969" fill="red" stroke="none" /><line stroke="#e1ed5e" stroke-width="0.3" x1="184.98032266829074" x2="189.97916517819016" y1="98.17113171792111" y2="98.06355123074" /><path d="M 185.9800911702706 98.14961562048488 a86.0,86.0 0 0,1 -9.607161424134198,41.387399972396054" fill="none" id="id88" stroke="none" /><text fill="#e1ed5e" style="font-size:6.75px; font-family:Arial;" text-anchor="middle"><textPath startOffset="21.466115282336823" xlink:href="#id88">April</textPath></text><path d="M 120.99980553446 99.90962569577887 l 22.759258941994833 -0.09794624945912421 a43.759469700688435,43.759469700688435 0 0,0 -0.0032417488392034173,0.7532682636015195 l -22.757572895866126 -0.2938314923460801" fill="red" stroke="none" /><path d="M 120.9904718944345 100.63252640178507 l 16.58628959037018 0.49981087258660983 a37.59381852630605,37.59381852630605 0 0,0 -0.0250587274927242,0.6466544106346728 l -16.57522873002625 -0.7852425302352888" fill="red" stroke="none" /><path d="M 120.95626037817324 101.35467743843564 l 22.397489816459057 1.447842963601981 a43.44423755278042,43.44423755278042 0 0,0 -0.054664107730879596,0.745848319152055 l -22.36924915006384 -1.833164419250806" fill="red" stroke="none" /><path d="M 120.13307415673323 105.97154293290107 l 22.072616205169677 6.546818150299097 a44.02305831191427,44.02305831191427 0 0,0 -0.22173623627628067,0.7246468497236539 l -21.956653196387265 -6.925791972574808" fill="red" stroke="none" /><path d="M 119.26925614724726 108.34839909993367 l 19.978370592754747 8.655622708016244 a42.772806341971034,42.772806341971034 0 0,0 -0.29851124287993364,0.6730640480276403 l -19.82641826514354 -8.998235092536571" fill="red" stroke="none" /><line stroke="#e1ed5e" stroke-width="0.3" x1="174.80103733775053" x2="179.2010983576182" y1="140.37084112569926" y2="142.7455964860345" /><path d="M 175.68104954172406 140.8457921977663 a86.0,86.0 0 0,1 -30.038265399797805,32.042727171017184" fill="none" id="id89" stroke="none" /><text fill="#e1ed5e" style="font-size:6.75px; font-family:Arial;" text-anchor="middle"><textPath startOffset="22.206326154141568" xlink:href="#id89">May</textPath></text><path d="M 118.48025628344425 109.97397251340804 l 10.88673375855194 5.8756751856230895 a33.37111679746584,33.37111679746584 0 0,0 -0.27717666725843015,0.5031561624794242 l -10.783980681842001 -6.062201866500319" fill="red" stroke="none" /><path d="M 118.30583269289576 110.29060199501025 l 22.96283690025736 12.908531350698324 a47.34240042478632,47.34240042478632 0 0,0 -0.40544934351202655,0.7069351058400887 l -22.737235560592953 -13.301886302396728" fill="red" stroke="none" /><path d="M 118.12598468904814 110.60418214915192 l 25.43957476536754 14.882826463597365 a50.47321644795964,50.47321644795964 0 0,0 -0.44517166434213906,0.7461333156637162 l -25.179622225327172 -15.318521873147185" fill="red" stroke="none" /><path d="M 117.94076556474637 110.91462005526583 l 53.8222966942391 32.74386016579747 a84.0,84.0 0 0,0 -0.7621414413281484,1.228814674538906 l -53.25069061324299 -33.665471171701654" fill="red" stroke="none" /><path d="M 115.56566222782051 114.09645910891815 l 10.411831642577068 9.42908543500358 a35.046846275729145,35.046846275729145 0 0,0 -0.4088024230315051,0.44367429074157644 l -10.247982811549841 -9.606910980546493" fill="red" stroke="none" /><path d="M 115.07121518719521 114.62390073753431 l 13.705427092010453 13.298649303963291 a40.096931823835405,40.096931823835405 0 0,0 -0.4849043687224782,0.4912055654233744 l -13.47448209823244 -13.532595363367331" fill="red" stroke="none" /><path d="M 113.20401910651253 116.32954008644616 l 12.052094092069028 14.904943109707654 a40.16794984101604,40.16794984101604 0 0,0 -0.5413922493049932,0.4301147458660809 l -11.793744350046683 -15.11019176957886" fill="red" stroke="none" /><path d="M 111.1453310114006 117.79835938074945 l 14.118255113353445 22.545923317982318 a47.60157487266627,47.60157487266627 0 0,0 -0.6982035798457511,0.4288936649067112 l -13.728072333575385 -22.785605449717405" fill="red" stroke="none" /><line stroke="#e1ed5e" stroke-width="0.3" x1="143.8653032363475" x2="146.44561519142675" y1="172.8068346515853" y2="177.08958963109032" /><path d="M 144.38136562736335 173.6633856474863 a86.0,86.0 0 0,1 -40.68145358897372,12.25698825130547" fill="none" id="id90" stroke="none" /><text fill="#e1ed5e" style="font-size:6.75px; font-family:Arial;" text-anchor="middle"><textPath startOffset="21.466115282336833" xlink:href="#id90">June</textPath></text><path d="M 109.57404056367764 118.69057910512821 l 10.198028613817769 19.90873751319317 a43.36867490437176,43.36867490437176 0 0,0 -0.6673532297297364,0.33462476341228203 l -9.853821476405273 -20.081330117514753" fill="red" stroke="none" /><path d="M 106.91757812671514 119.82793768551818 l 7.547445725971379 21.633334788291517 a43.91211712279744,43.91211712279744 0 0,0 -0.7158307991399532,0.2428486724581658 l -7.173945193894199 -21.760046447647806" fill="red" stroke="none" /><path d="M 104.48393922423573 120.51570834832081 l 4.831138387297636 22.104275099997356 a43.626066291195734,43.626066291195734 0 0,0 -0.7350130837177636,0.15402913809140992 l -4.449933842150494 -22.184160218815308" fill="red" stroke="none" /><path d="M 104.13013068566511 120.58985236759428 l 1.6618457731733627 8.28476426814079 a29.449795876379298,29.449795876379298 0 0,0 -0.4978872038270155,0.09542126759497989 l -1.5189909547746427 -8.312142734084238" fill="red" stroke="none" /><path d="M 101.98527174616119 120.90594882070398 l 2.155875916032952 22.70249987263647 a43.80463333255744,43.80463333255744 0 0,0 -0.7512613144747061,0.06482198735562889 l -1.7647702838167045 -22.73624611227076" fill="red" stroke="none" /><line stroke="#e1ed5e" stroke-width="0.3" x1="102.19456741930631" x2="102.32365962044197" y1="184.97166512339345" y2="189.96999836594603" /><path d="M 102.22038585953345 185.97133177190398 a86.0,86.0 0 0,1 -42.740103519485714,-10.115201625700543" fill="none" id="id91" stroke="none" /><text fill="#e1ed5e" style="font-size:6.75px; font-family:Arial;" text-anchor="middle"><textPath startOffset="22.20632615414155" xlink:href="#id91">July</textPath></text><path d="M 99.45781275523022 120.99299961872073 l -0.5820150375214185 22.535095723184888 a43.54261033591733,43.54261033591733 0 0,0 -0.7490980452061079,-0.025800451307803406 l 0.9698334344021694 -22.52173847345099" fill="red" stroke="none" /><path d="M 96.58105272829116 120.7198165907248 l -2.873207383273541 17.412473863274553 a38.64793378009213,38.64793378009213 0 0,0 -0.6554524460123771,-0.11395880937568227 l 3.1725088007579685 -17.360436475377863" fill="red" stroke="none" /><path d="M 94.46302465271185 120.25689768951611 l -5.9106329784839025 21.623915588511533 a43.41716546723545,43.41716546723545 0 0,0 -0.7192132683474234,-0.20325685366214274 l 6.28197741493594 -21.518969941510868" fill="red" stroke="none" /><path d="M 92.06813273071674 119.44442032107085 l -8.743456165124293 21.43397398893913 a44.148720627066396,44.148720627066396 0 0,0 -0.7011837312285589,-0.2930948565212231 l 9.111111355850314 -21.280294089397934" fill="red" stroke="none" /><line stroke="#e1ed5e" stroke-width="0.3" x1="58.666819895761336" x2="56.23545636021788" y1="174.27360380694188" y2="178.64263932499728" /><path d="M 58.180547188652646 175.14741091055294 a86.0,86.0 0 0,1 -31.652253787137756,-30.449443065178592" fill="none" id="id92" stroke="none" /><text fill="#e1ed5e" style="font-size:6.75px; font-family:Arial;" text-anchor="middle"><textPath startOffset="22.20632615414155" xlink:href="#id92">August</textPath></text><path d="M 89.7882731507175 118.34994917583269 l -11.043190041191973 19.84404586861552 a43.70987016082651,43.70987016082651 0 0,0 -0.6542976944176069,-0.37152730701119824 l 11.383136502530787 -19.65101539580969" fill="red" stroke="none" /><path d="M 86.79598089348748 116.32954008644616 l -14.107754207445787 17.447198160035242 a43.437322755026756,43.437322755026756 0 0,0 -0.5773644912844516,-0.4751316695526524 l 14.405988827274927 -17.20177137162541" fill="red" stroke="none" /><path d="M 83.72743513129214 113.27417163493432 l -17.517109773553262 14.289395897832765 a43.60610470522764,43.60610470522764 0 0,0 -0.4694551999482008,-0.5857175439722289 l 17.760482885556325 -13.985750520282277" fill="red" stroke="none" /><line stroke="#e1ed5e" stroke-width="0.3" x1="26.63291911575756" x2="22.317208475507996" y1="142.92168965132927" y2="145.44649492493687" /><path d="M 25.769776987707644 143.4266507060508 a86.0,86.0 0 0,1 -11.730757126820373,-40.83630448921669" fill="none" id="id93" stroke="none" /><text fill="#e1ed5e" style="font-size:6.75px; font-family:Arial;" text-anchor="middle"><textPath startOffset="21.46611528233685" xlink:href="#id93">September</textPath></text><path d="M 81.18737489456691 109.33194174019688 l -20.463940952716595 10.15107161681698 a43.84331705961327,43.84331705961327 0 0,0 -0.3295488008127757,-0.6789681388048511 l 20.63564301014409 -9.797314522046843" fill="red" stroke="none" /><path d="M 81.02952815118164 109.00673069616217 l -20.78172913944164 9.866672756017692 a44.00503199953131,44.00503199953131 0 0,0 -0.3189848979573496,-0.6870650919713993 l 20.94848865423882 -9.507487596767467" fill="red" stroke="none" /><path d="M 80.0844068197444 106.66101706037122 l -27.927138626891715 9.340577765240857 a50.44777521094147,50.44777521094147 0 0,0 -0.26835273381202523,-0.8259047910092466 l 28.08378361171999 -8.858474074253806" fill="red" stroke="none" /><line stroke="#e1ed5e" stroke-width="0.3" x1="15.007084014347285" x2="10.007500721073583" y1="101.09737516637583" y2="101.16192664675087" /><path d="M 14.007167355692545 101.11028546245083 a86.0,86.0 0 0,1 10.666146001902534,-42.60595125391555" fill="none" id="id94" stroke="none" /><text fill="#e1ed5e" style="font-size:6.75px; font-family:Arial;" text-anchor="middle"><textPath startOffset="22.20632615414155" xlink:href="#id94">October</textPath></text><path d="M 79.00019446554 99.90962569577889 l -6.448837228030969 -0.027753074977869954 a27.448896946517976,27.448896946517976 0 0,0 0.006100181270283749,-0.4724657620190892 l 6.4474040396429695 0.13875509505743108" fill="red" stroke="none" /><path d="M 79.03285615573316 98.82574320788736 l -4.154024299859946 -0.23264452635714145 a25.160533782998385,25.160533782998385 0 0,0 0.027939465611096125,-0.4322111667034546 l 4.149404243244437 0.3041147573136078" fill="red" stroke="none" /><path d="M 79.32604984820605 96.31383870115002 l -22.60394582696503 -4.030279153083379 a43.96043372848493,43.96043372848493 0 0,0 0.13923792505041324,-0.7438145632373537 l 22.531222178004757 4.418771793783306" fill="red" stroke="none" /><path d="M 79.81627453868168 94.20196356495316 l -21.81037125827172 -6.265311498598747 a43.69243095391322,43.69243095391322 0 0,0 0.2138725829960093,-0.721072028106295 l 21.699292778164 6.639812913451581" fill="red" stroke="none" /><path d="M 80.65960295795068 91.81776055985345 l -14.114502690624667 -5.971347968823623 a36.32567071186201,36.32567071186201 0 0,0 0.24858744535667673,-0.5737740975519117 l 14.00962453542531 6.213421210962133" fill="red" stroke="none" /><line stroke="#e1ed5e" stroke-width="0.3" x1="26.266209847984243" x2="21.928928074336255" y1="57.711370442889674" y2="55.22380399835377" /><path d="M 25.398753493254645 57.213857153982495 a86.0,86.0 0 0,1 29.58750427330803,-30.492523968695096" fill="none" id="id95" stroke="none" /><text fill="#e1ed5e" style="font-size:6.75px; font-family:Arial;" text-anchor="middle"><textPath startOffset="21.46611528233685" xlink:href="#id95">November</textPath></text><path d="M 83.39014120810768 87.1503855733568 l -18.23707614080782 -14.108452071434918 a44.05730613097718,44.05730613097718 0 0,0 0.4692017493435842,-0.5958385734826925 l 17.99152031087026 14.420283038870657" fill="red" stroke="none" /><path d="M 86.93701828274178 83.55741782278169 l -13.871862211712557 -17.46073287891016 a43.300353223422114,43.300353223422114 0 0,0 0.5875805247034727,-0.4586159195789052 l 13.569249131849658 17.696927187712287" fill="red" stroke="none" /><line stroke="#e1ed5e" stroke-width="0.3" x1="56.762969772571076" x2="54.21961505331055" y1="26.818313649435495" y2="22.513508569990535" /><path d="M 56.25429882871897 25.957352633546506 a86.0,86.0 0 0,1 42.265352541879196,-11.944610805530505" fill="none" id="id96" stroke="none" /><text fill="#e1ed5e" style="font-size:6.75px; font-family:Arial;" text-anchor="middle"><textPath startOffset="22.20632615414155" xlink:href="#id96">December</textPath></text><path d="M 90.91171255644093 81.06846463323043 l -9.789666018684922 -20.39255576065025 a43.62065187408674,43.62065187408674 0 0,0 0.6796965585959881,-0.3191266479966429 l 9.437191248789325 20.558047391286898" fill="red" stroke="none" /><path d="M 98.55514903715128 79.0497635885617 l -1.5753350725670623 -22.842246741102777 a43.89650446623415,43.89650446623415 0 0,0 0.7542630826046794,-0.045499208945842626 l 1.1819099411227598 22.865979219428926" fill="red" stroke="none" /></svg>