<?xml version="1.0" encoding="utf-8" ?>
<svg baseProfile="full" height="200mm" version="1.1" viewBox="0,0,200,200" width="200mm" xmlns="http://www.w3.org/2000/svg" xmlns:ev="http://www.w3.org/2001/xml-events" xmlns:xlink="http://www.w3.org/1999/xlink"><defs /><rect fill="#1a1a1a" height="200" width="200" x="0" y="0" /><text alignment-baseline="middle" fill="#e1ed5e" style="dominant-baseline: central; font-size:9.0px; font-family:Arial;" text-anchor="middle" x="100.0" y="100.0">2025</text><line stroke="#e1ed5e" stroke-width="0.3" x1="100.0" x2="100.0" y1="15.0" y2="10.0" /><path d="M 100.0 14.0 a86.0,86.0 0 0,1 42.46469731375804,11.215312516191453" fill="none" id="id85" stroke="none" /><text fill="#e1ed5e" style="font-size:6.75px; font-family:Arial;" text-anchor="middle"><textPath startOffset="22.20632615414155" xlink:href="#id85">January</textPath></text><path d="M 101.08401301168833 79.027996857942 l 1.6791111255179694 -32.48514862878054 a53.528515115292315,53.528515115292315 0 0,0 0.9197676058504736,0.055482893761280426 l -2.238040780208055 32.45143246563896" fill="#e6ff1a" stroke="none" /><path d="M 106.0581310904928 79.89281104454417 l 11.796735067682512 -39.15385413755542 a61.89238623609603,61.89238623609603 0 0,0 1.0174360498351507,0.31612233330869527 l -12.468956490228381 38.94499166936421" fill="#69ff28" stroke="none" /><path d="M 109.08828744355905 81.06846463323043 l 12.804004592163578 -26.671632832719787 a50.585782591636175,50.585782591636175 0 0,0 0.7817399967499735,0.3835964213456813 l -13.261215855923982 26.447281251239275" fill="#ffe915" stroke="none" /><line stroke="#e1ed5e" stroke-width="0.3" x1="143.23703022742887" x2="145.7803849466894" y1="26.81831364943548" y2="22.513508569990506" /><path d="M 143.74570117128098 25.957352633546492 a86.0,86.0 0 0,1 28.547481713284135,27.462654790039103" fill="none" id="id86" stroke="none" /><text fill="#e1ed5e" style="font-size:6.75px; font-family:Arial;" text-anchor="middle"><textPath startOffset="19.985693538727396" xlink:href="#id86">February</textPath></text><path d="M 114.94478906791727 85.2469230424477 l 33.83653819580719 -33.40248227735406 a68.54615798742597,68.54615798742597 0 0,0 0.8216913119660805,0.8468251256865149 l -34.40649377147638 32.81509295611743" fill="#33ff55" stroke="none" /><path d="M 116.60985879189232 87.15038557335679 l 33.93457177263633 -26.25224985202596 a63.90379684463141,63.90379684463141 0 0,0 0.6655856133786318,0.8758326481376423 l -34.381433326239076 25.664232428007285" fill="#4dff2c" stroke="none" /><line stroke="#e1ed5e" stroke-width="0.3" x1="172.23445277983987" x2="176.4835382374775" y1="55.19839476539836" y2="52.563006222186495" /><path d="M 173.08426987136738 54.67131705675599 a86.0,86.0 0 0,1 12.851231095245387,41.99856678651699" fill="none" id="id87" stroke="none" /><text fill="#e1ed5e" style="font-size:6.75px; font-family:Arial;" text-anchor="middle"><textPath startOffset="22.20632615414155" xlink:href="#id87">March</textPath></text><path d="M 119.196687751892 91.48605970444005 l 15.293699647615522 -6.782922521891381 a37.73037019463277,37.73037019463277 0 0,0 0.25820022466874054,0.595961717553516 l -15.408190582126945 6.518661659751262" fill="#ff0000" stroke="none" /><path d="M 120.67395015179393 96.31383870115 l 26.357530010590946 -4.699542484380369 a47.77321586626639,47.77321586626639 0 0,0 0.13737788454077968,0.8108120510758401 l -26.434519756651948 4.245144644988691" fill="#ffb911" stroke="none" /><line stroke="#e1ed5e" stroke-width="0.3" x1="184.98032266829074" x2="189.97916517819016" y1="98.17113171792111" y2="98.06355123074" /><path d="M 185.9800911702706 98.14961562048488 a86.0,86.0 0 0,1 -9.607161424134198,41.387399972396054" fill="none" id="id88" stroke="none" /><text fill="#e1ed5e" style="font-size:6.75px; font-family:Arial;" text-anchor="middle"><textPath startOffset="21.466115282336823" xlink:href="#id88">April</textPath></text><path d="M 120.99980553446 99.90962569577887 l 42.97772065241263 -0.18495797947263048 a63.9781186411293,63.9781186411293 0 0,0 -0.004739568218214411,1.1013087376727808 l -42.97453678690491 -0.554860236403835" fill="#4cff2c" stroke="none" /><path d="M 120.9904718944345 100.63252640178507 l 31.32091965260048 0.9438238791435427 a52.335137009425964,52.335137009425964 0 0,0 -0.034884775955810646,0.9002210604020962 l -31.30003274379347 -1.482822186559645" fill="#f9ff18" stroke="none" /><path d="M 120.95626037817324 101.35467743843564 l 42.29456956838258 2.7340516928444933 a63.382846219123834,63.382846219123834 0 0,0 -0.07975204375039643,1.0881532736803934 l -42.24124096596784 -3.461678103021657" fill="#54ff2b" stroke="none" /><path d="M 120.13307415673323 105.97154293290107 l 41.68109057291438 12.362762880057007 a64.47586936883502,64.47586936883502 0 0,0 -0.32475337136260274,1.0613128077172993 l -41.462110429045644 -13.078402660326363" fill="#46ff2d" stroke="none" /><path d="M 119.26925614724726 108.34839909993367 l 37.72639665527401 16.34494935735355 a62.11494100792949,62.11494100792949 0 0,0 -0.43349992267157716,0.977427884987089 l -37.439455647871156 -16.991925578833325" fill="#66ff29" stroke="none" /><line stroke="#e1ed5e" stroke-width="0.3" x1="174.80103733775053" x2="179.2010983576182" y1="140.37084112569926" y2="142.7455964860345" /><path d="M 175.68104954172406 140.8457921977663 a86.0,86.0 0 0,1 -30.038265399797805,32.042727171017184" fill="none" id="id89" stroke="none" /><text fill="#e1ed5e" style="font-size:6.75px; font-family:Arial;" text-anchor="middle"><textPath startOffset="22.206326154141568" xlink:href="#id89">May</textPath></text><path d="M 118.48025628344425 109.97397251340804 l 20.558094772976187 11.095401981919204 a44.361147356991,44.361147356991 0 0,0 -0.3684586001360498,0.6688593852820305 l -20.364059763388628 -11.44763188559904" fill="#ff7d0b" stroke="none" /><path d="M 118.30583269289576 110.29060199501025 l 43.36214954104622 24.37598059924341 a70.74398901369638,70.74398901369638 0 0,0 -0.6058650099205374,1.0563767133101225 l -42.936132534973304 -25.11877715841185" fill="#37ff77" stroke="none" /><path d="M 118.12598468904814 110.60418214915192 l 48.03912730940181 28.104164546877747 a76.65610314715624,76.65610314715624 0 0,0 -0.676103633204888,1.1331885786597147 l -47.5482428004987 -28.926915219423567" fill="#41ffcd" stroke="none" /><path d="M 117.94076556474637 110.91462005526583 l 53.8222966942391 32.74386016579747 a84.0,84.0 0 0,0 -0.7621414413281484,1.228814674538906 l -53.25069061324299 -33.665471171701654" fill="#4dd2ff" stroke="none" /><path d="M 115.56566222782051 114.09645910891815 l 19.6613076442904 17.80552701061704 a47.52553129362813,47.52553129362813 0 0,0 -0.5543595048707587,0.6016477552052826 l -19.35190173142392 -18.14132602062366" fill="#ffb510" stroke="none" /><path d="M 115.07121518719521 114.62390073753431 l 25.880808267248682 25.112664533445507 a57.06192114315957,57.06192114315957 0 0,0 -0.690067134602244,0.6990343640858809 l -25.444700507590902 -25.55443939151205" fill="#afff20" stroke="none" /><line stroke="#e1ed5e" stroke-width="0.3" x1="143.8653032363475" x2="146.44561519142675" y1="172.8068346515853" y2="177.08958963109032" /><path d="M 144.38136562736335 173.6633856474863 a86.0,86.0 0 0,1 -40.68145358897372,12.25698825130547" fill="none" id="id90" stroke="none" /><text fill="#e1ed5e" style="font-size:6.75px; font-family:Arial;" text-anchor="middle"><textPath startOffset="21.466115282336833" xlink:href="#id90">June</textPath></text><line stroke="#e1ed5e" stroke-width="0.3" x1="102.19456741930631" x2="102.32365962044197" y1="184.97166512339345" y2="189.96999836594603" /><path d="M 102.22038585953345 185.97133177190398 a86.0,86.0 0 0,1 -42.740103519485714,-10.115201625700543" fill="none" id="id91" stroke="none" /><text fill="#e1ed5e" style="font-size:6.75px; font-family:Arial;" text-anchor="middle"><textPath startOffset="22.20632615414155" xlink:href="#id91">July</textPath></text><line stroke="#e1ed5e" stroke-width="0.3" x1="58.666819895761336" x2="56.23545636021788" y1="174.27360380694188" y2="178.64263932499728" /><path d="M 58.180547188652646 175.14741091055294 a86.0,86.0 0 0,1 -31.652253787137756,-30.449443065178592" fill="none" id="id92" stroke="none" /><text fill="#e1ed5e" style="font-size:6.75px; font-family:Arial;" text-anchor="middle"><textPath startOffset="22.20632615414155" xlink:href="#id92">August</textPath></text><line stroke="#e1ed5e" stroke-width="0.3" x1="26.63291911575756" x2="22.317208475507996" y1="142.92168965132927" y2="145.44649492493687" /><path d="M 25.769776987707644 143.4266507060508 a86.0,86.0 0 0,1 -11.730757126820373,-40.83630448921669" fill="none" id="id93" stroke="none" /><text fill="#e1ed5e" style="font-size:6.75px; font-family:Arial;" text-anchor="middle"><textPath startOffset="21.46611528233685" xlink:href="#id93">September</textPath></text><line stroke="#e1ed5e" stroke-width="0.3" x1="15.007084014347285" x2="10.007500721073583" y1="101.09737516637583" y2="101.16192664675087" /><path d="M 14.007167355692545 101.11028546245083 a86.0,86.0 0 0,1 10.666146001902534,-42.60595125391555" fill="none" id="id94" stroke="none" /><text fill="#e1ed5e" style="font-size:6.75px; font-family:Arial;" text-anchor="middle"><textPath startOffset="22.20632615414155" xlink:href="#id94">October</textPath></text><line stroke="#e1ed5e" stroke-width="0.3" x1="26.266209847984243" x2="21.928928074336255" y1="57.711370442889674" y2="55.22380399835377" /><path d="M 25.398753493254645 57.213857153982495 a86.0,86.0 0 0,1 29.58750427330803,-30.492523968695096" fill="none" id="id95" stroke="none" /><text fill="#e1ed5e" style="font-size:6.75px; font-family:Arial;" text-anchor="middle"><textPath startOffset="21.46611528233685" xlink:href="#id95">November</textPath></text><line stroke="#e1ed5e" stroke-width="0.3" x1="56.762969772571076" x2="54.21961505331055" y1="26.818313649435495" y2="22.513508569990535" /><path d="M 56.25429882871897 25.957352633546506 a86.0,86.0 0 0,1 42.265352541879196,-11.944610805530505" fill="none" id="id96" stroke="none" /><text fill="#e1ed5e" style="font-size:6.75px; font-family:Arial;" text-anchor="middle"><textPath startOffset="22.20632615414155" xlink:href="#id96">December</textPath></text></svg>