<?xml version="1.0" encoding="utf-8" ?>
<svg baseProfile="full" height="200mm" version="1.1" viewBox="0,0,200,200" width="200mm" xmlns="http://www.w3.org/2000/svg" xmlns:ev="http://www.w3.org/2001/xml-events" xmlns:xlink="http://www.w3.org/1999/xlink"><defs /><rect fill="#1a1a1a" height="200" width="200" x="0" y="0" /><text alignment-baseline="middle" fill="#e1ed5e" style="dominant-baseline: central; font-size:9.0px; font-family:Arial;" text-anchor="middle" x="100.0" y="100.0">2023</text><line stroke="#e1ed5e" stroke-width="0.3" x1="100.0" x2="100.0" y1="15.0" y2="10.0" /><path d="M 100.0 14.0 a86.0,86.0 0 0,1 42.46469731375804,11.215312516191453" fill="none" id="id61" stroke="none" /><text fill="#e1ed5e" style="font-size:6.75px; font-family:Arial;" text-anchor="middle"><textPath startOffset="22.20632615414155" xlink:href="#id61">January</textPath></text><path d="M 102.52436894288641 79.15227682838746 l 4.327284983673097 -35.73726403127918 a56.99829767879703,56.99829767879703 0 0,0 0.9730023913321028,0.12632363575051947 l -4.941802103513046 35.65748207236453" fill="#5dff2a" stroke="none" /><path d="M 110.36928655335952 81.73862282372117 l 5.186516731569553 -9.133987934356648 a31.503794142681194,31.503794142681194 0 0,0 0.46926141655096804,0.2718265011949305 l -5.3429748805858495 9.043357275771669" fill="#ff6008" stroke="none" /><line stroke="#e1ed5e" stroke-width="0.3" x1="143.23703022742887" x2="145.7803849466894" y1="26.81831364943548" y2="22.513508569990506" /><path d="M 143.74570117128098 25.957352633546492 a86.0,86.0 0 0,1 28.547481713284135,27.462654790039103" fill="none" id="id62" stroke="none" /><text fill="#e1ed5e" style="font-size:6.75px; font-family:Arial;" text-anchor="middle"><textPath startOffset="19.985693538727396" xlink:href="#id62">February</textPath></text><path d="M 110.68208982089419 81.91981866633111 l 5.343885849849527 -9.0448991547254 a31.50558502394675,31.50558502394675 0 0,0 0.4645392499723531,0.2798797003431982 l -5.498787166039517 8.951572844923586" fill="#ff6008" stroke="none" /><path d="M 110.99172775467656 82.1063720568725 l 5.480039661932905 -8.92105345153675 a31.46976739863563,31.46976739863563 0 0,0 0.4591301909638905,0.28750728346090354 l -5.632789005269059 8.825401826752902" fill="#ff5f08" stroke="none" /><path d="M 111.2981086023043 82.29822771554956 l 5.706367311650386 -8.940683638114862 a31.606528735280307,31.606528735280307 0 0,0 0.4560866860612669,0.29665146749078763 l -5.8594210234959325 8.841133246464546" fill="#ff6109" stroke="none" /><path d="M 112.48926042617603 83.11751280151076 l 6.38647425771574 -8.632982756400041 a31.73850290854206,31.73850290854206 0 0,0 0.4364102280377271,0.32869513602515765 l -6.534130639511851 8.521771030869036" fill="#ff6309" stroke="none" /><path d="M 112.77801427241765 83.33499621200491 l 6.695554385646939 -8.732298839295456 a32.00379441601472,32.00379441601472 0 0,0 0.43428759618736223,0.3389683573799419 l -6.844874536993731 8.615752092692292" fill="#ff6709" stroke="none" /><path d="M 113.06298171725822 83.55741782278167 l 6.865290946806867 -8.641450551388957 a32.03661575920847,32.03661575920847 0 0,0 0.4288278005432746,0.34674892506476107 l -7.013022145914633 8.521995529060066" fill="#ff6709" stroke="none" /><path d="M 113.34407831869373 83.78471172551755 l 7.254996894220585 -8.816035342467758 a32.4174191083095,32.4174191083095 0 0,0 0.42782111319549854,0.3582878788246724 l -7.405675544375201 8.689846306249267" fill="#ff6d0a" stroke="none" /><path d="M 114.16331599549186 84.49514656593476 l 7.447198617634204 -8.152591038535371 a32.04198840300514,32.04198840300514 0 0,0 0.40402218650727184,0.37549459042995803 l -7.586428687936323 8.023191862030773" fill="#ff6709" stroke="none" /><path d="M 114.42810811169701 84.74124197986012 l 7.470720950356954 -7.900822639738206 a31.87357668399419,31.87357668399419 0 0,0 0.395409562485001,0.38038368582798515 l -7.605613756454374 7.771055867147919" fill="#ff6509" stroke="none" /><path d="M 114.68862486808459 84.99185889309783 l 7.92508687273626 -8.097478364289787 a32.33032028675967,32.33032028675967 0 0,0 0.3943747917424748,0.3926812210548365 l -8.063297464646057 7.959861292584832" fill="#ff6b09" stroke="none" /><path d="M 114.94478906791727 85.2469230424477 l 8.216751265027675 -8.11134658395766 a32.54594927913749,32.54594927913749 0 0,0 0.3901418335840449,0.40207545394372435 l -8.355157362314829 7.968706934463821" fill="#ff6f0a" stroke="none" /><path d="M 115.19652480421416 85.50635884689758 l 8.256514826520307 -7.874626904018874 a32.4096356628092,32.4096356628092 0 0,0 0.38155814375609093,0.40701962438678385 l -8.390840292246862 7.731337862754035" fill="#ff6d0a" stroke="none" /><path d="M 116.82858285166822 87.43820079747576 l 29.037294609367773 -21.675067204560193 a57.234969526045134,57.234969526045134 0 0,0 0.5825358504456711,0.7945782453409393 l -29.40609307232707 21.17202651554776" fill="#5aff2a" stroke="none" /><line stroke="#e1ed5e" stroke-width="0.3" x1="172.23445277983987" x2="176.4835382374775" y1="55.19839476539836" y2="52.563006222186495" /><path d="M 173.08426987136738 54.67131705675599 a86.0,86.0 0 0,1 12.851231095245387,41.99856678651699" fill="none" id="id63" stroke="none" /><text fill="#e1ed5e" style="font-size:6.75px; font-family:Arial;" text-anchor="middle"><textPath startOffset="22.20632615414155" xlink:href="#id63">March</textPath></text><path d="M 118.56541770881063 90.18545643968196 l 32.00426002672389 -16.91894085415383 a57.2011494221456,57.2011494221456 0 0,0 0.45268054506472666,0.8744347277414596 l -32.290750004948734 16.365533404152025" fill="#5aff2a" stroke="none" /><path d="M 120.18372546131832 94.20196356495316 l 34.66325265410039 -9.957468071535157 a57.06511132601201,57.06511132601201 0 0,0 0.26307893883148725,0.9464349163804346 l -34.82951836349824 9.35932185173577" fill="#5cff2a" stroke="none" /><path d="M 120.98425023603335 99.18683210126433 l 35.95405784859947 -1.3932680626140348 a56.98104322660389,56.98104322660389 0 0,0 0.02954414328035045,0.9804262832685018 l -35.97271368633547 0.774171631920534" fill="#5dff2a" stroke="none" /><line stroke="#e1ed5e" stroke-width="0.3" x1="184.98032266829074" x2="189.97916517819016" y1="98.17113171792111" y2="98.06355123074" /><path d="M 185.9800911702706 98.14961562048488 a86.0,86.0 0 0,1 -9.607161424134198,41.387399972396054" fill="none" id="id64" stroke="none" /><text fill="#e1ed5e" style="font-size:6.75px; font-family:Arial;" text-anchor="middle"><textPath startOffset="21.466115282336823" xlink:href="#id64">April</textPath></text><path d="M 120.92983693683757 101.71520430193887 l 35.82341282324869 2.9357358096002586 a56.94350360007588,56.94350360007588 0 0,0 -0.0884668949690614,0.9762248141561329 l -35.76757133200255 -3.551942012304962" fill="#5dff2a" stroke="none" /><path d="M 120.5718875245553 104.21870165774334 l 35.50555019190088 7.2811657790210225 a57.244440532737976,57.244440532737976 0 0,0 -0.20625979145671772,0.9635770782655138 l -35.37495636171972 -7.891256676702705" fill="#5aff2a" stroke="none" /><line stroke="#e1ed5e" stroke-width="0.3" x1="174.80103733775053" x2="179.2010983576182" y1="140.37084112569926" y2="142.7455964860345" /><path d="M 175.68104954172406 140.8457921977663 a86.0,86.0 0 0,1 -30.038265399797805,32.042727171017184" fill="none" id="id65" stroke="none" /><text fill="#e1ed5e" style="font-size:6.75px; font-family:Arial;" text-anchor="middle"><textPath startOffset="22.206326154141568" xlink:href="#id65">May</textPath></text><path d="M 116.0416608686014 113.55231037782055 l 27.188382777883685 22.969280119745825 a56.592077591734835,56.592077591734835 0 0,0 -0.6350641420687618,0.7387230701867734 l -26.788976126244144 -23.433880289094127" fill="#61ff29" stroke="none" /><path d="M 114.29624159901734 115.38237550388516 l 29.426608487488394 31.662247621184143 a64.2252612658513,64.2252612658513 0 0,0 -0.8162738651173373,0.7456468221181476 l -28.877235072904192 -32.164087209888876" fill="#33ff54" stroke="none" /><line stroke="#e1ed5e" stroke-width="0.3" x1="143.8653032363475" x2="146.44561519142675" y1="172.8068346515853" y2="177.08958963109032" /><path d="M 144.38136562736335 173.6633856474863 a86.0,86.0 0 0,1 -40.68145358897372,12.25698825130547" fill="none" id="id66" stroke="none" /><text fill="#e1ed5e" style="font-size:6.75px; font-family:Arial;" text-anchor="middle"><textPath startOffset="21.466115282336833" xlink:href="#id66">June</textPath></text><path d="M 106.57524785965236 119.94407469862006 l 10.98848229624113 33.330319467574256 a56.094970280445665,56.094970280445665 0 0,0 -0.9196333769197861,0.29443756622485173 l -10.413127574230403 -33.51452988045882" fill="#66ff29" stroke="none" /><path d="M 105.88484417918355 120.15858648285463 l 10.518201053313524 36.030191984911674 a58.53408168408439,58.53408168408439 0 0,0 -0.9696277438815252,0.274026485770668 l -9.896442141327393 -36.205907264020865" fill="#4cff2c" stroke="none" /><path d="M 104.13013068566511 120.58985236759428 l 12.390392056995317 61.76955710278282 a84.0,84.0 0 0,0 -1.4201295417131825,0.2721712066061275 l -11.32529490071043 -61.973685507737414" fill="#4dd2ff" stroke="none" /><line stroke="#e1ed5e" stroke-width="0.3" x1="102.19456741930631" x2="102.32365962044197" y1="184.97166512339345" y2="189.96999836594603" /><path d="M 102.22038585953345 185.97133177190398 a86.0,86.0 0 0,1 -42.740103519485714,-10.115201625700543" fill="none" id="id67" stroke="none" /><text fill="#e1ed5e" style="font-size:6.75px; font-family:Arial;" text-anchor="middle"><textPath startOffset="22.20632615414155" xlink:href="#id67">July</textPath></text><path d="M 95.86986931433489 120.58985236759428 l -10.493563769139586 52.313339518874464 a74.35541558449368,74.35541558449368 0 0,0 -1.252741948702872,-0.2625242555325114 l 11.392497179271844 -52.124959282615414" fill="#40ffca" stroke="none" /><line stroke="#e1ed5e" stroke-width="0.3" x1="58.666819895761336" x2="56.23545636021788" y1="174.27360380694188" y2="178.64263932499728" /><path d="M 58.180547188652646 175.14741091055294 a86.0,86.0 0 0,1 -31.652253787137756,-30.449443065178592" fill="none" id="id68" stroke="none" /><text fill="#e1ed5e" style="font-size:6.75px; font-family:Arial;" text-anchor="middle"><textPath startOffset="22.20632615414155" xlink:href="#id68">August</textPath></text><path d="M 89.7882731507175 118.34994917583269 l -6.772903617667585 12.170560277544638 a34.92820020259481,34.92820020259481 0 0,0 -0.5228439429956484,-0.2968844362216394 l 6.981396327584441 -12.052172675528364" fill="#ff900d" stroke="none" /><path d="M 88.54995079064634 117.60387380957326 l -28.5685602746546 43.92272214737457 a73.39626090669105,73.39626090669105 0 0,0 -1.0531500204318593,-0.6979704070268622 l 29.320384993826423 -43.424453719256384" fill="#3fffbf" stroke="none" /><path d="M 84.43433777217949 114.09645910891817 l -25.746425461873756 23.31628609256612 a55.73510646614191,55.73510646614191 0 0,0 -0.6378780763354707,-0.7166627808619667 l 26.143962387857567 -22.869649141963286" fill="#6aff28" stroke="none" /><path d="M 84.19399662182784 113.82643327865904 l -14.586569777306531 12.75972356610718 a40.37984941509359,40.37984941509359 0 0,0 -0.4531339989081339,-0.5270972122421923 l 14.804046285785445 -12.506749254703458" fill="#ffda14" stroke="none" /><path d="M 83.95833913139862 113.55231037782056 l -14.186037014097419 11.984642875888259 a39.57081880337863,39.57081880337863 0 0,0 -0.43509811186610436,-0.5241037046167083 l 14.39023112585706 -11.73867791415779" fill="#ffd013" stroke="none" /><path d="M 83.72743513129214 113.27417163493432 l -14.98049475019305 12.220179184701903 a40.33256326167803,40.33256326167803 0 0,0 -0.4342128625895037,-0.5417473093601628 l 15.188625524837414 -11.96050404176348" fill="#ffda14" stroke="none" /><path d="M 83.50135304334701 112.99209946851258 l -28.451060374037745 22.404201225428384 a57.213410070809786,57.213410070809786 0 0,0 -0.6026293462557254,-0.7789796652889031 l 28.83249653751154 -21.91114356602623" fill="#5aff2a" stroke="none" /><path d="M 83.28015986056508 112.70617746262583 l -15.6689564247058 11.9075624722565 a40.68009754726893,40.68009754726893 0 0,0 -0.4188863221115148,-0.5611666818928 l 15.8716040135124 -11.636082910854391" fill="#ffde14" stroke="none" /><path d="M 83.06392112726016 112.41649034213515 l -20.42676278127273 14.975644876276348 a46.328295978662496,46.328295978662496 0 0,0 -0.465974871214162,-0.6471983408025119 l 20.681517444862497 -14.621812930022699" fill="#d8ff1c" stroke="none" /><path d="M 82.85270091963577 112.12312394758628 l -15.200366388530023 10.74664440815012 a39.615625275041864,39.615625275041864 0 0,0 -0.38887281220961767,-0.560200289492796 l 15.383100107901775 -10.483402856470311" fill="#ffd013" stroke="none" /><path d="M 82.6465618267979 111.8261652097733 l -15.402851111050364 10.496862934177257 a39.63952665193217,39.63952665193217 0 0,0 -0.37940103619175974,-0.5671530712981022 l 15.581255252652854 -10.230172948673333" fill="#ffd013" stroke="none" /><path d="M 82.44556493220864 111.52570212397912 l -16.615827316648126 10.909441144394314 a40.87716336652878,40.87716336652878 0 0,0 -0.38112141838611074,-0.5915089049319214 l 16.801153598411283 -10.621810639540945" fill="#ffe115" stroke="none" /><line stroke="#e1ed5e" stroke-width="0.3" x1="26.63291911575756" x2="22.317208475507996" y1="142.92168965132927" y2="145.44649492493687" /><path d="M 25.769776987707644 143.4266507060508 a86.0,86.0 0 0,1 -11.730757126820373,-40.83630448921669" fill="none" id="id69" stroke="none" /><text fill="#e1ed5e" style="font-size:6.75px; font-family:Arial;" text-anchor="middle"><textPath startOffset="21.46611528233685" xlink:href="#id69">September</textPath></text><path d="M 81.87401531095188 110.60418214915194 l -11.061162310678629 6.471073540884148 a33.81499529593001,33.81499529593001 0 0,0 -0.2895980668614175,-0.5049386398665885 l 11.170912373692424 -6.279715055159253" fill="#ff810b" stroke="none" /><path d="M 81.18737489456691 109.33194174019688 l -16.650229461416288 8.259292386046274 a39.5861790542332,39.5861790542332 0 0,0 -0.29754997365606356,-0.6130410771224931 l 16.78993269168707 -7.971462352958497" fill="#ffd013" stroke="none" /><path d="M 79.18660465613746 102.79330883721812 l -18.833669291705746 2.527615220900437 a40.00252450845065,40.00252450845065 0 0,0 -0.08571682043791656,-0.6832473964220979 l 18.87438762139051 -2.2030500701909306" fill="#ffd513" stroke="none" /><path d="M 79.04373962182676 101.35467743843564 l -36.50857664828148 2.3600272282518966 a57.58477685324231,57.58477685324231 0 0,0 -0.0554284987395824,-0.9897130797546461 l 36.54379149790859 -1.731242432161813" fill="#56ff2a" stroke="none" /><line stroke="#e1ed5e" stroke-width="0.3" x1="15.007084014347285" x2="10.007500721073583" y1="101.09737516637583" y2="101.16192664675087" /><path d="M 14.007167355692545 101.11028546245083 a86.0,86.0 0 0,1 10.666146001902534,-42.60595125391555" fill="none" id="id70" stroke="none" /><text fill="#e1ed5e" style="font-size:6.75px; font-family:Arial;" text-anchor="middle"><textPath startOffset="22.20632615414155" xlink:href="#id70">October</textPath></text><path d="M 79.00486145842228 99.54816195383935 l -11.880538359575059 -0.2556820108186643 a32.88328931752445,32.88328931752445 0 0,0 0.017049681018696618,-0.5657959086324936 l 11.874376984100719 0.46014806687615234" fill="#ff730a" stroke="none" /><path d="M 79.3925641242962 95.95851677861259 l -35.27997410922762 -6.919027882626181 a56.95204472611161,56.95204472611161 0 0,0 0.19694750414718787,-0.9603859747041347 l 35.15564730916544 7.5252895134937186" fill="#5dff2a" stroke="none" /><path d="M 80.14247586403 93.16781622104843 l -43.57786394951343 -14.993408702845848 a67.08505756677403,67.08505756677403 0 0,0 0.3850903339700563,-1.0887022309554297 l 43.31332053473356 15.741308560227887" fill="#37ff77" stroke="none" /><path d="M 80.95270993114464 91.15688171328213 l -32.18179605125986 -14.941098084375591 a56.48104295327036,56.48104295327036 0 0,0 0.41699632919888807,-0.8783006166153957 l 31.919841528219216 15.492841116631519" fill="#62ff29" stroke="none" /><path d="M 81.26839172434947 90.50648371742162 l -3.6580594034352227 -1.8539703584499172 a25.10104921807478,25.10104921807478 0 0,0 0.1986455998965583,-0.38372007137561337 l 3.6256043703785505 1.9166631520858661" fill="#ff0000" stroke="none" /><line stroke="#e1ed5e" stroke-width="0.3" x1="26.266209847984243" x2="21.928928074336255" y1="57.711370442889674" y2="55.22380399835377" /><path d="M 25.398753493254645 57.213857153982495 a86.0,86.0 0 0,1 29.58750427330803,-30.492523968695096" fill="none" id="id71" stroke="none" /><text fill="#e1ed5e" style="font-size:6.75px; font-family:Arial;" text-anchor="middle"><textPath startOffset="21.46611528233685" xlink:href="#id71">November</textPath></text><path d="M 85.83668400450813 84.49514656593479 l -23.68142496464843 -25.9245097195853 a56.11253469285786,56.11253469285786 0 0,0 0.7187454900246966,-0.6452967975615908 l 23.23166848702776 26.328305525916168" fill="#66ff29" stroke="none" /><line stroke="#e1ed5e" stroke-width="0.3" x1="56.762969772571076" x2="54.21961505331055" y1="26.818313649435495" y2="22.513508569990535" /><path d="M 56.25429882871897 25.957352633546506 a86.0,86.0 0 0,1 42.265352541879196,-11.944610805530505" fill="none" id="id72" stroke="none" /><text fill="#e1ed5e" style="font-size:6.75px; font-family:Arial;" text-anchor="middle"><textPath startOffset="22.20632615414155" xlink:href="#id72">December</textPath></text><path d="M 89.94658935756843 81.56283822128135 l -16.87181576658654 -30.94157871920522 a56.24258022475669,56.24258022475669 0 0,0 0.8539631095568024,-0.4561575185099087 l 16.33670761050143 31.22741496421688" fill="#65ff29" stroke="none" /><path d="M 99.63851952072746 79.00311137660856 l -0.6234408781132821 -36.21307216189785 a57.21843831436308,57.21843831436308 0 0,0 0.9849213573858089,-0.00847752907378942 l 8.87095891036012e-15 36.21843831436308" fill="#5aff2a" stroke="none" /></svg>