<?xml version="1.0" encoding="utf-8" ?>
<svg baseProfile="full" height="200mm" version="1.1" viewBox="0,0,200,200" width="200mm" xmlns="http://www.w3.org/2000/svg" xmlns:ev="http://www.w3.org/2001/xml-events" xmlns:xlink="http://www.w3.org/1999/xlink"><defs /><rect fill="#1a1a1a" height="200" width="200" x="0" y="0" /><text alignment-baseline="middle" fill="#e1ed5e" style="dominant-baseline: central; font-size:9.0px; font-family:Arial;" text-anchor="middle" x="100.0" y="100.0">2025</text><line stroke="#e1ed5e" stroke-width="0.3" x1="100.0" x2="100.0" y1="15.0" y2="10.0" /><path d="M 100.0 14.0 a86.0,86.0 0 0,1 42.46469731375804,11.215312516191453" fill="none" id="id85" stroke="none" /><text fill="#e1ed5e" style="font-size:6.75px; font-family:Arial;" text-anchor="middle"><textPath startOffset="22.20632615414155" xlink:href="#id85">January</textPath></text><path d="M 101.08401301168833 79.027996857942 l 2.1265685162182266 -41.14194306069179 a62.19686605147746,62.19686605147746 0 0,0 1.0687137959339155,0.06446773470151523 l -2.834444360991754 41.099242056609974" fill="#86ff25" stroke="none" /><path d="M 106.0581310904928 79.89281104454417 l 14.940384235356937 -49.587756421923025 a72.78958069013564,72.78958069013564 0 0,0 1.1965727604042036,0.3717809812753254 l -15.791742368471859 49.32323530576518" fill="#38ff84" stroke="none" /><path d="M 109.08828744355905 81.06846463323043 l 16.216075656582422 -33.77921436897016 a58.469940393398616,58.469940393398616 0 0,0 0.9035797939926299,0.44338268070822295 l -16.795126717585486 33.49507652812711" fill="#c3ff1e" stroke="none" /><line stroke="#e1ed5e" stroke-width="0.3" x1="143.23703022742887" x2="145.7803849466894" y1="26.81831364943548" y2="22.513508569990506" /><path d="M 143.74570117128098 25.957352633546492 a86.0,86.0 0 0,1 28.547481713284135,27.462654790039103" fill="none" id="id86" stroke="none" /><text fill="#e1ed5e" style="font-size:6.75px; font-family:Arial;" text-anchor="middle"><textPath startOffset="19.985693538727396" xlink:href="#id86">February</textPath></text><path d="M 114.94478906791727 85.2469230424477 l 42.8534572438273 -42.30373207291232 a81.21648067635043,81.21648067635043 0 0,0 0.9735757410715853,1.0033553808979794 l -43.57529724860199 41.559812496464225" fill="#48f8ff" stroke="none" /><path d="M 116.60985879189232 87.15038557335679 l 42.97761526699137 -33.24807224893558 a75.33700141071432,75.33700141071432 0 0,0 0.7846673714234821,1.0325302831178873 l -43.543558578638965 32.50335718993666" fill="#3dffad" stroke="none" /><line stroke="#e1ed5e" stroke-width="0.3" x1="172.23445277983987" x2="176.4835382374775" y1="55.19839476539836" y2="52.563006222186495" /><path d="M 173.08426987136738 54.67131705675599 a86.0,86.0 0 0,1 12.851231095245387,41.99856678651699" fill="none" id="id87" stroke="none" /><text fill="#e1ed5e" style="font-size:6.75px; font-family:Arial;" text-anchor="middle"><textPath startOffset="22.20632615414155" xlink:href="#id87">March</textPath></text><path d="M 119.196687751892 91.48605970444005 l 19.36923630178693 -8.590467458520441 a42.188757539562324,42.188757539562324 0 0,0 0.2887103046966549,0.6663831887952969 l -19.514237316326266 8.25578512513854" fill="#ff0000" stroke="none" /><path d="M 120.67395015179393 96.31383870115 l 33.38140795684932 -5.951898558727242 a54.90786772468866,54.90786772468866 0 0,0 0.15789447237084644,0.9319021138263408 l -33.47891429074039 5.376410656585063" fill="#fffd17" stroke="none" /><line stroke="#e1ed5e" stroke-width="0.3" x1="184.98032266829074" x2="189.97916517819016" y1="98.17113171792111" y2="98.06355123074" /><path d="M 185.9800911702706 98.14961562048488 a86.0,86.0 0 0,1 -9.607161424134198,41.387399972396054" fill="none" id="id88" stroke="none" /><text fill="#e1ed5e" style="font-size:6.75px; font-family:Arial;" text-anchor="middle"><textPath startOffset="21.466115282336823" xlink:href="#id88">April</textPath></text><path d="M 120.99980553446 99.90962569577887 l 54.430624780744715 -0.23424644741633788 a75.43112882735713,75.43112882735713 0 0,0 -0.005588019598693661,1.2984589580707813 l -54.42659246385652 -0.7027219888581282" fill="#3dffaf" stroke="none" /><path d="M 120.9904718944345 100.63252640178507 l 39.66746489853335 1.1953384834029166 a60.68547096314065,60.68547096314065 0 0,0 -0.04045081716210519,1.0438558517884409 l -39.641011948520045 -1.8779715822053635" fill="#9eff22" stroke="none" /><path d="M 120.95626037817324 101.35467743843564 l 53.56542439880424 3.4626345828795015 a74.67722542455567,74.67722542455567 0 0,0 -0.09396329929122751,1.2820545646399382 l -53.49788454084867 -4.38416228401621" fill="#3cffa3" stroke="none" /><path d="M 120.13307415673323 105.97154293290107 l 52.78846264963985 15.657249788092866 a76.0615224983759,76.0615224983759 0 0,0 -0.38310822489288665,1.2520198454434959 l -52.51112765224082 -16.563596606088417" fill="#3effb9" stroke="none" /><path d="M 119.26925614724726 108.34839909993367 l 47.779903389489945 20.700627953856895 a73.07144289908811,73.07144289908811 0 0,0 -0.5099653051624327,1.1498371362325357 l -47.41649699959624 -21.520013426582118" fill="#39ff89" stroke="none" /><line stroke="#e1ed5e" stroke-width="0.3" x1="174.80103733775053" x2="179.2010983576182" y1="140.37084112569926" y2="142.7455964860345" /><path d="M 175.68104954172406 140.8457921977663 a86.0,86.0 0 0,1 -30.038265399797805,32.042727171017184" fill="none" id="id89" stroke="none" /><text fill="#e1ed5e" style="font-size:6.75px; font-family:Arial;" text-anchor="middle"><textPath startOffset="22.206326154141568" xlink:href="#id89">May</textPath></text><path d="M 118.48025628344425 109.97397251340804 l 26.03651207668315 14.052156626772456 a50.5865352311252,50.5865352311252 0 0,0 -0.42016595754383657,0.7627232583943973 l -25.7907697096878 -14.498250403564658" fill="#ffac0f" stroke="none" /><path d="M 118.30583269289576 110.29060199501025 l 54.91749807868728 30.871805985030733 a84.0,84.0 0 0,0 -0.7193920153904818,1.2543206165667395 l -54.37795406714442 -31.812546447455787" fill="#4dd2ff" stroke="none" /><line stroke="#e1ed5e" stroke-width="0.3" x1="143.8653032363475" x2="146.44561519142675" y1="172.8068346515853" y2="177.08958963109032" /><path d="M 144.38136562736335 173.6633856474863 a86.0,86.0 0 0,1 -40.68145358897372,12.25698825130547" fill="none" id="id90" stroke="none" /><text fill="#e1ed5e" style="font-size:6.75px; font-family:Arial;" text-anchor="middle"><textPath startOffset="21.466115282336833" xlink:href="#id90">June</textPath></text><line stroke="#e1ed5e" stroke-width="0.3" x1="102.19456741930631" x2="102.32365962044197" y1="184.97166512339345" y2="189.96999836594603" /><path d="M 102.22038585953345 185.97133177190398 a86.0,86.0 0 0,1 -42.740103519485714,-10.115201625700543" fill="none" id="id91" stroke="none" /><text fill="#e1ed5e" style="font-size:6.75px; font-family:Arial;" text-anchor="middle"><textPath startOffset="22.20632615414155" xlink:href="#id91">July</textPath></text><line stroke="#e1ed5e" stroke-width="0.3" x1="58.666819895761336" x2="56.23545636021788" y1="174.27360380694188" y2="178.64263932499728" /><path d="M 58.180547188652646 175.14741091055294 a86.0,86.0 0 0,1 -31.652253787137756,-30.449443065178592" fill="none" id="id92" stroke="none" /><text fill="#e1ed5e" style="font-size:6.75px; font-family:Arial;" text-anchor="middle"><textPath startOffset="22.20632615414155" xlink:href="#id92">August</textPath></text><line stroke="#e1ed5e" stroke-width="0.3" x1="26.63291911575756" x2="22.317208475507996" y1="142.92168965132927" y2="145.44649492493687" /><path d="M 25.769776987707644 143.4266507060508 a86.0,86.0 0 0,1 -11.730757126820373,-40.83630448921669" fill="none" id="id93" stroke="none" /><text fill="#e1ed5e" style="font-size:6.75px; font-family:Arial;" text-anchor="middle"><textPath startOffset="21.46611528233685" xlink:href="#id93">September</textPath></text><line stroke="#e1ed5e" stroke-width="0.3" x1="15.007084014347285" x2="10.007500721073583" y1="101.09737516637583" y2="101.16192664675087" /><path d="M 14.007167355692545 101.11028546245083 a86.0,86.0 0 0,1 10.666146001902534,-42.60595125391555" fill="none" id="id94" stroke="none" /><text fill="#e1ed5e" style="font-size:6.75px; font-family:Arial;" text-anchor="middle"><textPath startOffset="22.20632615414155" xlink:href="#id94">October</textPath></text><line stroke="#e1ed5e" stroke-width="0.3" x1="26.266209847984243" x2="21.928928074336255" y1="57.711370442889674" y2="55.22380399835377" /><path d="M 25.398753493254645 57.213857153982495 a86.0,86.0 0 0,1 29.58750427330803,-30.492523968695096" fill="none" id="id95" stroke="none" /><text fill="#e1ed5e" style="font-size:6.75px; font-family:Arial;" text-anchor="middle"><textPath startOffset="21.46611528233685" xlink:href="#id95">November</textPath></text><line stroke="#e1ed5e" stroke-width="0.3" x1="56.762969772571076" x2="54.21961505331055" y1="26.818313649435495" y2="22.513508569990535" /><path d="M 56.25429882871897 25.957352633546506 a86.0,86.0 0 0,1 42.265352541879196,-11.944610805530505" fill="none" id="id96" stroke="none" /><text fill="#e1ed5e" style="font-size:6.75px; font-family:Arial;" text-anchor="middle"><textPath startOffset="22.20632615414155" xlink:href="#id96">December</textPath></text></svg>