<?xml version="1.0" encoding="utf-8" ?>
<svg baseProfile="full" height="200mm" version="1.1" viewBox="0,0,200,200" width="200mm" xmlns="http://www.w3.org/2000/svg" xmlns:ev="http://www.w3.org/2001/xml-events" xmlns:xlink="http://www.w3.org/1999/xlink"><defs /><rect fill="#1a1a1a" height="200" width="200" x="0" y="0" /><rect fill="#1a1a1a" height="200" width="180" x="10" y="0" /><text alignment-baseline="middle" fill="#e1ed5e" style="dominant-baseline: central; font-size:9.0px; font-family:Arial;" text-anchor="middle" x="100.0" y="100.0">2025</text><line stroke="#e1ed5e" stroke-width="0.3" x1="100.0" x2="100.0" y1="15.0" y2="10.0" /><path d="M 100.0 14.0 a86.0,86.0 0 0,1 42.46469731375804,11.215312516191453" fill="none" id="id85" stroke="none" /><text fill="#e1ed5e" style="font-size:6.75px; font-family:Arial;" text-anchor="middle"><textPath startOffset="22.20632615414155" xlink:href="#id85">January</textPath></text><path d="M 101.08401301168833 79.027996857942 l 1.8901202992291435 -36.56746591312892 a57.61628214405995,57.61628214405995 0 0,0 0.9900067239210212,0.05971990917800709 l -2.5192890719897765 36.52951273457061" fill="red" stroke="none" /><path d="M 106.0581310904928 79.89281104454417 l 13.279197592819699 -44.07420889169642 a67.03121743054425,67.03121743054425 0 0,0 1.1019122258110543,0.34236949239336245 l -14.03589519134147 43.83909926442054" fill="red" stroke="none" /><path d="M 109.08828744355905 81.06846463323043 l 14.413047846137061 -30.023381933794866 a54.303744698720536,54.303744698720536 0 0,0 0.8391964506507027,0.41179005374412947 l -14.927715563798195 29.770836719915906" fill="red" stroke="none" /><line stroke="#e1ed5e" stroke-width="0.3" x1="143.23703022742887" x2="145.7803849466894" y1="26.81831364943548" y2="22.513508569990506" /><path d="M 143.74570117128098 25.957352633546492 a86.0,86.0 0 0,1 28.547481713284135,27.462654790039103" fill="none" id="id86" stroke="none" /><text fill="#e1ed5e" style="font-size:6.75px; font-family:Arial;" text-anchor="middle"><textPath startOffset="19.985693538727396" xlink:href="#id86">February</textPath></text><path d="M 114.94478906791727 85.2469230424477 l 38.08868080711969 -37.60007830190091 a74.52114996836042,74.52114996836042 0 0,0 0.8933160265226782,0.9206406900272456 l -38.73026109734547 36.938873416323545" fill="red" stroke="none" /><path d="M 116.60985879189232 87.15038557335679 l 38.19903398789184 -29.55129627316529 a69.29539635444054,69.29539635444054 0 0,0 0.7217414483058285,0.949727144388853 l -38.70205137642178 28.8893843528954" fill="red" stroke="none" /><line stroke="#e1ed5e" stroke-width="0.3" x1="172.23445277983987" x2="176.4835382374775" y1="55.19839476539836" y2="52.563006222186495" /><path d="M 173.08426987136738 54.67131705675599 a86.0,86.0 0 0,1 12.851231095245387,41.99856678651699" fill="none" id="id87" stroke="none" /><text fill="#e1ed5e" style="font-size:6.75px; font-family:Arial;" text-anchor="middle"><textPath startOffset="22.20632615414155" xlink:href="#id87">March</textPath></text><path d="M 119.196687751892 91.48605970444005 l 17.215615878522954 -7.6353133225596235 a39.8328287734612,39.8328287734612 0 0,0 0.27258797847581673,0.6291706370329744 l -17.34449456684145 7.337843540940046" fill="red" stroke="none" /><path d="M 120.67395015179393 96.31383870115 l 29.669806693223613 -5.2901207739166 a51.13773062152956,51.13773062152956 0 0,0 0.14705296944354565,0.8679149498471189 l -29.756471524187383 4.778620035753644" fill="red" stroke="none" /><line stroke="#e1ed5e" stroke-width="0.3" x1="184.98032266829074" x2="189.97916517819016" y1="98.17113171792111" y2="98.06355123074" /><path d="M 185.9800911702706 98.14961562048488 a86.0,86.0 0 0,1 -9.607161424134198,41.387399972396054" fill="none" id="id88" stroke="none" /><text fill="#e1ed5e" style="font-size:6.75px; font-family:Arial;" text-anchor="middle"><textPath startOffset="21.466115282336823" xlink:href="#id88">April</textPath></text><path d="M 120.99980553446 99.90962569577887 l 48.3786099592819 -0.20820112867621207 a69.37905796212151,69.37905796212151 0 0,0 -0.005139675643971427,1.1942796125935289 l -48.37502598634843 -0.6245879621210015" fill="red" stroke="none" /><path d="M 120.9904718944345 100.63252640178507 l 35.25693155516622 1.062431572130818 a56.272935567246684,56.272935567246684 0 0,0 -0.03750957505443436,0.9679554621049664 l -35.233419847260585 -1.6691642812497904" fill="red" stroke="none" /><path d="M 120.95626037817324 101.35467743843564 l 58.91038363732543 3.8081492672324537 a80.03334058935157,80.03334058935157 0 0,0 -0.10070267999808635,1.374008059922126 l -58.83610439866301 -4.82163046365135" fill="red" stroke="none" /><path d="M 120.13307415673323 105.97154293290107 l 52.901391257899974 15.690744823541914 a76.1793137882207,76.1793137882207 0 0,0 -0.3837015184594367,1.2539587631467175 l -52.623462966934405 -16.59903055924069" fill="red" stroke="none" /><path d="M 119.26925614724726 108.34839909993367 l 42.46736684143347 18.398973183312197 a67.28174003476019,67.28174003476019 0 0,0 -0.4695589922327116,1.058731567531097 l -42.14436676446949 -19.127253087335983" fill="red" stroke="none" /><line stroke="#e1ed5e" stroke-width="0.3" x1="174.80103733775053" x2="179.2010983576182" y1="140.37084112569926" y2="142.7455964860345" /><path d="M 175.68104954172406 140.8457921977663 a86.0,86.0 0 0,1 -30.038265399797805,32.042727171017184" fill="none" id="id89" stroke="none" /><text fill="#e1ed5e" style="font-size:6.75px; font-family:Arial;" text-anchor="middle"><textPath startOffset="22.206326154141568" xlink:href="#id89">May</textPath></text><path d="M 118.48025628344425 109.97397251340804 l 23.141572736522846 12.489729950222 a47.29687705696724,47.29687705696724 0 0,0 -0.3928424341907974,0.7131231268547755 l -22.923153892880542 -12.886223595474581" fill="red" stroke="none" /><path d="M 118.30583269289576 110.29060199501025 l 48.81134894538822 27.439241539200133 a76.99517623969959,76.99517623969959 0 0,0 -0.6594013691717003,1.1497218682576757 l -48.33179558006414 -28.275383253316125" fill="red" stroke="none" /><path d="M 118.12598468904814 110.60418214915192 l 54.07606935886613 31.635935880386246 a83.65024913224855,83.65024913224855 0 0,0 -0.737791709138105,1.2365813422152845 l -53.523496774029795 -32.56207931648763" fill="red" stroke="none" /><path d="M 117.94076556474637 110.91462005526583 l 53.8222966942391 32.74386016579747 a84.0,84.0 0 0,0 -0.7621414413281484,1.228814674538906 l -53.25069061324299 -33.665471171701654" fill="red" stroke="none" /><path d="M 115.56566222782051 114.09645910891815 l 22.13208889101885 20.04309752331512 a50.85892022510326,50.85892022510326 0 0,0 -0.5932416759332413,0.6438466725715579 l -21.78380080708989 -20.42109545068801" fill="red" stroke="none" /><path d="M 115.07121518719521 114.62390073753431 l 29.133176668872387 28.26850247195813 a61.59372137199093,61.59372137199093 0 0,0 -0.7448715704825865,0.7545509682881412 l -28.642264473334265 -28.765793934226934" fill="red" stroke="none" /><path d="M 113.20401910651253 116.32954008644616 l 25.618740959834966 31.68294850933449 a61.744682040878246,61.744682040878246 0 0,0 -0.8322080769628629,0.6611564276919181 l -25.06957539015475 -32.11923885103153" fill="red" stroke="none" /><path d="M 111.1453310114006 117.79835938074945 l 30.010711648184156 47.925129423258056 a77.54609485956118,77.54609485956118 0 0,0 -1.1374195324174818,0.6986959761833141 l -29.18131291583437 -48.43461386626975" fill="red" stroke="none" /><line stroke="#e1ed5e" stroke-width="0.3" x1="143.8653032363475" x2="146.44561519142675" y1="172.8068346515853" y2="177.08958963109032" /><path d="M 144.38136562736335 173.6633856474863 a86.0,86.0 0 0,1 -40.68145358897372,12.25698825130547" fill="none" id="id90" stroke="none" /><text fill="#e1ed5e" style="font-size:6.75px; font-family:Arial;" text-anchor="middle"><textPath startOffset="21.466115282336833" xlink:href="#id90">June</textPath></text><path d="M 109.57404056367764 118.69057910512821 l 21.67761480806119 42.31935008900059 a68.54835828629699,68.54835828629699 0 0,0 -1.0548159102370922,0.528906595011973 l -20.945944990141335 -42.68622452492186" fill="red" stroke="none" /><path d="M 106.91757812671514 119.82793768551818 l 16.043357733932208 45.98526992942533 a69.70353557865211,69.70353557865211 0 0,0 -1.1362680928504514,0.3854838297497651 l -15.249419908144528 -46.25461674607322" fill="red" stroke="none" /><path d="M 104.48393922423573 120.51570834832081 l 10.269392351221294 46.98633229758883 a69.09548671177745,69.09548671177745 0 0,0 -1.1641225321580861,0.2439531951650974 l -9.459078357633828 -47.15614147348047" fill="red" stroke="none" /><path d="M 104.13013068566511 120.58985236759428 l 3.53253103177658 17.610651566225755 a38.96145384086361,38.96145384086361 0 0,0 -0.6586941855655352,0.1262403083690094 l -3.2288692316393406 -17.668849072943235" fill="red" stroke="none" /><path d="M 101.98527174616119 120.90594882070398 l 4.582674696403191 48.25795906791771 a69.47506081248248,69.47506081248248 0 0,0 -1.1915160917555958,0.1028090220349154 l -3.7513142869060534 -48.32969234223129" fill="red" stroke="none" /><line stroke="#e1ed5e" stroke-width="0.3" x1="102.19456741930631" x2="102.32365962044197" y1="184.97166512339345" y2="189.96999836594603" /><path d="M 102.22038585953345 185.97133177190398 a86.0,86.0 0 0,1 -42.740103519485714,-10.115201625700543" fill="none" id="id91" stroke="none" /><text fill="#e1ed5e" style="font-size:6.75px; font-family:Arial;" text-anchor="middle"><textPath startOffset="22.20632615414155" xlink:href="#id91">July</textPath></text><path d="M 99.45781275523022 120.99299961872073 l -1.2371702682608336 47.90211356027073 a68.91808712598763,68.91808712598763 0 0,0 -1.1856524895301486,-0.04083626905698547 l 2.0615431094656254 -47.87372049278765" fill="red" stroke="none" /><path d="M 96.58105272829116 120.7198165907248 l -6.1074826593337335 37.01312435543277 a58.51363377473306,58.51363377473306 0 0,0 -0.9923662310370941,-0.17253558948727304 l 6.743697861842877 -36.9025101874245" fill="red" stroke="none" /><path d="M 94.46302465271185 120.25689768951611 l -12.564038583475874 45.965247845514526 a68.65143308471056,68.65143308471056 0 0,0 -1.1372235159582156,-0.3213907250284596 l 13.353393267538705 -45.742168327147546" fill="red" stroke="none" /><path d="M 92.06813273071674 119.44442032107085 l -18.585677881107298 45.561495219641465 a70.20647588427455,70.20647588427455 0 0,0 -1.115041115976605,-0.4660872769107346 l 19.367190456581366 -45.23482289971076" fill="red" stroke="none" /><line stroke="#e1ed5e" stroke-width="0.3" x1="58.666819895761336" x2="56.23545636021788" y1="174.27360380694188" y2="178.64263932499728" /><path d="M 58.180547188652646 175.14741091055294 a86.0,86.0 0 0,1 -31.652253787137756,-30.449443065178592" fill="none" id="id92" stroke="none" /><text fill="#e1ed5e" style="font-size:6.75px; font-family:Arial;" text-anchor="middle"><textPath startOffset="22.20632615414155" xlink:href="#id92">August</textPath></text><path d="M 89.7882731507175 118.34994917583269 l -23.474146722908447 42.18183718277535 a69.2736258476904,69.2736258476904 0 0,0 -1.036964271669543,-0.5888153765590386 l 24.196759761499198 -41.771518640421675" fill="red" stroke="none" /><path d="M 86.79598089348748 116.32954008644616 l -29.98839021705055 37.08693665368806 a68.69428076997036,68.69428076997036 0 0,0 -0.9130774171922326,-0.7514005523551189 l 30.62233776278747 -36.565240982475764" fill="red" stroke="none" /><path d="M 83.72743513129214 113.27417163493432 l -37.23554547661293 30.37449999830363 a69.0530550234619,69.0530550234619 0 0,0 -0.7434123266045162,-0.9275211823098828 l 37.7528757152723 -29.72905098241549" fill="red" stroke="none" /><line stroke="#e1ed5e" stroke-width="0.3" x1="26.63291911575756" x2="22.317208475507996" y1="142.92168965132927" y2="145.44649492493687" /><path d="M 25.769776987707644 143.4266507060508 a86.0,86.0 0 0,1 -11.730757126820373,-40.83630448921669" fill="none" id="id93" stroke="none" /><text fill="#e1ed5e" style="font-size:6.75px; font-family:Arial;" text-anchor="middle"><textPath startOffset="21.46611528233685" xlink:href="#id93">September</textPath></text><path d="M 81.18737489456691 109.33194174019688 l -43.499527823135594 21.57779986028322 a69.55728954179986,69.55728954179986 0 0,0 -0.5228281729942941,-1.0771808929577957 l 43.86450925274461 -20.82583001136014" fill="red" stroke="none" /><path d="M 81.02952815118164 109.00673069616217 l -44.17503974443416 20.97326253353901 a69.90104168341497,69.90104168341497 0 0,0 -0.5067006120739567,-1.0913880402046667 l 44.52951497334794 -20.209754426055518" fill="red" stroke="none" /><path d="M 80.0844068197444 106.66101706037122 l -59.36380223770015 19.854959673802153 a83.59616952949344,83.59616952949344 0 0,0 -0.4446828534192248,-1.3685930972324702 l 59.696777342135626 -18.83016767659188" fill="red" stroke="none" /><line stroke="#e1ed5e" stroke-width="0.3" x1="15.007084014347285" x2="10.007500721073583" y1="101.09737516637583" y2="101.16192664675087" /><path d="M 14.007167355692545 101.11028546245083 a86.0,86.0 0 0,1 10.666146001902534,-42.60595125391555" fill="none" id="id94" stroke="none" /><text fill="#e1ed5e" style="font-size:6.75px; font-family:Arial;" text-anchor="middle"><textPath startOffset="22.20632615414155" xlink:href="#id94">October</textPath></text><path d="M 79.00019446554 99.90962569577889 l -13.708081697253258 -0.05899380085032742 a34.708208638881615,34.708208638881615 0 0,0 0.007713474413071624,-0.5974170938394286 l 13.705035215722472 0.29494715275022804" fill="red" stroke="none" /><path d="M 79.03285615573316 98.82574320788736 l -8.830073152930568 -0.4945248361767413 a29.84391014764967,29.84391014764967 0 0,0 0.03314011175050412,-0.5126628606196275 l 8.82025245017565 0.6464467610493807" fill="red" stroke="none" /><path d="M 79.32604984820605 96.31383870115002 l -48.048465966775936 -8.567032154736586 a69.80624060200412,69.80624060200412 0 0,0 0.2211005504864919,-1.1811279817054439 l 47.893879692379585 9.392838213904602" fill="red" stroke="none" /><path d="M 79.81627453868168 94.20196356495316 l -46.36159054476561 -13.317967076020517 a69.23655589776769,69.23655589776769 0 0,0 0.3389099833612469,-1.1426359827165173 l 46.12547466429266 14.114032445483573" fill="red" stroke="none" /><path d="M 80.65960295795068 91.81776055985345 l -30.002735246313577 -12.693098446268992 a53.57727536837701,53.57727536837701 0 0,0 0.36664534341679456,-0.8462680033528561 l 29.7797991930541 13.207665594208448" fill="red" stroke="none" /><line stroke="#e1ed5e" stroke-width="0.3" x1="26.266209847984243" x2="21.928928074336255" y1="57.711370442889674" y2="55.22380399835377" /><path d="M 25.398753493254645 57.213857153982495 a86.0,86.0 0 0,1 29.58750427330803,-30.492523968695096" fill="none" id="id95" stroke="none" /><text fill="#e1ed5e" style="font-size:6.75px; font-family:Arial;" text-anchor="middle"><textPath startOffset="21.46611528233685" xlink:href="#id95">November</textPath></text><path d="M 82.15384107792192 88.93136811851018 l -43.94265995855445 -27.254331259652663 a72.7083739508798,72.7083739508798 0 0,0 0.6688214937685183,-1.0579149853126562 l 43.46701086853997 28.006693892679532" fill="red" stroke="none" /><path d="M 83.39014120810768 87.1503855733568 l -38.76595436004719 -29.989873643634024 a70.01215908941776,70.01215908941776 0 0,0 0.7456158899597144,-0.9468564617697101 l 38.243984389493505 30.652722499356784" fill="red" stroke="none" /><path d="M 86.93701828274178 83.55741782278169 l -29.48696234177657 -37.11570696150111 a68.40312913086404,68.40312913086404 0 0,0 0.9282221394058183,-0.724492103021845 l 28.843707647211325 37.61777745374618" fill="red" stroke="none" /><line stroke="#e1ed5e" stroke-width="0.3" x1="56.762969772571076" x2="54.21961505331055" y1="26.818313649435495" y2="22.513508569990535" /><path d="M 56.25429882871897 25.957352633546506 a86.0,86.0 0 0,1 42.265352541879196,-11.944610805530505" fill="none" id="id96" stroke="none" /><text fill="#e1ed5e" style="font-size:6.75px; font-family:Arial;" text-anchor="middle"><textPath startOffset="22.20632615414155" xlink:href="#id96">December</textPath></text><path d="M 90.91171255644093 81.06846463323043 l -20.80957183872536 -43.34778666264141 a69.08397746298598,69.08397746298598 0 0,0 1.0764658417131339,-0.5054151465153893 l 20.06032778571262 43.699566791796805" fill="red" stroke="none" /><path d="M 98.55514903715128 79.0497635885617 l -3.3486380740751396 -48.55501440086126 a69.6703482668759,69.6703482668759 0 0,0 1.1971288440594965,-0.0722140810907297 l 2.51234718117602 48.6054617513323" fill="red" stroke="none" /></svg>